<svg xmlns="http://www.w3.org/2000/svg" xmlns:xlink="http://www.w3.org/1999/xlink" viewBox="0 0 13.67 16.36"><defs><style>.cls-1{fill:none;}.cls-2{clip-path:url(#clip-path);}.cls-3{fill:#424a54;}</style><clipPath id="clip-path" transform="translate(0)"><rect class="cls-1" width="13.67" height="16.36"/></clipPath></defs><title>Asset 1</title><g id="Layer_2" data-name="Layer 2"><g id="Layer_1-2" data-name="Layer 1"><g class="cls-2"><path class="cls-3" d="M6.83,3.76A3.08,3.08,0,1,0,9.91,6.83,3.08,3.08,0,0,0,6.83,3.76m0,6.83a3.76,3.76,0,1,1,3.76-3.76,3.75,3.75,0,0,1-3.76,3.76" transform="translate(0)"/><path class="cls-3" d="M6.83.68A6.16,6.16,0,0,0,.68,6.83a6.08,6.08,0,0,0,1.95,4.49l4.2,4.09L11,11.32A6.15,6.15,0,0,0,6.83.68m0,15.68L2.15,11.81a6.83,6.83,0,1,1,11.52-5,6.89,6.89,0,0,1-2.16,5Z" transform="translate(0)"/></g></g></g></svg>