<?xml version="1.0" encoding="UTF-8" standalone="no"?>
<svg
   xmlns:dc="http://purl.org/dc/elements/1.1/"
   xmlns:cc="http://creativecommons.org/ns#"
   xmlns:rdf="http://www.w3.org/1999/02/22-rdf-syntax-ns#"
   xmlns:svg="http://www.w3.org/2000/svg"
   xmlns="http://www.w3.org/2000/svg"
   viewBox="0 0 117.78 116.9336"
   height="116.9336"
   width="117.78"
   xml:space="preserve"
   id="svg2"
   version="1.1"><metadata
     id="metadata8"><rdf:RDF><cc:Work
         rdf:about=""><dc:format>image/svg+xml</dc:format><dc:type
           rdf:resource="http://purl.org/dc/dcmitype/StillImage" /><dc:title></dc:title></cc:Work></rdf:RDF></metadata><defs
     id="defs6"><clipPath
       id="clipPath18"
       clipPathUnits="userSpaceOnUse"><path
         id="path16"
         d="M 0,87.7 H 88.335 V 0 H 0 Z" /></clipPath></defs><g
     transform="matrix(1.3333333,0,0,-1.3333333,0,116.9336)"
     id="g10"><g
       id="g12"><g
         clip-path="url(#clipPath18)"
         id="g14"><g
           transform="translate(53.3164,22.9482)"
           id="g20"><path
             id="path22"
             style="fill:#0078be;fill-opacity:1;fill-rule:evenodd;stroke:none"
             d="m 0,0 h 21.795 c 2.077,0 3.967,0.852 5.337,2.223 1.371,1.37 2.222,3.259 2.222,5.337 v 0.685 c 0,2.077 -0.851,3.967 -2.222,5.337 -1.37,1.371 -3.26,2.223 -5.337,2.223 H 0 c -2.077,0 -3.967,-0.852 -5.337,-2.223 -1.371,-1.37 -2.222,-3.26 -2.222,-5.337 V 7.56 c 0,-2.078 0.851,-3.967 2.222,-5.337 C -3.967,0.852 -2.077,0 0,0 m 26.297,18.647 c 1.316,-0.573 2.505,-1.39 3.507,-2.392 2.053,-2.054 3.329,-4.89 3.329,-8.01 V 7.56 c 0,-3.121 -1.276,-5.956 -3.329,-8.01 -1.002,-1.002 -2.191,-1.82 -3.507,-2.393 v -1.679 -7.087 c 0,-3.115 -1.276,-5.948 -3.33,-8.002 l -0.007,-0.007 c -2.055,-2.054 -4.888,-3.33 -8.002,-3.33 h -56.937 c -3.119,0 -5.955,1.276 -8.008,3.33 -2.054,2.054 -3.329,4.889 -3.329,8.009 v 7.087 38.433 0.59 c 0,0.121 0.002,0.242 0.005,0.363 0.005,0.971 0.053,1.769 0.332,2.383 0.508,2.022 1.561,3.833 2.992,5.263 2.053,2.053 4.889,3.33 8.008,3.33 h 23.097 l 29.948,18.627 c 0.884,0.551 2.048,0.279 2.599,-0.606 L 34.734,29.988 c 0.55,-0.884 0.279,-2.049 -0.606,-2.598 L 26.297,22.519 Z M 21.795,-3.779 c 0.242,0 0.483,0.008 0.723,0.023 v -7.853 c 0,-2.079 -0.851,-3.97 -2.22,-5.34 -1.37,-1.369 -3.261,-2.22 -5.34,-2.22 h -56.937 c -2.076,0 -3.965,0.852 -5.336,2.223 -1.371,1.371 -2.222,3.26 -2.222,5.337 v 39.023 6.497 h -0.008 l -10e-4,0.298 v 0.007 c -0.002,0.492 -0.003,0.758 0.517,0.758 h 7.05 56.937 c 2.076,0 3.967,-0.852 5.337,-2.222 1.371,-1.372 2.223,-3.262 2.223,-5.338 v -7.853 c -0.24,0.015 -0.48,0.023 -0.723,0.023 H 0 c -3.119,0 -5.955,-1.275 -8.009,-3.329 -2.054,-2.054 -3.33,-4.89 -3.33,-8.01 V 7.56 c 0,-3.121 1.276,-5.956 3.33,-8.01 2.054,-2.054 4.89,-3.329 8.009,-3.329 z M 11.012,38.753 1.487,54.065 -23.131,38.753 Z m -8.324,16.06 8.769,5.454 19.076,-30.669 -4.236,-2.636 v 0.452 c 0,3.119 -1.276,5.955 -3.33,8.01 -2.054,2.054 -4.89,3.329 -8.009,3.329 H 12.677 Z M -1.243,5.899 c 0.513,-0.512 1.221,-0.83 2.003,-0.83 0.784,0 1.492,0.317 2.003,0.827 l 0.003,0.003 c 0.51,0.511 0.827,1.22 0.827,2.003 0,0.783 -0.318,1.491 -0.83,2.003 -0.513,0.513 -1.221,0.83 -2.003,0.83 -0.782,0 -1.49,-0.316 -2.003,-0.827 L -1.246,9.905 c -0.511,-0.512 -0.827,-1.22 -0.827,-2.003 0,-0.781 0.317,-1.49 0.83,-2.003 M 0.76,3.652 c -1.174,0 -2.238,0.477 -3.006,1.245 -0.769,0.769 -1.244,1.832 -1.244,3.005 0,1.172 0.475,2.235 1.244,3.003 l 0.003,0.003 c 0.768,0.768 1.831,1.244 3.003,1.244 1.174,0 2.236,-0.475 3.005,-1.244 C 4.533,10.14 5.01,9.076 5.01,7.902 5.01,6.732 4.533,5.67 3.765,4.9 L 3.764,4.898 3.762,4.897 C 2.992,4.129 1.93,3.652 0.76,3.652 m -33.692,5.388 -10e-4,6.804 h 5.212 c 0.904,0 1.764,-0.361 2.402,-1 0.637,-0.64 1,-1.498 1,-2.403 0,-0.913 -0.358,-1.75 -0.999,-2.399 -0.635,-0.645 -1.498,-1.002 -2.403,-1.002 z m 0,-8.194 h 7.246 c 0.783,0 1.417,0.634 1.417,1.417 0,0.782 -0.634,1.418 -1.417,1.418 h -7.246 v 2.525 h 5.211 c 1.658,0 3.233,0.66 4.403,1.833 1.169,1.173 1.834,2.745 1.834,4.403 0,1.689 -0.678,3.26 -1.879,4.447 -1.162,1.149 -2.723,1.79 -4.358,1.79 h -6.629 c -0.782,0 -1.417,-0.636 -1.417,-1.418 V 9.04 h -2.343 c -0.783,0 -1.417,-0.635 -1.417,-1.417 0,-0.782 0.634,-1.417 1.417,-1.417 h 2.343 V 3.681 h -2.343 c -0.783,0 -1.417,-0.636 -1.417,-1.418 0,-0.783 0.634,-1.417 1.417,-1.417 h 2.343 v -2.302 c 0,-0.782 0.635,-1.417 1.417,-1.417 0.784,0 1.418,0.635 1.418,1.417 z m 2.657,37.907 5.317,3.307 h -17.021 c -2.076,0 -3.966,-0.851 -5.336,-2.222 -0.332,-0.333 -0.635,-0.695 -0.902,-1.085 h 6.238 z" /></g></g></g></g></svg>