<svg xmlns="http://www.w3.org/2000/svg" xmlns:xlink="http://www.w3.org/1999/xlink" viewBox="0 0 30 13.93"><defs><style>.cls-1{fill:none;}.cls-2{clip-path:url(#clip-path);}.cls-3{fill:#1b1c20;}</style><clipPath id="clip-path" transform="translate(0)"><rect class="cls-1" width="30" height="13.93"/></clipPath></defs><title>Asset 1</title><g id="Layer_2" data-name="Layer 2"><g id="Layer_1-2" data-name="Layer 1"><g class="cls-2"><path class="cls-3" d="M23.5,13.91a3,3,0,0,1-2.07-.8,2.63,2.63,0,0,1-.86-1.94.42.42,0,0,1,.43-.41h0a.42.42,0,0,1,.44.41,1.86,1.86,0,0,0,.6,1.36,2.15,2.15,0,0,0,1.46.56h0A2.12,2.12,0,0,0,25,12.53a1.86,1.86,0,0,0,.6-1.36.43.43,0,0,1,.44-.41h0a.41.41,0,0,1,.43.4,2.58,2.58,0,0,1-.85,1.94,3,3,0,0,1-2.07.81Z" transform="translate(0)"/><path class="cls-3" d="M8.89,13.93a3,3,0,0,1-2.06-.8A2.67,2.67,0,0,1,6,11.19a.44.44,0,0,1,.88,0,1.84,1.84,0,0,0,.6,1.36,2.12,2.12,0,0,0,1.45.56h0a2.13,2.13,0,0,0,1.46-.56,1.86,1.86,0,0,0,.6-1.37.41.41,0,0,1,.43-.4h0a.42.42,0,0,1,.44.4A2.62,2.62,0,0,1,11,13.12a3,3,0,0,1-2.07.81Z" transform="translate(0)"/><path class="cls-3" d="M11.35,11.19a.43.43,0,0,1-.44-.41.42.42,0,0,1,.44-.41h7.42a.41.41,0,1,1,0,.82Z" transform="translate(0)"/><path class="cls-3" d="M2.1,11.2A1.94,1.94,0,0,1,.55,10.14,3.47,3.47,0,0,1,0,8.43a.34.34,0,0,1,0-.1L.77,5.46a.44.44,0,0,1,.53-.29.4.4,0,0,1,.32.49L.87,8.47A2.92,2.92,0,0,0,1.3,9.72c.25.41.56.66.8.66H4.39a.43.43,0,0,1,.44.41.42.42,0,0,1-.44.4l-2.29,0Z" transform="translate(0)"/><path class="cls-3" d="M26,11.17a.43.43,0,0,1-.44-.41.43.43,0,0,1,.44-.41h1.9c.43-.18,1.12-2.43,1.22-3.63l-5.7-2a.57.57,0,0,1-.18-.12L19.84.82H15.68a.42.42,0,0,1-.44-.4A.43.43,0,0,1,15.68,0h4.37a.44.44,0,0,1,.33.14L23.82,4l5.9,2.09a.41.41,0,0,1,.28.38A11.26,11.26,0,0,1,29.5,9c-.45,1.45-.95,2.13-1.59,2.13Z" transform="translate(0)"/><path class="cls-3" d="M1.23,5.79a.45.45,0,0,1-.35-.16A.4.4,0,0,1,1,5.05l5.12-1.6L7.77,1.36A2.91,2.91,0,0,1,10.25,0h5.43V.82H10.25a2,2,0,0,0-1.73.94l0,.06L6.74,4l-.09.08L1.49,5.71a.5.5,0,0,1-.26.08" transform="translate(0)"/></g></g></g></svg>