<svg xmlns="http://www.w3.org/2000/svg" xmlns:xlink="http://www.w3.org/1999/xlink" viewBox="0 0 23.18 23.18"><defs><style>.cls-1{fill:none;}.cls-2{clip-path:url(#clip-path);}.cls-3{fill:#8f969d;}</style><clipPath id="clip-path"><rect class="cls-1" width="23.18" height="23.18"/></clipPath></defs><title>Asset 1</title><g id="Layer_2" data-name="Layer 2"><g id="Layer_1-2" data-name="Layer 1"><g class="cls-2"><path class="cls-3" d="M19,22.55a2,2,0,0,0,2.83,0l.71-.71a2,2,0,0,0,0-2.83L4.16.63a2,2,0,0,0-2.83,0l-.71.71a2,2,0,0,0,0,2.83Z"/><path class="cls-3" d="M22.55,4.16a2,2,0,0,0,0-2.83L21.84.63A2,2,0,0,0,19,.63L.63,19a2,2,0,0,0,0,2.83l.71.71a2,2,0,0,0,2.83,0Z"/></g></g></g></svg>