<svg xmlns="http://www.w3.org/2000/svg" xmlns:xlink="http://www.w3.org/1999/xlink" viewBox="0 0 31.99 30.99"><defs><style>.cls-1,.cls-4{fill:none;}.cls-2{clip-path:url(#clip-path);}.cls-3{fill:#fff;}.cls-4{stroke:#bcc2c7;stroke-width:2.13px;}</style><clipPath id="clip-path" transform="translate(0 0)"><rect class="cls-1" width="31.99" height="30.99"/></clipPath></defs><title>Asset 1</title><g id="Layer_2" data-name="Layer 2"><g id="Layer_1-2" data-name="Layer 1"><g class="cls-2"><path class="cls-3" d="M14.56,1.06s-5,0-5,5V17.43s0,5,5,5H25.93s5,0,5-5V6.06s0-5-5-5Z" transform="translate(0 0)"/><path class="cls-4" d="M14.56,1.06s-5,0-5,5V17.43s0,5,5,5H25.93s5,0,5-5V6.06s0-5-5-5Z" transform="translate(0 0)"/><path class="cls-3" d="M6.06,8.56s-5,0-5,5V24.93s0,5,5,5H17.43s5,0,5-5V13.56s0-5-5-5Z" transform="translate(0 0)"/><path class="cls-4" d="M6.06,8.56s-5,0-5,5V24.93s0,5,5,5H17.43s5,0,5-5V13.56s0-5-5-5Z" transform="translate(0 0)"/></g></g></g></svg>