<svg xmlns="http://www.w3.org/2000/svg" xmlns:xlink="http://www.w3.org/1999/xlink" viewBox="0 0 21.3 20"><defs><style>.cls-1{fill:none;}.cls-2{clip-path:url(#clip-path);}.cls-3{fill:#555;}</style><clipPath id="clip-path" transform="translate(0 0)"><rect class="cls-1" width="21.3" height="20"/></clipPath></defs><title>Asset 1</title><g id="Layer_2" data-name="Layer 2"><g id="Layer_1-2" data-name="Layer 1"><g class="cls-2"><path class="cls-3" d="M19.85,20H1.45A1.44,1.44,0,0,1,0,18.58V14a.67.67,0,0,1,1.34,0v4.6a.1.1,0,0,0,.11.08H19.85a.1.1,0,0,0,.1-.08V14a.67.67,0,0,1,1.34,0v4.6A1.44,1.44,0,0,1,19.85,20" transform="translate(0 0)"/><path class="cls-3" d="M10.65,13.66A.67.67,0,0,1,10,13V.67a.67.67,0,1,1,1.34,0V13a.67.67,0,0,1-.67.67" transform="translate(0 0)"/><path class="cls-3" d="M10.65,15a.67.67,0,0,1-.47-.2L4.44,9.05a.67.67,0,0,1,.95-.95l5.26,5.26L15.92,8.1a.67.67,0,1,1,.95.95l-5.74,5.74a.67.67,0,0,1-.47.2" transform="translate(0 0)"/></g></g></g></svg>