<svg xmlns="http://www.w3.org/2000/svg" xmlns:xlink="http://www.w3.org/1999/xlink" viewBox="0 0 24.44 20"><defs><style>.cls-1,.cls-3{fill:none;}.cls-2{clip-path:url(#clip-path);}.cls-3{stroke:#4f4f4f;stroke-miterlimit:10;stroke-width:0.85px;}</style><clipPath id="clip-path" transform="translate(0 0)"><rect class="cls-1" width="24.44" height="20"/></clipPath></defs><title>Asset 1</title><g id="Layer_2" data-name="Layer 2"><g id="Layer_1-2" data-name="Layer 1"><g class="cls-2"><path class="cls-3" d="M6.61,10H19.52M24,19V16.76a.56.56,0,0,0-.56-.56H17.84a.56.56,0,0,0-.56.56V19a.56.56,0,0,0,.56.56h5.62A.56.56,0,0,0,24,19ZM20.65,16.2V3.81M24,1V3.24a.57.57,0,0,1-.56.57H17.84a.57.57,0,0,1-.56-.57V1a.56.56,0,0,1,.56-.56h5.62A.56.56,0,0,1,24,1ZM7.17,19V16.76a.56.56,0,0,0-.56-.56H1a.56.56,0,0,0-.56.56V19a.56.56,0,0,0,.56.56H6.61A.56.56,0,0,0,7.17,19ZM3.8,16.2V12.82M7.17,1V3.24a.57.57,0,0,1-.56.57H1a.57.57,0,0,1-.56-.57V1A.56.56,0,0,1,1,.43H6.61A.56.56,0,0,1,7.17,1ZM3.8,3.81V7.18m0,0A2.82,2.82,0,1,1,1,10,2.82,2.82,0,0,1,3.8,7.18Z" transform="translate(0 0)"/></g></g></g></svg>