<svg xmlns="http://www.w3.org/2000/svg" viewBox="0 0 12.27 15"><defs><style>.cls-1{fill:none;stroke:#4f4f4f;stroke-miterlimit:10;stroke-width:0.68px;}</style></defs><title>Asset 1</title><g id="Layer_2" data-name="Layer 2"><g id="Режим_изоляции" data-name="Режим изоляции"><path class="cls-1" d="M6.14,4.09v7.84M.68,14.66H2.05a.34.34,0,0,0,.34-.34V10.91a.34.34,0,0,0-.34-.34H.68a.34.34,0,0,0-.34.34v3.41A.34.34,0,0,0,.68,14.66Zm1.71-2.05h7.5m1.7,2.05H10.23a.34.34,0,0,1-.34-.34V10.91a.34.34,0,0,1,.34-.34h1.36a.34.34,0,0,1,.34.34v3.41A.34.34,0,0,1,11.59,14.66ZM.68,4.43H2.05a.34.34,0,0,0,.34-.34V.68A.34.34,0,0,0,2.05.34H.68A.34.34,0,0,0,.34.68V4.09A.34.34,0,0,0,.68,4.43Zm1.71-2h2m7.16,2H10.23a.34.34,0,0,1-.34-.34V.68a.34.34,0,0,1,.34-.34h1.36a.34.34,0,0,1,.34.34V4.09A.34.34,0,0,1,11.59,4.43Zm-1.7-2H7.84m0,0A1.71,1.71,0,1,1,6.14.68,1.7,1.7,0,0,1,7.84,2.39Z"/></g></g></svg>