<svg xmlns="http://www.w3.org/2000/svg" xmlns:xlink="http://www.w3.org/1999/xlink" viewBox="0 0 25 25"><defs><style>.cls-1{fill:none;}.cls-2{clip-path:url(#clip-path);}.cls-3{fill:#1b1c20;}</style><clipPath id="clip-path" transform="translate(0 0)"><rect class="cls-1" width="25" height="25"/></clipPath></defs><title>Asset 1</title><g id="Layer_2" data-name="Layer 2"><g id="Layer_1-2" data-name="Layer 1"><g class="cls-2"><path class="cls-3" d="M21.88,0H3.13A3.14,3.14,0,0,0,0,3.13V21.88A3.13,3.13,0,0,0,3.12,25h9.49V16h-3V12.13h3v-2A5.17,5.17,0,0,1,17.68,4.8h2.76V9.21H18c-.65,0-.84.37-.84.88v2h3.31V16H17.13v9h4.75A3.12,3.12,0,0,0,25,21.88V3.13A3.13,3.13,0,0,0,21.88,0" transform="translate(0 0)"/></g></g></g></svg>