<svg xmlns="http://www.w3.org/2000/svg" xmlns:xlink="http://www.w3.org/1999/xlink" viewBox="0 0 60 60"><defs><style>.cls-1{fill:none;}.cls-2{clip-path:url(#clip-path);}.cls-3{fill:#8d939b;}</style><clipPath id="clip-path"><rect class="cls-1" width="60" height="60"/></clipPath></defs><title>Asset 1</title><g id="Layer_2" data-name="Layer 2"><g id="Layer_1-2" data-name="Layer 1"><g class="cls-2"><path class="cls-3" d="M30,6.61a5.85,5.85,0,0,1,5.57,4.07H52.94a30,30,0,0,0-45.89,0H24.43A5.85,5.85,0,0,1,30,6.61"/><path class="cls-3" d="M37.35,49.32a5.85,5.85,0,0,1-11.14,0H7.06a30,30,0,0,0,45.88,0Z"/><path class="cls-3" d="M55.55,31.78H19.72a5.85,5.85,0,0,1-11.14,0H4.45a1.78,1.78,0,1,1,0-3.56H8.58a5.85,5.85,0,0,1,11.14,0H55.55a1.78,1.78,0,0,1,0,3.56m0-17.54h-20a5.85,5.85,0,0,1-11.14,0h-20a30,30,0,0,0,0,31.52H26.21a5.85,5.85,0,0,1,11.14,0H55.53a30,30,0,0,0,0-31.52"/></g></g></g></svg>