<svg xmlns="http://www.w3.org/2000/svg" xmlns:xlink="http://www.w3.org/1999/xlink" viewBox="0 0 25 25"><defs><style>.cls-1{fill:none;}.cls-2{clip-path:url(#clip-path);}.cls-3{fill:#1b1c20;}</style><clipPath id="clip-path"><rect class="cls-1" width="25" height="25"/></clipPath></defs><title>Asset 1</title><g id="Layer_2" data-name="Layer 2"><g id="Layer_1-2" data-name="Layer 1"><g class="cls-2"><path class="cls-3" d="M17.15,12.5h0a4.65,4.65,0,1,0-4.65,4.65,4.65,4.65,0,0,0,4.65-4.65M23,4.83h0a.69.69,0,0,1-.69.69H20.22a.69.69,0,0,1-.7-.69V2.73a.7.7,0,0,1,.7-.7h2.09a.7.7,0,0,1,.69.7ZM21.09,0H3.91A3.91,3.91,0,0,0,0,3.91V8.14H6.33a7.55,7.55,0,0,1,12.34,0H25V3.91A3.91,3.91,0,0,0,21.09,0m-1,12.5a7.56,7.56,0,0,1-15.12,0,6.93,6.93,0,0,1,.15-1.45H0v10A3.91,3.91,0,0,0,3.91,25H21.09A3.91,3.91,0,0,0,25,21.09v-10H19.92a7.67,7.67,0,0,1,.14,1.45"/></g></g></g></svg>