<svg xmlns="http://www.w3.org/2000/svg" xmlns:xlink="http://www.w3.org/1999/xlink" viewBox="0 0 74.31 88.94"><defs><style>.cls-1{fill:none;}.cls-2{clip-path:url(#clip-path);}.cls-3{fill:#424a54;}</style><clipPath id="clip-path" transform="translate(0)"><rect class="cls-1" width="74.31" height="88.94"/></clipPath></defs><title>Asset 1</title><g id="Layer_2" data-name="Layer 2"><g id="Layer_1-2" data-name="Layer 1"><g class="cls-2"><path class="cls-3" d="M37.15,20.43A16.72,16.72,0,1,0,53.87,37.15,16.74,16.74,0,0,0,37.15,20.43m0,37.15A20.43,20.43,0,1,1,57.59,37.15,20.46,20.46,0,0,1,37.15,57.59" transform="translate(0)"/><path class="cls-3" d="M37.15,3.72A33.48,33.48,0,0,0,3.72,37.15,33.11,33.11,0,0,0,14.28,61.54L37.15,83.76,60,61.56A33.14,33.14,0,0,0,70.59,37.15,33.48,33.48,0,0,0,37.15,3.72m0,85.22L11.71,64.23a37.15,37.15,0,1,1,50.86,0Z" transform="translate(0)"/></g></g></g></svg>