<?xml version="1.0" encoding="UTF-8" standalone="no"?>
<svg
   xmlns:dc="http://purl.org/dc/elements/1.1/"
   xmlns:cc="http://creativecommons.org/ns#"
   xmlns:rdf="http://www.w3.org/1999/02/22-rdf-syntax-ns#"
   xmlns:svg="http://www.w3.org/2000/svg"
   xmlns="http://www.w3.org/2000/svg"
   viewBox="0 0 28.399733 36.666668"
   height="36.666668"
   width="28.399733"
   xml:space="preserve"
   id="svg2"
   version="1.1"><metadata
     id="metadata8"><rdf:RDF><cc:Work
         rdf:about=""><dc:format>image/svg+xml</dc:format><dc:type
           rdf:resource="http://purl.org/dc/dcmitype/StillImage" /><dc:title></dc:title></cc:Work></rdf:RDF></metadata><defs
     id="defs6"><clipPath
       id="clipPath28"
       clipPathUnits="userSpaceOnUse"><path
         id="path26"
         d="M 0,0 H 21.299 V 27.5 H 0 Z" /></clipPath></defs><g
     transform="matrix(1.3333333,0,0,-1.3333333,0,36.666667)"
     id="g10"><path
       id="path12"
       style="fill:#ea193c;fill-opacity:1;fill-rule:nonzero;stroke:none"
       d="m 1.331,15.037 h 14.112 v 7.502 H 1.331 Z" /><g
       transform="translate(0,27.5004)"
       id="g14"><path
         id="path16"
         style="fill:#828c96;fill-opacity:1;fill-rule:nonzero;stroke:none"
         d="m 0,0 v -25.238 h 10.417 l -0.999,1.33 H 1.33 v 11.979 7.502 3.145 h 13.314 v -3.145 h 1.331 v 1.958 l 3.144,-2.805 h -3.144 v -1.331 h 3.993 v -17.303 h -2.762 l -1,-1.33 h 5.093 V -5.274 L 15.498,0 Z" /></g><g
       transform="translate(10.5165,11.1798)"
       id="g18"><path
         id="path20"
         style="fill:#ea193c;fill-opacity:1;fill-rule:nonzero;stroke:none"
         d="m 0,0 v -5.59 h -1.398 l 4.195,-5.59 4.192,5.59 H 5.591 V 0 Z" /></g><g
       id="g22"><g
         clip-path="url(#clipPath28)"
         id="g24"><g
           transform="translate(5.668,20.9531)"
           id="g30"><path
             id="path32"
             style="fill:#ffffff;fill-opacity:1;fill-rule:nonzero;stroke:none"
             d="m 0,0 c -0.297,0.259 -0.743,0.388 -1.335,0.388 h -1.624 v -4.691 h 1.267 v 1.556 h 0.357 c 0.569,0 1.008,0.143 1.317,0.429 0.309,0.285 0.464,0.69 0.464,1.214 C 0.446,-0.627 0.297,-0.259 0,0 m -1.692,-0.635 h 0.328 c 0.35,0 0.527,-0.158 0.527,-0.475 0,-0.188 -0.057,-0.336 -0.169,-0.443 -0.112,-0.107 -0.264,-0.16 -0.454,-0.16 H -1.692 Z M 4.365,-0.19 C 3.955,0.196 3.374,0.388 2.621,0.388 H 0.997 v -4.691 h 1.518 c 0.781,0 1.386,0.212 1.819,0.636 0.431,0.423 0.645,1.026 0.645,1.809 0,0.727 -0.205,1.284 -0.614,1.668 M 3.394,-2.928 C 3.214,-3.152 2.932,-3.263 2.547,-3.263 H 2.265 v 2.628 h 0.368 c 0.346,0 0.605,-0.104 0.776,-0.311 0.17,-0.208 0.255,-0.527 0.255,-0.957 0,-0.46 -0.09,-0.802 -0.27,-1.025 m 3.478,0.387 h 1.405 v 1.017 H 6.872 v 0.895 H 8.396 V 0.388 H 5.623 v -4.691 h 1.249 z" /></g></g></g></g></svg>