<svg xmlns="http://www.w3.org/2000/svg" viewBox="0 0 298.22 310.73"><defs><style>.cls-1{fill-rule:evenodd;}</style></defs><title>phone-Asset 1</title><g id="Layer_2" data-name="Layer 2"><g id="Слой_1" data-name="Слой 1"><path class="cls-1" d="M32.38,11c4.38-2.53,8.67-5.35,13.27-7.46A39.6,39.6,0,0,1,93.88,16c3.91,5.28,5.91,11.25,7.55,17.56,2.16,8.29,8.5,32.34,9.25,35.66a39.62,39.62,0,0,1-18.84,43c-3.1,1.8-6.28,3.45-9.66,4-3.76.62-22.82,9.27-16.49,32.05a275.6,275.6,0,0,0,14.76,29.53,273.27,273.27,0,0,0,17.38,26.47l.45.44c16.56,16.88,33.59,4.69,36,1.74,2.15-2.64,5.18-4.58,8.28-6.37a39.61,39.61,0,0,1,46.65,5.19c2.5,2.31,20.16,19.83,26.26,25.84,4.65,4.57,8.81,9.29,11.43,15.32a39.59,39.59,0,0,1-13.37,48c-4.12,2.93-8.71,5.24-13.08,7.76a64,64,0,0,1-65.72-1,269.94,269.94,0,0,1-98.35-98.79A270,270,0,0,1,0,65C.16,43.34,13.86,21.73,32.38,11ZM278,115.77A20.24,20.24,0,1,1,257.75,136,20.24,20.24,0,0,1,278,115.77Zm-62.81,0A20.24,20.24,0,1,1,194.93,136a20.24,20.24,0,0,1,20.24-20.23Zm-62.82,0A20.24,20.24,0,1,1,132.11,136a20.23,20.23,0,0,1,20.24-20.23Z"/></g></g></svg>