<svg xmlns="http://www.w3.org/2000/svg" xmlns:xlink="http://www.w3.org/1999/xlink" viewBox="0 0 36.27 45"><defs><style>.cls-1,.cls-3{fill:none;}.cls-2{clip-path:url(#clip-path);}.cls-3{stroke:#828c96;stroke-miterlimit:10;stroke-width:2px;}.cls-4{font-size:12px;fill:#828c96;font-family:OpenSans-Bold, OpenSans Bold;font-weight:700;}</style><clipPath id="clip-path" transform="translate(0 0)"><rect class="cls-1" width="36.27" height="45"/></clipPath></defs><title>03Asset 1</title><g id="Layer_2" data-name="Layer 2"><g id="Слой_1" data-name="Слой 1"><g class="cls-2"><path class="cls-3" d="M26.52,10.13H15.93a1,1,0,0,1-1-1V7.22a1,1,0,0,1,1-1H29.61A1,1,0,0,1,30.22,8L28.33,9.49A2.92,2.92,0,0,1,26.52,10.13Zm-22.2,0L1.41,7.22,7.22,1.41l2.9,2.91M32.37,2.38H14.23a3,3,0,0,0-2.06.85L2.26,13.15a2.91,2.91,0,0,0-.85,2V41.1A2.9,2.9,0,0,0,4.32,44H32.37a2.9,2.9,0,0,0,2.9-2.9V5.29A2.9,2.9,0,0,0,32.37,2.38Z" transform="translate(0 0)"/></g><text class="cls-4" transform="translate(10.43 33.1)">ДТ</text></g></g></svg>