<svg xmlns="http://www.w3.org/2000/svg" xmlns:xlink="http://www.w3.org/1999/xlink" viewBox="0 0 67.4 27.67"><defs><style>.cls-1{fill:none;}.cls-2{clip-path:url(#clip-path);}.cls-3{fill:#828c96;}</style><clipPath id="clip-path" transform="translate(0 0)"><rect class="cls-1" width="67.4" height="27.67"/></clipPath></defs><title>06Asset 1</title><g id="Layer_2" data-name="Layer 2"><g id="Layer_1-2" data-name="Layer 1"><g class="cls-2"><path class="cls-3" d="M63,20.2l-3.4,0-2.29,0A6.61,6.61,0,0,0,44.19,20H21.27a6.61,6.61,0,0,0-13.09.18H4.44a2.28,2.28,0,0,1-2.28-2.28V14.6a2.49,2.49,0,0,1,2.2-2.28L8,11.67l2.31-.43c3.26-.6,7-1.29,9-1.73,2.47-.55,3.66-1.57,5.45-3.12.82-.71,1.85-1.59,3.24-2.64,1.15-.87,4.27-1.43,8.53-1.53l7.85,0c1,0,2.11,0,3.27,0,3.87,0,8.26-.05,10.15.21a6.53,6.53,0,0,1,2.51,1.18c1.5,1.05,5,3.82,5,6.88v7.47A2.27,2.27,0,0,1,63,20.2M50.72,25.5a4.45,4.45,0,1,1,4.45-4.45,4.45,4.45,0,0,1-4.45,4.45m-36,0a4.45,4.45,0,1,1,4.45-4.45,4.45,4.45,0,0,1-4.45,4.45m52.65-15c0-3.94-3.72-7.11-5.94-8.66A8.73,8.73,0,0,0,58,.24,102.22,102.22,0,0,0,47.55,0H44.29l-7.88,0c-4.94.12-8.23.78-9.8,2S24.1,4,23.26,4.75C21.55,6.23,20.69,7,18.75,7.39S13.12,8.51,9.87,9.12l-2.29.42c-.13,0-3.11.55-3.64.66A4.57,4.57,0,0,0,0,14.6v3.32a4.44,4.44,0,0,0,4.44,4.44H8.26a6.61,6.61,0,0,0,13-.17h23a6.61,6.61,0,0,0,13,.16h2.36l3.39,0a4.44,4.44,0,0,0,4.44-4.44Z" transform="translate(0 0)"/></g></g></g></svg>