<svg xmlns="http://www.w3.org/2000/svg" xmlns:xlink="http://www.w3.org/1999/xlink" viewBox="0 0 36.82 45"><defs><style>.cls-1,.cls-3{fill:none;}.cls-2{clip-path:url(#clip-path);}.cls-3{stroke:#828c96;stroke-miterlimit:10;stroke-width:2px;}</style><clipPath id="clip-path" transform="translate(0)"><rect class="cls-1" width="36.82" height="45"/></clipPath></defs><title>05Asset 1</title><g id="Layer_2" data-name="Layer 2"><g id="Layer_1-2" data-name="Layer 1"><g class="cls-2"><path class="cls-3" d="M18.41,12.26V35.81M2,44h4.1a1,1,0,0,0,1-1V32.74a1,1,0,0,0-1-1H2a1,1,0,0,0-1,1V43A1,1,0,0,0,2,44Zm5.12-6.14H29.67M34.79,44H30.7a1,1,0,0,1-1-1V32.74a1,1,0,0,1,1-1h4.09a1,1,0,0,1,1,1V43A1,1,0,0,1,34.79,44ZM2,13.29h4.1a1,1,0,0,0,1-1V2a1,1,0,0,0-1-1H2A1,1,0,0,0,1,2V12.26A1,1,0,0,0,2,13.29ZM7.14,7.14h6.15m21.5,6.15H30.7a1,1,0,0,1-1-1V2a1,1,0,0,1,1-1h4.09a1,1,0,0,1,1,1V12.26A1,1,0,0,1,34.79,13.29ZM29.67,7.14H23.53m0,0A5.12,5.12,0,1,1,18.41,2,5.12,5.12,0,0,1,23.53,7.14Z" transform="translate(0)"/></g></g></g></svg>