<svg xmlns="http://www.w3.org/2000/svg" xmlns:xlink="http://www.w3.org/1999/xlink" viewBox="0 0 45 45"><defs><style>.cls-1,.cls-3{fill:none;}.cls-2{clip-path:url(#clip-path);}.cls-3{stroke:#828c96;stroke-miterlimit:10;stroke-width:2px;}</style><clipPath id="clip-path" transform="translate(0 0)"><rect class="cls-1" width="45" height="45"/></clipPath></defs><title>01Asset 1</title><g id="Layer_2" data-name="Layer 2"><g id="Layer_1-2" data-name="Layer 1"><g class="cls-2"><path class="cls-3" d="M27.76,42.09,25.84,44H8.64V29.67M11.51,2.91V1H23.93l6.69,7.64h5.74l3.82,4.78H44V23.93l-5.73,5.74M20.4,9.71,36.46,32.18M5.15,23.7l23.6,17m9.52-4.3a5.74,5.74,0,1,1-5.74-5.74A5.74,5.74,0,0,1,38.27,36.36Zm-22.94-21a3.82,3.82,0,1,1-3.82-3.82A3.83,3.83,0,0,1,15.33,15.33Zm6.69,0A10.51,10.51,0,1,1,11.51,4.82,10.5,10.5,0,0,1,22,15.33Z" transform="translate(0 0)"/></g></g></g></svg>