<svg xmlns="http://www.w3.org/2000/svg" xmlns:xlink="http://www.w3.org/1999/xlink" viewBox="0 0 60.87 44.47"><defs><style>.cls-1,.cls-3{fill:none;}.cls-2{clip-path:url(#clip-path);}.cls-3{stroke:#828c96;stroke-miterlimit:10;stroke-width:2px;}</style><clipPath id="clip-path"><rect class="cls-1" width="60.86" height="45"/></clipPath></defs><title>02Asset 1</title><g id="Layer_2" data-name="Layer 2"><g id="Layer_1-2" data-name="Layer 1"><g class="cls-2"><path class="cls-3" d="M44.58,26.51l-6.37,6.38v3.72a9.11,9.11,0,0,1,2.47,7.76M26.75,29.5a28,28,0,0,1-15.29,4.66H3.82M53.5,14.93,56,17.48m-56,9H10c11.15,0,13.94-5.3,18-9S34.6,9.9,42,9.9m2.55,6.36A6.89,6.89,0,0,0,42,21.33a7.72,7.72,0,0,0,3.82,6.37L51,30.24v3.82l6.37,2.55,2.55-2.55v-23A9.08,9.08,0,0,0,56,4.78L58.59,1H45A25.68,25.68,0,0,0,25.47,9.57c-6.36,5.62-8.62,8-16.55,8H5.1"/></g></g></g></svg>