<svg xmlns="http://www.w3.org/2000/svg" viewBox="0 0 47.41 37.56"><defs><style>.cls-1{fill:#828c96;}.cls-2{fill:#828c96;}</style></defs><title>Asset 1</title><g id="Layer_2" data-name="Layer 2"><g id="Режим_изоляции" data-name="Режим изоляции"><polygon class="cls-1" points="37.11 37.31 35.69 35.9 44.59 27 35.69 18.11 37.11 16.69 47.41 27 37.11 37.31"/><rect class="cls-1" x="24" y="26" width="22" height="2"/><polygon class="cls-2" points="22 15.45 0.47 1.85 1.53 0.15 22 13.09 42.47 0.15 43.53 1.85 22 15.45"/><polygon class="cls-2" points="21 33 0 33 0 0 44 0 44 16 42 16 42 2 2 2 2 31 21 31 21 33"/><path class="cls-1" d="M45.15,27.2a1.08,1.08,0,0,1-1.09,1.08H24.15a1.08,1.08,0,0,1,0-2.17H44.07a1.08,1.08,0,0,1,1.09,1.08"/><path class="cls-1" d="M47.3,27.2A1.09,1.09,0,0,1,47,28l-9.28,9.28a1.09,1.09,0,0,1-1.53-1.54l8.51-8.51-8.51-8.51a1.08,1.08,0,1,1,1.53-1.53L47,26.43a1.08,1.08,0,0,1,.32.77"/></g></g></svg>