<svg xmlns="http://www.w3.org/2000/svg" xmlns:xlink="http://www.w3.org/1999/xlink" viewBox="0 0 48 40"><defs><style>.cls-1{fill:none;}.cls-2{fill:#eb193c;}.cls-3{clip-path:url(#clip-path);}.cls-4{fill:#424a54;}</style><clipPath id="clip-path"><rect class="cls-1" width="48" height="40"/></clipPath></defs><title>Asset 1</title><g id="Layer_2" data-name="Layer 2"><g id="Layer_1-2" data-name="Layer 1"><rect class="cls-2" x="28.57" y="13.14" width="10.57" height="2" transform="translate(-0.08 28.08) rotate(-45)"/><g class="cls-3"><path class="cls-2" d="M28,18a2,2,0,1,0,2,2,2,2,0,0,0-2-2m0,6a4,4,0,1,1,4-4,4,4,0,0,1-4,4"/><path class="cls-4" d="M28,40A20.05,20.05,0,0,1,10.59,29.85l1.74-1a18,18,0,1,0,0-17.76l-1.74-1A20,20,0,1,1,28,40"/></g><rect class="cls-2" x="4" y="25" width="13" height="2"/><rect class="cls-2" y="19" width="13" height="2"/><rect class="cls-2" x="4" y="13" width="13" height="2"/></g></g></svg>