<svg xmlns="http://www.w3.org/2000/svg" xmlns:xlink="http://www.w3.org/1999/xlink" viewBox="0 0 25 25"><defs><style>.cls-1{fill:none;}.cls-2{clip-path:url(#clip-path);}.cls-3{fill:#1b1c20;}</style><clipPath id="clip-path"><rect class="cls-1" width="25" height="25"/></clipPath></defs><title>Asset 2</title><g id="Layer_2" data-name="Layer 2"><g id="Layer_1-2" data-name="Layer 1"><g class="cls-2"><path class="cls-3" d="M19.63,13.32c0,.46.49.82.84,1.15a15.43,15.43,0,0,1,1.94,2c.24.3.74,1,.7,1.34-.16,1.22-3,.46-4,.75H19A4.32,4.32,0,0,1,16.6,17c-.36-.4-.9-1.3-1.54-1.19-.92.15-.46,1.71-.85,2.38s-1.62.45-2.53.35A7.69,7.69,0,0,1,6.06,15,30.48,30.48,0,0,1,2.64,9.4a5.1,5.1,0,0,1-.75-2.19c.46-.38,1.22-.25,2-.25A6.13,6.13,0,0,1,6,7.06c.29.15.57.91.8,1.39a17.61,17.61,0,0,0,1.64,2.84c.27.39.7,1.14,1.19,1s.53-1.28.55-2a6.1,6.1,0,0,0-.25-2.38c-.23-.43-.66-.44-1.09-.7.36-.72,1.34-.79,2.53-.79,1,0,2.39-.11,2.78.54s.13,1.88.1,2.79-.2,2.06.5,2.53c.54-.06.83-.58,1.14-1a13.38,13.38,0,0,0,1.64-2.84C17.76,8,18,7.16,18.39,7a8.7,8.7,0,0,1,2.43,0c.72,0,2-.2,2.24.3S22.68,8.72,22.51,9a28.1,28.1,0,0,1-2,2.73c-.28.38-.88,1-.84,1.59M25,21.67V3.33A3.26,3.26,0,0,0,21.67,0H3.33A3.26,3.26,0,0,0,0,3.33V21.67A3.26,3.26,0,0,0,3.33,25H21.67A3.26,3.26,0,0,0,25,21.67"/></g></g></g></svg>