<?xml version="1.0" encoding="UTF-8" standalone="no"?>
<svg
   xmlns:dc="http://purl.org/dc/elements/1.1/"
   xmlns:cc="http://creativecommons.org/ns#"
   xmlns:rdf="http://www.w3.org/1999/02/22-rdf-syntax-ns#"
   xmlns:svg="http://www.w3.org/2000/svg"
   xmlns="http://www.w3.org/2000/svg"
   viewBox="0 0 41.475201 22.1856"
   height="22.1856"
   width="41.475201"
   xml:space="preserve"
   id="svg2"
   version="1.1"><metadata
     id="metadata8"><rdf:RDF><cc:Work
         rdf:about=""><dc:format>image/svg+xml</dc:format><dc:type
           rdf:resource="http://purl.org/dc/dcmitype/StillImage" /><dc:title></dc:title></cc:Work></rdf:RDF></metadata><defs
     id="defs6"><clipPath
       id="clipPath22"
       clipPathUnits="userSpaceOnUse"><path
         id="path20"
         d="M 0,16.639 H 31.106 V 0 H 0 Z" /></clipPath></defs><g
     transform="matrix(1.3333333,0,0,-1.3333333,0,22.1856)"
     id="g10"><g
       transform="translate(7.3369,11.2803)"
       id="g12"><path
         id="path14"
         style="fill:none;stroke:#828c96;stroke-width:0.80000001;stroke-linecap:butt;stroke-linejoin:miter;stroke-miterlimit:10;stroke-dasharray:none;stroke-opacity:1"
         d="M 0,0 V -3.017 L -4.545,-3.489" /></g><g
       id="g16"><g
         clip-path="url(#clipPath22)"
         id="g18"><g
           transform="translate(4.1934,2.4004)"
           id="g24"><path
             id="path26"
             style="fill:none;stroke:#828c96;stroke-width:0.80000001;stroke-linecap:butt;stroke-linejoin:miter;stroke-miterlimit:10;stroke-dasharray:none;stroke-opacity:1"
             d="m 0,0 h -3.201 l -0.528,1.896 0.528,0.343 v 3.856 l 1.464,3.609 c 0.243,0.601 0.826,0.993 1.474,0.993 h 4.407 c 1.163,2.849 2.98,3.086 2.98,3.086 V 10.697 3.234 H 23.271 V 0 H 21" /></g><g
           transform="translate(8.1934,2.4004)"
           id="g28"><path
             id="path30"
             style="fill:none;stroke:#828c96;stroke-width:0.80000001;stroke-linecap:butt;stroke-linejoin:miter;stroke-miterlimit:10;stroke-dasharray:none;stroke-opacity:1"
             d="M 0,0 H 13" /></g><g
           transform="translate(8.1934,2.4004)"
           id="g32"><path
             id="path34"
             style="fill:none;stroke:#828c96;stroke-width:0.80000001;stroke-linecap:butt;stroke-linejoin:miter;stroke-miterlimit:10;stroke-dasharray:none;stroke-opacity:1"
             d="m 0,0 c 0,-1.104 -0.896,-2 -2,-2 -1.104,0 -2,0.896 -2,2 0,1.104 0.896,2 2,2 1.104,0 2,-0.896 2,-2 z" /></g><g
           transform="translate(25.1934,2.4004)"
           id="g36"><path
             id="path38"
             style="fill:none;stroke:#828c96;stroke-width:0.80000001;stroke-linecap:butt;stroke-linejoin:miter;stroke-miterlimit:10;stroke-dasharray:none;stroke-opacity:1"
             d="m 0,0 c 0,-1.104 -0.896,-2 -2,-2 -1.104,0 -2,0.896 -2,2 0,1.104 0.896,2 2,2 1.104,0 2,-0.896 2,-2 z" /></g><g
           transform="translate(18.3203,8.4165)"
           id="g40"><path
             id="path42"
             style="fill:none;stroke:#828c96;stroke-width:0.80000001;stroke-linecap:butt;stroke-linejoin:miter;stroke-miterlimit:10;stroke-dasharray:none;stroke-opacity:1"
             d="M 0,0 H 6.86" /></g><g
           transform="translate(28.2275,8.4165)"
           id="g44"><path
             id="path46"
             style="fill:none;stroke:#828c96;stroke-width:0.80000001;stroke-linecap:butt;stroke-linejoin:miter;stroke-miterlimit:10;stroke-dasharray:none;stroke-opacity:1"
             d="M 0,0 H 2.288 L 1.526,1.905 1.906,3.049 1.145,3.43 0.764,4.191 -0.762,3.811 -1.523,4.954 -2.667,4.573 C -3.7,5.805 -5.382,6.479 -6.097,6.479 h -3.429 c -1.477,0 -3.157,-1.525 -3.811,-1.906 h -1.146 c -0.21,0 -0.378,-0.17 -0.378,-0.382 V 2.668 L -15.243,1.524 V 0.762 C -15.243,0.341 -14.901,0 -14.48,0 h 1.524" /></g><g
           transform="translate(24.7988,12.2271)"
           id="g48"><path
             id="path50"
             style="fill:none;stroke:#828c96;stroke-width:0.80000001;stroke-linecap:butt;stroke-linejoin:miter;stroke-miterlimit:10;stroke-dasharray:none;stroke-opacity:1"
             d="M 0,0 -0.763,-0.381 H -4.192 L -4.954,1.906" /></g><g
           transform="translate(20.6064,11.8462)"
           id="g52"><path
             id="path54"
             style="fill:none;stroke:#828c96;stroke-width:0.80000001;stroke-linecap:butt;stroke-linejoin:miter;stroke-miterlimit:10;stroke-dasharray:none;stroke-opacity:1"
             d="M 0,0 -4.192,0.381 -4.573,0.762" /></g><g
           transform="translate(25.1768,8.415)"
           id="g56"><path
             id="path58"
             style="fill:none;stroke:#828c96;stroke-width:0.80000001;stroke-linecap:butt;stroke-linejoin:miter;stroke-miterlimit:10;stroke-dasharray:none;stroke-opacity:1"
             d="m 0,0 c 0,-0.84 0.684,-1.523 1.526,-1.523 0.843,0 1.525,0.683 1.525,1.523 0,0.842 -0.682,1.523 -1.525,1.523 C 0.684,1.523 0,0.842 0,0 Z" /></g><g
           transform="translate(15.2715,8.415)"
           id="g60"><path
             id="path62"
             style="fill:none;stroke:#828c96;stroke-width:0.80000001;stroke-linecap:butt;stroke-linejoin:miter;stroke-miterlimit:10;stroke-dasharray:none;stroke-opacity:1"
             d="m 0,0 c 0,-0.84 0.683,-1.523 1.525,-1.523 0.842,0 1.526,0.683 1.526,1.523 0,0.842 -0.684,1.523 -1.526,1.523 C 0.683,1.523 0,0.842 0,0 Z" /></g><g
           transform="translate(27.4658,12.2271)"
           id="g64"><path
             id="path66"
             style="fill:none;stroke:#828c96;stroke-width:0.80000001;stroke-linecap:butt;stroke-linejoin:miter;stroke-miterlimit:10;stroke-dasharray:none;stroke-opacity:1"
             d="M 0,0 -0.38,-0.762" /></g><g
           transform="translate(28.6094,10.7031)"
           id="g68"><path
             id="path70"
             style="fill:none;stroke:#828c96;stroke-width:0.80000001;stroke-linecap:butt;stroke-linejoin:miter;stroke-miterlimit:10;stroke-dasharray:none;stroke-opacity:1"
             d="M 0,0 1.145,-0.382" /></g></g></g></g></svg>