<?xml version="1.0" encoding="UTF-8" standalone="no"?>
<svg
   xmlns:dc="http://purl.org/dc/elements/1.1/"
   xmlns:cc="http://creativecommons.org/ns#"
   xmlns:rdf="http://www.w3.org/1999/02/22-rdf-syntax-ns#"
   xmlns:svg="http://www.w3.org/2000/svg"
   xmlns="http://www.w3.org/2000/svg"
   viewBox="0 0 59.330666 58.820267"
   height="58.820267"
   width="59.330666"
   xml:space="preserve"
   id="svg2"
   version="1.1"><metadata
     id="metadata8"><rdf:RDF><cc:Work
         rdf:about=""><dc:format>image/svg+xml</dc:format><dc:type
           rdf:resource="http://purl.org/dc/dcmitype/StillImage" /><dc:title></dc:title></cc:Work></rdf:RDF></metadata><defs
     id="defs6"><clipPath
       id="clipPath18"
       clipPathUnits="userSpaceOnUse"><path
         id="path16"
         d="M 0,44.115 H 44.498 V 0 H 0 Z" /></clipPath></defs><g
     transform="matrix(1.3333333,0,0,-1.3333333,0,58.820267)"
     id="g10"><g
       id="g12"><g
         clip-path="url(#clipPath18)"
         id="g14"><g
           transform="translate(29.6475,9.3613)"
           id="g20"><path
             id="path22"
             style="fill:none;stroke:#828c96;stroke-width:2;stroke-linecap:butt;stroke-linejoin:miter;stroke-miterlimit:10;stroke-dasharray:none;stroke-opacity:1"
             d="m 0,0 c -2.277,2.024 -6.179,3.506 -9.201,3.473 -0.905,-0.676 -2.694,-2.588 -3.335,-3.51 -1.709,0.586 -3.57,2.45 -5.219,4.454 -1.648,2.005 -3.118,4.191 -3.363,5.981 1.029,0.452 3.251,1.837 4.089,2.594 0.616,2.959 -0.084,7.073 -1.63,9.698 -1.792,0.3 -6.115,0.212 -9.24,-1.209 -1.282,-3.809 -1.71,-12.4 5.436,-21.436 7.486,-8.757 16.108,-8.741 20.094,-8.22 C -0.372,-5.384 -0.053,-1.816 0,0 Z" /></g><g
           transform="translate(24.6582,19.1152)"
           id="g24"><path
             id="path26"
             style="fill:none;stroke:#828c96;stroke-width:2;stroke-linecap:butt;stroke-linejoin:miter;stroke-miterlimit:10;stroke-dasharray:none;stroke-opacity:1"
             d="m 0,0 h -7 v 1.03 l 3.259,2.733 c 0.839,0.762 1.565,1.345 1.902,1.749 0.338,0.404 0.655,0.79 0.814,1.158 0.158,0.368 0.272,0.754 0.272,1.157 0,0.588 -0.37,1.732 -1.965,2.136 -1.596,0.403 -3.366,-0.595 -4.303,-2.017" /></g><g
           transform="translate(33.6582,22.1152)"
           id="g28"><path
             id="path30"
             style="fill:none;stroke:#828c96;stroke-width:2;stroke-linecap:butt;stroke-linejoin:miter;stroke-miterlimit:10;stroke-dasharray:none;stroke-opacity:1"
             d="M 0,0 H -7 V 1.237 L -3.238,7 H -2 V -4" /></g><g
           transform="translate(22.6582,44.1152)"
           id="g32"><path
             id="path34"
             style="fill:none;stroke:#828c96;stroke-width:2;stroke-linecap:butt;stroke-linejoin:miter;stroke-miterlimit:10;stroke-dasharray:none;stroke-opacity:1"
             d="M 0,0 V -4" /></g><g
           transform="translate(15.1338,42.7881)"
           id="g36"><path
             id="path38"
             style="fill:none;stroke:#828c96;stroke-width:2;stroke-linecap:butt;stroke-linejoin:miter;stroke-miterlimit:10;stroke-dasharray:none;stroke-opacity:1"
             d="M 0,0 1.368,-3.759" /></g><g
           transform="translate(8.5171,38.9678)"
           id="g40"><path
             id="path42"
             style="fill:none;stroke:#828c96;stroke-width:2;stroke-linecap:butt;stroke-linejoin:miter;stroke-miterlimit:10;stroke-dasharray:none;stroke-opacity:1"
             d="M 0,0 2.571,-3.063" /></g><g
           transform="translate(36.7998,5.2617)"
           id="g44"><path
             id="path46"
             style="fill:none;stroke:#828c96;stroke-width:2;stroke-linecap:butt;stroke-linejoin:miter;stroke-miterlimit:10;stroke-dasharray:none;stroke-opacity:1"
             d="M 0,0 -2.571,3.064" /></g><g
           transform="translate(41.7109,11.1152)"
           id="g48"><path
             id="path50"
             style="fill:none;stroke:#828c96;stroke-width:2;stroke-linecap:butt;stroke-linejoin:miter;stroke-miterlimit:10;stroke-dasharray:none;stroke-opacity:1"
             d="M 0,0 -3.464,2" /></g><g
           transform="translate(44.3242,18.2949)"
           id="g52"><path
             id="path54"
             style="fill:none;stroke:#828c96;stroke-width:2;stroke-linecap:butt;stroke-linejoin:miter;stroke-miterlimit:10;stroke-dasharray:none;stroke-opacity:1"
             d="M 0,0 -3.939,0.694" /></g><g
           transform="translate(44.3242,25.9355)"
           id="g56"><path
             id="path58"
             style="fill:none;stroke:#828c96;stroke-width:2;stroke-linecap:butt;stroke-linejoin:miter;stroke-miterlimit:10;stroke-dasharray:none;stroke-opacity:1"
             d="M 0,0 -3.939,-0.694" /></g><g
           transform="translate(41.7109,33.1152)"
           id="g60"><path
             id="path62"
             style="fill:none;stroke:#828c96;stroke-width:2;stroke-linecap:butt;stroke-linejoin:miter;stroke-miterlimit:10;stroke-dasharray:none;stroke-opacity:1"
             d="M 0,0 -3.464,-2" /></g><g
           transform="translate(36.7998,38.9678)"
           id="g64"><path
             id="path66"
             style="fill:none;stroke:#828c96;stroke-width:2;stroke-linecap:butt;stroke-linejoin:miter;stroke-miterlimit:10;stroke-dasharray:none;stroke-opacity:1"
             d="M 0,0 -2.571,-3.063" /></g><g
           transform="translate(30.1826,42.7881)"
           id="g68"><path
             id="path70"
             style="fill:none;stroke:#828c96;stroke-width:2;stroke-linecap:butt;stroke-linejoin:miter;stroke-miterlimit:10;stroke-dasharray:none;stroke-opacity:1"
             d="M 0,0 -1.368,-3.759" /></g></g></g></g></svg>