<?xml version="1.0" encoding="UTF-8" standalone="no"?>
<svg
   xmlns:dc="http://purl.org/dc/elements/1.1/"
   xmlns:cc="http://creativecommons.org/ns#"
   xmlns:rdf="http://www.w3.org/1999/02/22-rdf-syntax-ns#"
   xmlns:svg="http://www.w3.org/2000/svg"
   xmlns="http://www.w3.org/2000/svg"
   viewBox="0 0 62.666668 62.666668"
   height="62.666668"
   width="62.666668"
   xml:space="preserve"
   id="svg2"
   version="1.1"><metadata
     id="metadata8"><rdf:RDF><cc:Work
         rdf:about=""><dc:format>image/svg+xml</dc:format><dc:type
           rdf:resource="http://purl.org/dc/dcmitype/StillImage" /><dc:title></dc:title></cc:Work></rdf:RDF></metadata><defs
     id="defs6"><clipPath
       id="clipPath18"
       clipPathUnits="userSpaceOnUse"><path
         id="path16"
         d="M 0,47 H 47 V 0 H 0 Z" /></clipPath></defs><g
     transform="matrix(1.3333333,0,0,-1.3333333,0,62.666667)"
     id="g10"><g
       id="g12"><g
         clip-path="url(#clipPath18)"
         id="g14"><g
           transform="translate(23.5,46)"
           id="g20"><path
             id="path22"
             style="fill:none;stroke:#828c96;stroke-width:2;stroke-linecap:butt;stroke-linejoin:miter;stroke-miterlimit:10;stroke-dasharray:none;stroke-opacity:1"
             d="M 0,0 C -12.406,0 -22.5,-10.094 -22.5,-22.501 -22.5,-34.907 -12.406,-45 0,-45 12.406,-45 22.5,-34.907 22.5,-22.501 22.5,-10.094 12.406,0 0,0 Z" /></g><g
           transform="translate(23.5,8.5)"
           id="g24"><path
             id="path26"
             style="fill:none;stroke:#828c96;stroke-width:2;stroke-linecap:butt;stroke-linejoin:miter;stroke-miterlimit:10;stroke-dasharray:none;stroke-opacity:1"
             d="m 0,0 c -8.271,0 -15,6.729 -15,15 0,8.271 6.729,15 15,15 C 8.271,30 15,23.271 15,15 15,6.729 8.271,0 0,0 Z" /></g><g
           transform="translate(23.5,24.5)"
           id="g28"><path
             id="path30"
             style="fill:none;stroke:#828c96;stroke-width:2;stroke-linecap:butt;stroke-linejoin:miter;stroke-miterlimit:10;stroke-dasharray:none;stroke-opacity:1"
             d="M 0,0 V -2" /></g><g
           transform="translate(34.1777,24.8667)"
           id="g32"><path
             id="path34"
             style="fill:none;stroke:#828c96;stroke-width:2;stroke-linecap:butt;stroke-linejoin:miter;stroke-miterlimit:10;stroke-dasharray:none;stroke-opacity:1"
             d="m 0,0 -6.133,-1.993 c -0.645,-0.21 -0.899,-0.989 -0.5,-1.539 l 3.786,-5.21 c 0.391,-0.538 1.193,-0.555 1.604,-0.032 1.605,2.039 2.565,4.61 2.565,7.407 0,0.15 -0.004,0.299 -0.01,0.447 C 1.281,-0.254 0.634,0.206 0,0 Z m -15.272,-11.093 c -0.386,-0.532 -0.168,-1.297 0.448,-1.526 1.292,-0.481 2.687,-0.748 4.146,-0.748 1.46,0 2.855,0.267 4.147,0.748 0.616,0.229 0.834,0.994 0.448,1.526 l -3.786,5.21 c -0.399,0.55 -1.218,0.55 -1.618,0 z m 1.327,21.262 c -2.771,-0.782 -5.134,-2.531 -6.7,-4.864 -0.367,-0.548 -0.095,-1.299 0.532,-1.503 l 6.126,-1.99 c 0.646,-0.21 1.309,0.271 1.309,0.95 v 6.437 c 0,0.66 -0.632,1.149 -1.267,0.97 z M -21.355,0 c -0.634,0.206 -1.282,-0.254 -1.312,-0.92 -0.007,-0.148 -0.011,-0.297 -0.011,-0.447 0,-2.797 0.96,-5.368 2.566,-7.407 0.411,-0.523 1.213,-0.506 1.604,0.032 l 3.785,5.21 c 0.4,0.55 0.146,1.329 -0.5,1.539 z M -8.678,9.199 V 2.762 c 0,-0.679 0.663,-1.16 1.309,-0.95 l 6.127,1.99 c 0.627,0.204 0.898,0.955 0.531,1.503 -1.565,2.333 -3.929,4.082 -6.699,4.864 -0.636,0.179 -1.268,-0.31 -1.268,-0.97 z" /></g></g></g></g></svg>