<?xml version="1.0" encoding="UTF-8" standalone="no"?>
<svg
   xmlns:dc="http://purl.org/dc/elements/1.1/"
   xmlns:cc="http://creativecommons.org/ns#"
   xmlns:rdf="http://www.w3.org/1999/02/22-rdf-syntax-ns#"
   xmlns:svg="http://www.w3.org/2000/svg"
   xmlns="http://www.w3.org/2000/svg"
   viewBox="0 0 426.66666 512"
   height="512"
   width="426.66666"
   xml:space="preserve"
   id="svg2"
   version="1.1"><metadata
     id="metadata8"><rdf:RDF><cc:Work
         rdf:about=""><dc:format>image/svg+xml</dc:format><dc:type
           rdf:resource="http://purl.org/dc/dcmitype/StillImage" /><dc:title></dc:title></cc:Work></rdf:RDF></metadata><defs
     id="defs6"><clipPath
       id="clipPath18"
       clipPathUnits="userSpaceOnUse"><path
         id="path16"
         d="M 0,384 H 320 V 0 H 0 Z" /></clipPath></defs><g
     transform="matrix(1.3333333,0,0,-1.3333333,0,512)"
     id="g10"><g
       id="g12"><g
         clip-path="url(#clipPath18)"
         id="g14"><g
           transform="translate(160,8)"
           id="g20"><path
             id="path22"
             style="fill:none;stroke:#828c96;stroke-width:16;stroke-linecap:butt;stroke-linejoin:round;stroke-miterlimit:10;stroke-dasharray:none;stroke-opacity:1"
             d="M 0,0 C 8.667,2.253 152,80.543 152,152 V 304 C 112.278,304 15.166,347.018 0,368 -15.167,347.018 -112.278,304 -152,304 V 152 C -152,80.543 -8.667,2.253 0,0 Z" /></g><g
           transform="translate(80.063,248.1582)"
           id="g24"><path
             id="path26"
             style="fill:none;stroke:#828c96;stroke-width:16;stroke-linecap:butt;stroke-linejoin:miter;stroke-miterlimit:10;stroke-dasharray:none;stroke-opacity:1"
             d="M 0,0 -32.063,-72.158" /></g><g
           transform="translate(87.9238,248.1895)"
           id="g28"><path
             id="path30"
             style="fill:none;stroke:#828c96;stroke-width:16;stroke-linecap:butt;stroke-linejoin:miter;stroke-miterlimit:10;stroke-dasharray:none;stroke-opacity:1"
             d="M 0,0 32.076,-72.189" /></g><g
           transform="translate(40,176)"
           id="g32"><path
             id="path34"
             style="fill:none;stroke:#828c96;stroke-width:16;stroke-linecap:butt;stroke-linejoin:miter;stroke-miterlimit:10;stroke-dasharray:none;stroke-opacity:1"
             d="M 0,0 V -2.857 C 0,-23.371 19.7,-40 44,-40 c 24.3,0 44,16.629 44,37.143 V 0 Z" /></g><g
           transform="translate(63.999,260)"
           id="g36"><path
             id="path38"
             style="fill:none;stroke:#828c96;stroke-width:16;stroke-linecap:round;stroke-linejoin:miter;stroke-miterlimit:10;stroke-dasharray:none;stroke-opacity:1"
             d="m 0,0 c 0.838,-4.426 13.847,-12 24.616,-12 36.923,0 34.462,24 71.385,24" /></g><g
           transform="translate(239.9336,248.1582)"
           id="g40"><path
             id="path42"
             style="fill:none;stroke:#828c96;stroke-width:16;stroke-linecap:butt;stroke-linejoin:miter;stroke-miterlimit:10;stroke-dasharray:none;stroke-opacity:1"
             d="M 0,0 32.063,-72.158" /></g><g
           transform="translate(232.0723,248.1895)"
           id="g44"><path
             id="path46"
             style="fill:none;stroke:#828c96;stroke-width:16;stroke-linecap:butt;stroke-linejoin:miter;stroke-miterlimit:10;stroke-dasharray:none;stroke-opacity:1"
             d="M 0,0 -32.075,-72.189" /></g><g
           transform="translate(279.9971,176)"
           id="g48"><path
             id="path50"
             style="fill:none;stroke:#828c96;stroke-width:16;stroke-linecap:butt;stroke-linejoin:miter;stroke-miterlimit:10;stroke-dasharray:none;stroke-opacity:1"
             d="M 0,0 V -2.857 C 0,-23.371 -19.7,-40 -44,-40 c -24.301,0 -44,16.629 -44,37.143 V 0 Z" /></g><g
           transform="translate(255.999,260)"
           id="g52"><path
             id="path54"
             style="fill:none;stroke:#828c96;stroke-width:16;stroke-linecap:round;stroke-linejoin:miter;stroke-miterlimit:10;stroke-dasharray:none;stroke-opacity:1"
             d="m 0,0 c -0.838,-4.426 -13.846,-12 -24.615,-12 -36.923,0 -34.461,24 -71.384,24" /></g><g
           transform="translate(160,296)"
           id="g56"><path
             id="path58"
             style="fill:none;stroke:#828c96;stroke-width:16;stroke-linecap:round;stroke-linejoin:miter;stroke-miterlimit:10;stroke-dasharray:none;stroke-opacity:1"
             d="M 0,0 V -192" /></g><g
           transform="translate(160,104)"
           id="g60"><path
             id="path62"
             style="fill:none;stroke:#828c96;stroke-width:16;stroke-linecap:round;stroke-linejoin:miter;stroke-miterlimit:10;stroke-dasharray:none;stroke-opacity:1"
             d="M 0,0 C -8,-8 -40,-8 -40,-8" /></g><g
           transform="translate(160,104)"
           id="g64"><path
             id="path66"
             style="fill:none;stroke:#828c96;stroke-width:16;stroke-linecap:round;stroke-linejoin:miter;stroke-miterlimit:10;stroke-dasharray:none;stroke-opacity:1"
             d="M 0,0 C 8,-8 40,-8 40,-8" /></g></g></g></g></svg>