<?xml version="1.0" encoding="UTF-8" standalone="no"?>
<svg
   xmlns:dc="http://purl.org/dc/elements/1.1/"
   xmlns:cc="http://creativecommons.org/ns#"
   xmlns:rdf="http://www.w3.org/1999/02/22-rdf-syntax-ns#"
   xmlns:svg="http://www.w3.org/2000/svg"
   xmlns="http://www.w3.org/2000/svg"
   viewBox="0 0 588.94135 523.62531"
   height="523.62531"
   width="588.94135"
   xml:space="preserve"
   id="svg2"
   version="1.1"><metadata
     id="metadata8"><rdf:RDF><cc:Work
         rdf:about=""><dc:format>image/svg+xml</dc:format><dc:type
           rdf:resource="http://purl.org/dc/dcmitype/StillImage" /><dc:title></dc:title></cc:Work></rdf:RDF></metadata><defs
     id="defs6"><clipPath
       id="clipPath18"
       clipPathUnits="userSpaceOnUse"><path
         id="path16"
         d="M 0,392.719 H 441.706 V 0 H 0 Z" /></clipPath></defs><g
     transform="matrix(1.3333333,0,0,-1.3333333,0,523.62533)"
     id="g10"><g
       id="g12"><g
         clip-path="url(#clipPath18)"
         id="g14"><g
           transform="translate(176.0493,258.8306)"
           id="g20"><path
             id="path22"
             style="fill:#828c96;fill-opacity:1;fill-rule:nonzero;stroke:none"
             d="m 0,0 c 0,18.529 -15.023,33.554 -33.555,33.554 -18.53,0 -33.553,-15.025 -33.553,-33.554 0,-18.531 15.023,-33.558 33.553,-33.558 C -15.023,-33.558 0,-18.531 0,0" /></g><g
           transform="translate(333.8042,258.8306)"
           id="g24"><path
             id="path26"
             style="fill:#828c96;fill-opacity:1;fill-rule:nonzero;stroke:none"
             d="m 0,0 c 0,18.529 -15.021,33.554 -33.552,33.554 -18.533,0 -33.554,-15.025 -33.554,-33.554 0,-18.531 15.021,-33.558 33.554,-33.558 C -15.021,-33.558 0,-18.531 0,0" /></g><g
           transform="translate(250.3267,341.0977)"
           id="g28"><path
             id="path30"
             style="fill:#828c96;fill-opacity:1;fill-rule:nonzero;stroke:none"
             d="M 0,0 V 41.893 C 54.646,42.148 67.569,21.465 71.507,0 Z m -5.847,0 h -75.347 c 0.994,17.081 35.94,40.984 75.109,42.238 0.08,0.002 0.157,0.002 0.238,0.005 z m 108.522,-11.235 c -4.321,2.156 -10.532,1.22 -14.053,4.881 -3.17,3.295 -2.961,9.226 -4.307,13.356 C 80.955,17.316 73.27,28.334 64.876,35.108 45.834,50.475 17.929,51.651 -5.433,51.621 -36.659,51.579 -66.896,40.169 -88.956,17.643 c -6.065,-6.196 -11.264,-14.865 -19.34,-18.764 -12.325,-5.946 -28.089,-5.387 -41.119,-10.266 -0.131,-0.05 -0.263,-0.098 -0.395,-0.148 -13.161,-5.061 -25.212,-14.167 -28.362,-28.625 -3.322,-15.244 -3.107,-30.638 5.894,-43.929 2.751,-4.058 5.703,-7.052 10.368,-8.69 1.038,-0.366 12.603,-2.212 12.603,-2.387 -0.004,3.515 0.058,7.907 0.529,12.44 0.924,21.585 18.713,38.799 40.526,38.799 22.403,0 40.565,-18.161 40.565,-40.565 0,-1.332 -0.065,-2.651 -0.191,-3.95 1.206,-3.896 2.974,-6.67 8.526,-6.76 22.259,-0.364 44.745,0.466 67.073,0.657 -0.187,0 0.378,4.45 0.996,8.827 -0.011,0.408 -0.017,0.816 -0.017,1.226 0,22.404 18.161,40.565 40.567,40.565 22.402,0 40.562,-18.161 40.562,-40.565 0,-1.714 -0.107,-3.403 -0.31,-5.059 0.562,-2.795 1.111,-5.637 1.795,-8.507 18.539,2.996 25.94,21.001 28.813,37.588 3.028,17.492 0.316,40.368 -17.452,49.235" /></g><g
           transform="translate(18.4082,332.3867)"
           id="g32"><path
             id="path34"
             style="fill:#828c96;fill-opacity:1;fill-rule:nonzero;stroke:none"
             d="m 0,0 c 9.726,-0.447 10.646,-8.445 13.654,-16.354 5.524,-14.537 4.452,-30.49 13.427,-59.435 1.453,-4.694 5.91,-14.136 1.737,-17.497 -3.369,-2.702 -8.593,-1.559 -11.83,-5.004 -3.435,-3.654 -4.538,-8.884 -3.343,-13.7 1.925,-7.786 10.219,-15.994 16.296,-20.897 15.565,-12.562 36.076,-24.413 44.202,-43.627 1.91,-4.526 4.497,-12.185 10.727,-11.311 -6.83,14.945 -17.599,30.21 -29.342,41.638 -6.408,6.232 -53.765,35.314 -34.459,46.376 12.338,7.075 26.135,-7.053 35.516,-13.689 14.208,-7.496 27.192,-16.669 40.816,-25.124 11.367,-7.06 23.447,-12.912 34.571,-20.368 13.522,-9.067 26.008,-20.15 32.737,-35.293 6.296,-14.157 7.251,-30.292 7.469,-45.587 0.082,-6.133 1.775,-11.658 3.497,-17.472 2.699,-9.091 5.29,-18.218 7.947,-27.318 l 9.352,-32.799 c -17.609,-4.873 -35.247,-9.924 -52.937,-14.498 -12.497,-3.226 -13.771,12.669 -15.956,18.524 -2.445,6.55 -2.375,13.872 -3.756,20.679 -1.555,7.652 -3.882,15.162 -7.058,22.298 -6.272,14.075 -45.609,47.441 -54.314,52.538 -14.269,8.365 -58.43,44.066 -60.188,48.952 C -33.971,-77.913 -11.993,0.559 0,0" /></g><g
           transform="translate(423.2983,332.3867)"
           id="g36"><path
             id="path38"
             style="fill:#828c96;fill-opacity:1;fill-rule:nonzero;stroke:none"
             d="m 0,0 c -9.732,-0.447 -10.645,-8.445 -13.66,-16.354 -5.518,-14.537 -4.447,-30.49 -13.42,-59.435 -1.459,-4.694 -5.915,-14.136 -1.738,-17.497 3.362,-2.702 8.589,-1.559 11.83,-5.004 3.434,-3.654 4.533,-8.884 3.338,-13.7 -1.926,-7.786 -10.219,-15.994 -16.291,-20.897 -15.571,-12.562 -36.08,-24.413 -44.202,-43.627 -1.916,-4.526 -4.503,-12.185 -10.732,-11.311 6.831,14.945 17.599,30.21 29.342,41.638 6.409,6.232 53.764,35.314 34.46,46.376 -12.333,7.075 -26.137,-7.053 -35.512,-13.689 -14.214,-7.496 -27.197,-16.669 -40.816,-25.124 -11.368,-7.06 -23.452,-12.912 -34.576,-20.368 -13.524,-9.067 -26.009,-20.15 -32.736,-35.293 -6.292,-14.157 -7.248,-30.292 -7.471,-45.587 -0.081,-6.133 -1.768,-11.658 -3.495,-17.472 -2.7,-9.091 -5.29,-18.218 -7.949,-27.318 l -9.351,-32.799 c 17.609,-4.873 35.249,-9.924 52.938,-14.498 12.496,-3.226 13.77,12.669 15.957,18.524 2.449,6.55 2.376,13.872 3.76,20.679 1.548,7.652 3.878,15.162 7.053,22.298 6.27,14.075 45.614,47.441 54.318,52.538 14.265,8.365 58.423,44.066 60.183,48.952 C 33.971,-77.913 11.994,0.559 0,0" /></g></g></g></g></svg>