<?xml version="1.0" encoding="UTF-8" standalone="no"?>
<svg
   xmlns:dc="http://purl.org/dc/elements/1.1/"
   xmlns:cc="http://creativecommons.org/ns#"
   xmlns:rdf="http://www.w3.org/1999/02/22-rdf-syntax-ns#"
   xmlns:svg="http://www.w3.org/2000/svg"
   xmlns="http://www.w3.org/2000/svg"
   viewBox="0 0 826.66669 450.67734"
   height="450.67734"
   width="826.66669"
   xml:space="preserve"
   id="svg2"
   version="1.1"><metadata
     id="metadata8"><rdf:RDF><cc:Work
         rdf:about=""><dc:format>image/svg+xml</dc:format><dc:type
           rdf:resource="http://purl.org/dc/dcmitype/StillImage" /><dc:title></dc:title></cc:Work></rdf:RDF></metadata><defs
     id="defs6"><clipPath
       id="clipPath18"
       clipPathUnits="userSpaceOnUse"><path
         id="path16"
         d="M 0,338.008 H 620 V 0 H 0 Z" /></clipPath></defs><g
     transform="matrix(1.3333333,0,0,-1.3333333,0,450.67733)"
     id="g10"><g
       id="g12"><g
         clip-path="url(#clipPath18)"
         id="g14"><g
           transform="translate(420.8418,66.9404)"
           id="g20"><path
             id="path22"
             style="fill:#828c96;fill-opacity:1;fill-rule:nonzero;stroke:none"
             d="m 0,0 c 24.73,26.844 39.841,62.687 39.841,102.063 0,39.378 -15.112,75.222 -39.842,102.065 C 50.282,185.212 95.149,151.772 137.746,102.065 95.149,52.358 50.283,18.918 0,0 m -359.433,102.065 c 42.599,49.708 87.466,83.149 137.751,102.066 -24.731,-26.844 -39.842,-62.689 -39.842,-102.068 0,-39.378 15.112,-75.224 39.844,-102.068 -50.288,18.917 -95.158,52.359 -137.753,102.07 m 248.59,-104.471 c -57.603,0 -104.469,46.864 -104.469,104.469 0,57.604 46.866,104.469 104.469,104.469 57.607,0 104.471,-46.865 104.471,-104.469 0,-57.605 -46.864,-104.469 -104.471,-104.469 m -0.005,273.473 c -138.277,0 -232.842,-66.38 -309.994,-169.002 77.152,-102.626 171.717,-169.005 309.994,-169.005 138.286,0 232.846,66.379 310.006,169.005 -77.16,102.622 -171.72,169.002 -310.006,169.002" /></g><g
           transform="translate(358.9873,167.8877)"
           id="g24"><path
             id="path26"
             style="fill:#828c96;fill-opacity:1;fill-rule:nonzero;stroke:none"
             d="m 0,0 c 0,-27.062 -21.937,-49 -49,-49 -27.062,0 -49,21.938 -49,49 0,27.062 21.938,49 49,49 C -21.937,49 0,27.062 0,0" /></g></g></g></g></svg>