<?xml version="1.0" encoding="UTF-8" standalone="no"?>
<svg
   xmlns:dc="http://purl.org/dc/elements/1.1/"
   xmlns:cc="http://creativecommons.org/ns#"
   xmlns:rdf="http://www.w3.org/1999/02/22-rdf-syntax-ns#"
   xmlns:svg="http://www.w3.org/2000/svg"
   xmlns="http://www.w3.org/2000/svg"
   viewBox="0 0 100.2044 100.20507"
   height="100.20507"
   width="100.2044"
   xml:space="preserve"
   id="svg2"
   version="1.1"><metadata
     id="metadata8"><rdf:RDF><cc:Work
         rdf:about=""><dc:format>image/svg+xml</dc:format><dc:type
           rdf:resource="http://purl.org/dc/dcmitype/StillImage" /><dc:title></dc:title></cc:Work></rdf:RDF></metadata><defs
     id="defs6"><clipPath
       id="clipPath18"
       clipPathUnits="userSpaceOnUse"><path
         id="path16"
         d="M 0,75.154 H 75.153 V 0 H 0 Z" /></clipPath></defs><g
     transform="matrix(1.3333333,0,0,-1.3333333,0,100.20507)"
     id="g10"><g
       id="g12"><g
         clip-path="url(#clipPath18)"
         id="g14"><g
           transform="translate(56.2524,18.8979)"
           id="g20"><path
             id="path22"
             style="fill:#828c96;fill-opacity:1;fill-rule:nonzero;stroke:none"
             d="m 0,0 c -1.617,-1.616 -3.391,-2.98 -5.274,-4.092 -0.003,-0.002 -0.008,-0.004 -0.012,-0.006 -0.349,-0.206 -0.702,-0.402 -1.059,-0.59 -0.083,-0.043 -0.164,-0.084 -0.248,-0.126 -0.282,-0.147 -0.569,-0.288 -0.855,-0.423 -0.146,-0.069 -0.293,-0.134 -0.441,-0.2 -0.228,-0.102 -0.457,-0.202 -0.687,-0.297 -0.206,-0.086 -0.416,-0.168 -0.626,-0.248 -0.173,-0.067 -0.349,-0.134 -0.525,-0.197 -0.273,-0.099 -0.551,-0.193 -0.831,-0.282 -0.111,-0.036 -0.223,-0.073 -0.334,-0.107 -0.363,-0.112 -0.727,-0.217 -1.097,-0.313 -0.027,-0.007 -0.054,-0.015 -0.079,-0.022 -2.113,-0.542 -4.327,-0.832 -6.605,-0.832 -14.637,0 -26.548,11.909 -26.548,26.547 0,10.896 6.601,20.274 16.01,24.36 0.106,0.045 0.212,0.095 0.32,0.138 0.13,0.055 0.265,0.104 0.397,0.157 9.532,3.739 20.804,1.768 28.496,-5.924 C 10.352,27.193 10.352,10.352 0,0 m 18.61,22.304 -1.844,1.032 1.512,1.47 c 0.145,0.081 0.228,0.277 0.186,0.437 l -1.676,6.278 c -0.043,0.16 -0.214,0.289 -0.379,0.289 l -2.099,0.533 1.108,1.861 c 0.117,0.115 0.146,0.327 0.063,0.471 l -3.252,5.627 c -0.085,0.144 -0.28,0.224 -0.441,0.178 l -2.11,-0.03 0.573,2.031 c 0.083,0.143 0.058,0.354 -0.058,0.471 L 5.596,47.549 C 5.48,47.666 5.268,47.691 5.126,47.607 L 3.15,47.05 3.182,49.103 c 0.046,0.159 -0.036,0.356 -0.178,0.438 l -5.622,3.266 c -0.142,0.082 -0.353,0.053 -0.468,-0.064 l -1.913,-1.133 -0.547,2.155 c 0.002,0.164 -0.127,0.334 -0.288,0.377 l -6.28,1.679 c -0.161,0.042 -0.355,-0.039 -0.437,-0.185 l -1.47,-1.512 -1.029,1.841 c -0.043,0.16 -0.21,0.291 -0.375,0.291 h -6.5 c -0.165,0 -0.335,-0.131 -0.376,-0.291 l -1.003,-1.793 -1.429,1.475 c -0.08,0.145 -0.277,0.227 -0.435,0.185 l -6.287,-1.666 c -0.158,-0.043 -0.287,-0.213 -0.285,-0.377 l -0.565,-2.207 -1.959,1.161 c -0.116,0.117 -0.326,0.146 -0.47,0.064 l -5.622,-3.266 c -0.144,-0.082 -0.223,-0.279 -0.176,-0.438 l 0.032,-2.053 -1.979,0.557 c -0.142,0.083 -0.353,0.058 -0.47,-0.059 l -4.595,-4.596 c -0.118,-0.117 -0.144,-0.33 -0.06,-0.471 l 0.574,-2.031 -2.111,0.03 c -0.158,0.046 -0.356,-0.034 -0.44,-0.178 l -3.252,-5.627 c -0.083,-0.144 -0.052,-0.356 0.064,-0.471 l 1.138,-1.91 -2.155,-0.551 c -0.165,0.001 -0.334,-0.128 -0.377,-0.286 l -1.667,-6.286 c -0.043,-0.159 0.042,-0.354 0.187,-0.435 l 1.475,-1.428 -1.792,-1.004 c -0.162,-0.041 -0.292,-0.209 -0.292,-0.374 v -6.501 c 0,-0.165 0.13,-0.333 0.292,-0.374 l 1.84,-1.031 -1.513,-1.472 c -0.144,-0.078 -0.229,-0.275 -0.186,-0.437 l 1.68,-6.279 c 0.043,-0.16 0.213,-0.287 0.378,-0.286 l 2.101,-0.533 -1.109,-1.862 c -0.116,-0.116 -0.147,-0.328 -0.064,-0.472 l 3.254,-5.625 c 0.082,-0.142 0.28,-0.222 0.438,-0.178 l 2.111,0.031 -0.574,-2.033 c -0.084,-0.143 -0.06,-0.354 0.058,-0.471 l 4.597,-4.597 c 0.117,-0.117 0.328,-0.143 0.472,-0.058 l 1.977,0.558 -0.032,-2.054 c -0.047,-0.16 0.032,-0.357 0.176,-0.441 l 5.622,-3.264 c 0.144,-0.081 0.354,-0.053 0.47,0.066 l 1.911,1.133 0.547,-2.155 c 0,-0.166 0.127,-0.337 0.287,-0.38 l 6.279,-1.676 c 0.159,-0.043 0.355,0.041 0.436,0.183 l 1.471,1.515 1.032,-1.843 c 0.041,-0.161 0.21,-0.292 0.376,-0.292 h 6.5 c 0.165,0 0.332,0.131 0.373,0.292 l 1.005,1.793 1.429,-1.475 c 0.079,-0.145 0.275,-0.229 0.436,-0.188 l 6.283,1.669 c 0.159,0.043 0.288,0.212 0.285,0.378 l 0.567,2.207 1.961,-1.161 c 0.115,-0.119 0.326,-0.147 0.468,-0.066 l 5.622,3.264 c 0.142,0.084 0.224,0.281 0.178,0.441 l -0.032,2.053 1.975,-0.558 c 0.141,-0.085 0.355,-0.058 0.471,0.06 l 4.597,4.595 c 0.116,0.117 0.141,0.328 0.058,0.471 l -0.573,2.034 2.11,-0.031 c 0.159,-0.044 0.356,0.036 0.441,0.178 l 3.252,5.625 c 0.083,0.144 0.054,0.356 -0.063,0.472 l -1.137,1.91 2.151,0.552 c 0.167,-0.003 0.335,0.127 0.379,0.284 l 1.666,6.284 c 0.041,0.159 -0.039,0.357 -0.185,0.438 l -1.476,1.428 1.794,1.004 c 0.16,0.041 0.291,0.209 0.291,0.374 v 6.501 c 0,0.165 -0.131,0.333 -0.291,0.374" /></g><g
           transform="translate(32.5098,47.7129)"
           id="g24"><path
             id="path26"
             style="fill:#828c96;fill-opacity:1;fill-rule:nonzero;stroke:none"
             d="M 0,0 0.619,10.885 C -5.926,9.527 -11.39,5.231 -14.344,-0.559 L -3.902,-2.936 C -1.874,-3.398 -0.118,-2.077 0,0" /></g><g
           transform="translate(42.0239,58.5981)"
           id="g28"><path
             id="path30"
             style="fill:#828c96;fill-opacity:1;fill-rule:nonzero;stroke:none"
             d="m 0,0 0.619,-10.885 c 0.118,-2.077 1.874,-3.398 3.902,-2.936 l 10.442,2.377 C 12.008,-5.653 6.544,-1.358 0,0" /></g><g
           transform="translate(35.1577,25.1436)"
           id="g32"><path
             id="path34"
             style="fill:#828c96;fill-opacity:1;fill-rule:nonzero;stroke:none"
             d="m 0,0 -6.46,-7.766 c 2.712,-1.213 5.715,-1.892 8.878,-1.892 3.164,0 6.166,0.679 8.879,1.892 L 4.837,0 C 3.507,1.599 1.33,1.599 0,0" /></g><g
           transform="translate(25.2905,35.2188)"
           id="g36"><path
             id="path38"
             style="fill:#828c96;fill-opacity:1;fill-rule:nonzero;stroke:none"
             d="m 0,0 -9.458,3.318 c -0.025,-0.42 -0.04,-0.841 -0.04,-1.267 0,-5.631 2.136,-10.761 5.642,-14.628 l 5.351,8.162 C 2.636,-2.675 1.962,-0.688 0,0" /></g><g
           transform="translate(48.3667,30.8042)"
           id="g40"><path
             id="path42"
             style="fill:#828c96;fill-opacity:1;fill-rule:nonzero;stroke:none"
             d="m 0,0 5.352,-8.163 c 3.506,3.867 5.642,8.998 5.642,14.628 0,0.426 -0.015,0.848 -0.039,1.267 L 1.495,4.414 C -0.468,3.726 -1.141,1.739 0,0" /></g><g
           transform="translate(37.5762,31.6851)"
           id="g44"><path
             id="path46"
             style="fill:#828c96;fill-opacity:1;fill-rule:nonzero;stroke:none"
             d="m 0,0 c 3.083,0 5.585,2.5 5.585,5.584 0,3.085 -2.502,5.585 -5.585,5.585 -3.083,0 -5.585,-2.5 -5.585,-5.585 C -5.585,2.5 -3.083,0 0,0" /></g><g
           transform="translate(30.4658,39.6738)"
           id="g48"><path
             id="path50"
             style="fill:#828c96;fill-opacity:1;fill-rule:nonzero;stroke:none"
             d="m 0,0 c 0,0.822 -0.666,1.487 -1.487,1.487 -0.822,0 -1.488,-0.665 -1.488,-1.487 0,-0.821 0.666,-1.487 1.488,-1.487 C -0.666,-1.487 0,-0.821 0,0" /></g><g
           transform="translate(46.2729,41.1611)"
           id="g52"><path
             id="path54"
             style="fill:#828c96;fill-opacity:1;fill-rule:nonzero;stroke:none"
             d="m 0,0 c -0.821,0 -1.487,-0.666 -1.487,-1.487 0,-0.822 0.666,-1.487 1.487,-1.487 0.822,0 1.487,0.665 1.487,1.487 C 1.487,-0.666 0.822,0 0,0" /></g><g
           transform="translate(37.5796,44.8262)"
           id="g56"><path
             id="path58"
             style="fill:#828c96;fill-opacity:1;fill-rule:nonzero;stroke:none"
             d="M 0,0 C 0.822,0 1.487,0.666 1.487,1.487 1.487,2.308 0.822,2.974 0,2.974 -0.821,2.974 -1.487,2.308 -1.487,1.487 -1.487,0.666 -0.821,0 0,0" /></g><g
           transform="translate(32.1846,31.6147)"
           id="g60"><path
             id="path62"
             style="fill:#828c96;fill-opacity:1;fill-rule:nonzero;stroke:none"
             d="m 0,0 c -0.821,0 -1.487,-0.666 -1.487,-1.487 0,-0.821 0.666,-1.487 1.487,-1.487 0.821,0 1.487,0.666 1.487,1.487 C 1.487,-0.666 0.821,0 0,0" /></g><g
           transform="translate(41.4878,30.1274)"
           id="g64"><path
             id="path66"
             style="fill:#828c96;fill-opacity:1;fill-rule:nonzero;stroke:none"
             d="m 0,0 c 0,-0.821 0.666,-1.486 1.487,-1.486 0.822,0 1.487,0.665 1.487,1.486 0,0.821 -0.665,1.487 -1.487,1.487 C 0.666,1.487 0,0.821 0,0" /></g></g></g></g></svg>