<?xml version="1.0" encoding="UTF-8" standalone="no"?>
<svg
   xmlns:dc="http://purl.org/dc/elements/1.1/"
   xmlns:cc="http://creativecommons.org/ns#"
   xmlns:rdf="http://www.w3.org/1999/02/22-rdf-syntax-ns#"
   xmlns:svg="http://www.w3.org/2000/svg"
   xmlns="http://www.w3.org/2000/svg"
   viewBox="0 0 80 69.149071"
   height="69.149071"
   width="80"
   xml:space="preserve"
   id="svg2"
   version="1.1"><metadata
     id="metadata8"><rdf:RDF><cc:Work
         rdf:about=""><dc:format>image/svg+xml</dc:format><dc:type
           rdf:resource="http://purl.org/dc/dcmitype/StillImage" /><dc:title></dc:title></cc:Work></rdf:RDF></metadata><defs
     id="defs6"><clipPath
       id="clipPath18"
       clipPathUnits="userSpaceOnUse"><path
         id="path16"
         d="M 0,51.862 H 60 V 0 H 0 Z" /></clipPath></defs><g
     transform="matrix(1.3333333,0,0,-1.3333333,0,69.149067)"
     id="g10"><g
       id="g12"><g
         clip-path="url(#clipPath18)"
         id="g14"><g
           transform="translate(10.1504,2.9995)"
           id="g20"><path
             id="path22"
             style="fill:#828c96;fill-opacity:1;fill-rule:nonzero;stroke:none"
             d="m 0,0 h 33.564 l 13.287,44.674 c 0.003,0.35 -0.065,0.601 -0.203,0.746 -0.126,0.135 -0.559,0.446 -1.858,0.446 -0.523,0 -1.13,-0.052 -1.808,-0.154 -6.311,-9.223 -10.16,-19.343 -11.763,-30.917 -0.107,-0.771 -0.777,-1.339 -1.565,-1.292 -11.813,0.611 -34.337,1.771 -35.015,1.792 -0.974,-10e-4 -1.79,-0.817 -1.79,-1.821 0,-0.306 0.086,-0.608 0.255,-0.9 0.06,-0.106 0.107,-0.217 0.14,-0.329 z M 34.683,-3 H -0.886 c -0.546,0 -1.048,0.298 -1.313,0.776 l -7.334,13.292 c -0.057,0.106 -0.102,0.216 -0.133,0.328 -0.318,0.657 -0.484,1.369 -0.484,2.078 0,2.657 2.162,4.82 4.819,4.82 0.375,0 24.388,-1.239 33.777,-1.724 1.812,11.701 5.886,21.977 12.431,31.373 0.227,0.325 0.571,0.548 0.961,0.619 3.445,0.63 5.719,0.271 6.994,-1.086 0.747,-0.793 1.086,-1.85 1.007,-3.14 C 49.831,44.223 49.813,44.109 49.78,44 L 36.121,-1.927 C 35.932,-2.563 35.347,-3 34.683,-3" /></g></g></g></g></svg>