<?xml version="1.0" encoding="UTF-8" standalone="no"?>
<svg
   xmlns:dc="http://purl.org/dc/elements/1.1/"
   xmlns:cc="http://creativecommons.org/ns#"
   xmlns:rdf="http://www.w3.org/1999/02/22-rdf-syntax-ns#"
   xmlns:svg="http://www.w3.org/2000/svg"
   xmlns="http://www.w3.org/2000/svg"
   viewBox="0 0 269.12668 234.07468"
   height="234.07468"
   width="269.12668"
   xml:space="preserve"
   id="svg2"
   version="1.1"><metadata
     id="metadata8"><rdf:RDF><cc:Work
         rdf:about=""><dc:format>image/svg+xml</dc:format><dc:type
           rdf:resource="http://purl.org/dc/dcmitype/StillImage" /><dc:title></dc:title></cc:Work></rdf:RDF></metadata><defs
     id="defs6"><clipPath
       id="clipPath18"
       clipPathUnits="userSpaceOnUse"><path
         id="path16"
         d="M 0,175.556 H 201.845 V 0 H 0 Z" /></clipPath></defs><g
     transform="matrix(1.3333333,0,0,-1.3333333,0,234.07467)"
     id="g10"><g
       id="g12"><g
         clip-path="url(#clipPath18)"
         id="g14"><g
           transform="translate(136.0361,100.4609)"
           id="g20"><path
             id="path22"
             style="fill:#828c96;fill-opacity:1;fill-rule:evenodd;stroke:none"
             d="m 0,0 3.014,-1.163 c -0.473,-2.105 -1.251,-3.64 -2.345,-4.609 -1.093,-0.967 -2.44,-1.455 -4.037,-1.455 -2.007,0 -3.635,0.776 -4.881,2.319 -1.439,1.785 -2.156,4.195 -2.156,7.226 0,3.205 0.721,5.712 2.169,7.523 1.255,1.57 2.939,2.358 5.061,2.358 1.723,0 3.166,-0.59 4.33,-1.767 C 1.981,9.593 2.59,8.351 2.975,6.701 L -0.101,5.805 c -0.196,1.019 -0.586,1.798 -1.171,2.341 -0.587,0.541 -1.278,0.812 -2.07,0.812 -1.137,0 -2.064,-0.493 -2.781,-1.486 -0.718,-0.99 -1.076,-2.625 -1.076,-4.909 0,-2.365 0.349,-4.05 1.049,-5.047 0.701,-1.002 1.61,-1.499 2.729,-1.499 0.822,0 1.531,0.318 2.126,0.952 C -0.695,-2.393 -0.263,-1.382 0,0 M 4.332,-6.907 V 11.88 H 7.434 V 4.488 h 6.1 v 7.392 h 3.115 V -6.907 h -3.115 v 8.216 h -6.1 v -8.216 z m 14.294,0 V 11.88 H 30.061 V 8.7 H 21.728 V 4.536 H 29.47 V 1.374 H 21.728 V -3.74 H 30.34 V -6.907 Z M 41.191,0 44.205,-1.163 c -0.472,-2.105 -1.251,-3.64 -2.344,-4.609 -1.093,-0.967 -2.44,-1.455 -4.037,-1.455 -2.008,0 -3.636,0.776 -4.882,2.319 -1.439,1.785 -2.156,4.195 -2.156,7.226 0,3.205 0.722,5.712 2.17,7.523 1.254,1.57 2.939,2.358 5.061,2.358 1.723,0 3.166,-0.59 4.33,-1.767 0.826,-0.839 1.434,-2.081 1.819,-3.731 L 41.091,5.805 c -0.196,1.019 -0.586,1.798 -1.172,2.341 -0.586,0.541 -1.277,0.812 -2.068,0.812 -1.138,0 -2.065,-0.493 -2.783,-1.486 -0.716,-0.99 -1.076,-2.625 -1.076,-4.909 0,-2.365 0.35,-4.05 1.049,-5.047 0.701,-1.002 1.61,-1.499 2.73,-1.499 0.823,0 1.531,0.318 2.125,0.952 0.601,0.638 1.033,1.649 1.295,3.031 m 4.106,-6.907 V 11.88 h 3.1 V 3.539 l 6.294,8.341 h 4.191 L 53.077,4.562 59.188,-6.907 H 55.164 L 50.922,1.912 48.397,-1.229 V -6.907 Z M -62.389,7.579 c 2.775,0 5.53,-0.398 8.186,-1.188 2.179,-0.649 2.099,-2.131 -0.317,-1.911 -0.898,0.084 -1.799,0.127 -2.703,0.127 -15.975,0 -28.926,-12.95 -28.926,-28.924 0,-5.594 1.596,-11.02 4.636,-15.71 0.834,-1.309 -0.31,-2.303 -1.49,-1.077 -5.203,5.367 -8.093,12.489 -8.093,19.975 0,15.854 12.854,28.708 28.707,28.708 M -77.661,7.163 c 15.856,9.154 36.13,3.722 45.283,-12.133 9.154,-15.856 3.723,-36.13 -12.133,-45.284 -15.855,-9.154 -36.129,-3.721 -45.283,12.135 -9.154,15.854 -3.721,36.128 12.133,45.282 m 45.11,-60.177 21.008,-36.385 c 1.147,-1.988 0.46,-4.556 -1.529,-5.705 l -8.318,-4.801 c -1.988,-1.148 -4.556,-0.461 -5.704,1.529 l -21.007,36.385 c -18.639,-6.005 -39.579,1.561 -49.767,19.21 -11.729,20.314 -4.77,46.291 15.546,58.019 20.314,11.729 46.292,4.768 58.02,-15.547 10.188,-17.646 6.271,-39.563 -8.249,-52.705 m -7.812,110.818 v 6.499 h 29.907 c 1.904,0 3.461,0.97 3.461,2.158 v 6.475 c 0,1.187 -1.557,2.159 -3.461,2.159 h -70.023 c -1.904,0 -3.458,-0.972 -3.458,-2.159 v -6.475 c 0,-1.188 1.554,-2.158 3.458,-2.158 h 29.911 v -6.499 h -30.811 -2.48 l -1.248,-2.158 -10.49,-18.17 -17.592,-0.009 -4.322,-0.002 v -4.3 -23.439 h -7.733 v 29.908 c 0,1.902 -0.97,3.457 -2.157,3.457 h -6.477 c -1.187,0 -2.158,-1.555 -2.158,-3.457 V -30.39 c 0,-1.903 0.971,-3.459 2.158,-3.459 h 6.477 c 1.187,0 2.157,1.556 2.157,3.459 v 29.91 h 7.733 v -23.443 -4.303 l 4.322,0.003 4.089,0.002 c -2.611,18.96 6.205,38.515 23.775,48.658 23.15,13.367 52.857,5.408 66.222,-17.744 9.249,-16.017 8.417,-35.544 -1.227,-50.511 H 6.496 l 1.789,-0.001 1.267,1.267 19.954,19.952 h 8.134 l 0.011,-5.376 0.01,-4.318 h 4.292 19.534 4.322 v 4.318 69.952 4.319 H 61.487 42.499 38.18 v -4.319 -8.262 h -5.441 v 8.364 4.319 H 28.42 8.194 L -5.737,56.523 -7.001,57.804 H -8.81 Z" /></g></g></g></g></svg>