<?xml version="1.0" encoding="UTF-8" standalone="no"?>
<svg
   xmlns:dc="http://purl.org/dc/elements/1.1/"
   xmlns:cc="http://creativecommons.org/ns#"
   xmlns:rdf="http://www.w3.org/1999/02/22-rdf-syntax-ns#"
   xmlns:svg="http://www.w3.org/2000/svg"
   xmlns="http://www.w3.org/2000/svg"
   viewBox="0 0 129.8412 113.07027"
   height="113.07027"
   width="129.8412"
   xml:space="preserve"
   id="svg2"
   version="1.1"><metadata
     id="metadata8"><rdf:RDF><cc:Work
         rdf:about=""><dc:format>image/svg+xml</dc:format><dc:type
           rdf:resource="http://purl.org/dc/dcmitype/StillImage" /><dc:title></dc:title></cc:Work></rdf:RDF></metadata><defs
     id="defs6"><clipPath
       id="clipPath18"
       clipPathUnits="userSpaceOnUse"><path
         id="path16"
         d="M 0,84.803 H 97.381 V 0 H 0 Z" /></clipPath></defs><g
     transform="matrix(1.3333333,0,0,-1.3333333,0,113.07027)"
     id="g10"><g
       id="g12"><g
         clip-path="url(#clipPath18)"
         id="g14"><g
           transform="translate(23.7988,37.4106)"
           id="g20"><path
             id="path22"
             style="fill:#828c96;fill-opacity:1;fill-rule:nonzero;stroke:none"
             d="m 0,0 c 1.364,0 2.471,1.17 2.471,2.613 v 3.676 c -3.015,0.395 -6.306,0.962 -7.438,1.315 -0.77,0.241 -1.387,0.612 -1.898,1.041 V 2.613 C -6.865,1.17 -5.76,0 -4.395,0 Z" /></g><g
           transform="translate(71.0313,43.6494)"
           id="g24"><path
             id="path26"
             style="fill:#828c96;fill-opacity:1;fill-rule:nonzero;stroke:none"
             d="m 0,0 v -3.626 c 0,-1.443 1.107,-2.613 2.471,-2.613 h 4.396 c 1.363,0 2.469,1.17 2.469,2.613 v 5.96 C 8.841,1.936 8.246,1.593 7.518,1.365 6.468,1.037 3.188,0.396 0,0" /></g><g
           transform="translate(64.3828,60.5679)"
           id="g28"><path
             id="path30"
             style="fill:#828c96;fill-opacity:1;fill-rule:nonzero;stroke:none"
             d="m 0,0 c 9.751,1.025 13.164,1.942 13.164,1.942 0.881,-2.751 0.221,-5.368 0.221,-5.368 C 6.338,-4.709 -0.93,-5.351 -0.93,-5.351 c 0,0 0.442,3.715 0.93,5.351 m -28.322,-13.212 c 0,0 0.439,4.037 2.788,4.441 2.008,0.346 17.597,0.346 19.602,0 2.35,-0.404 2.789,-4.441 2.789,-4.441 z m -16.924,9.847 c 0,0 0.221,2.689 0.616,5.307 0,0 3.415,-0.917 13.165,-1.942 0.486,-1.636 0.931,-5.351 0.931,-5.351 0,0 -7.665,0.703 -14.712,1.986 m 7.581,14.228 c 0.294,0.568 0.571,1.115 0.834,1.636 2.542,5.022 3.985,8.274 6.578,8.677 2.708,0.422 8.445,0.69 13.578,0.796 0.104,0.003 0.201,0.012 0.298,0.028 l 0.6,-0.012 0.681,0.012 c 0.096,-0.016 0.192,-0.025 0.292,-0.028 5.132,-0.106 10.873,-0.374 13.578,-0.796 2.591,-0.403 4.039,-3.655 6.58,-8.677 C 5.619,11.97 5.905,11.413 6.203,10.837 6.539,10.181 5.342,9.173 4.316,9.173 c 0,0 -10.24,0.891 -19.826,0.941 v 0.003 c -0.101,0 -0.205,-0.001 -0.304,-0.002 -0.104,10e-4 -0.204,0.002 -0.305,0.002 v -0.003 c -9.587,-0.05 -19.828,-0.941 -19.828,-0.941 -0.962,0 -2.051,1.039 -1.718,1.69 M -15.644,8.26 C -1.807,8.483 4.208,7.71 8.333,4.786 c 0,0 -10.72,-1.16 -23.269,-1.362 0.04,0.349 0.066,0.701 0.066,1.057 0,1.308 -0.273,2.578 -0.774,3.779 m 29.067,-22.164 c 1.891,0.591 2.098,2.423 2.098,2.423 l 0.692,6.607 -0.809,7.194 C 14.156,4.522 11.953,6.798 11.186,7.822 11.184,7.826 11.174,7.835 11.174,7.835 7.377,14.801 5.627,20.711 1.83,22.533 c -0.543,0.259 -1.127,0.444 -1.764,0.545 -3.435,0.545 -7.933,1.157 -15.757,1.157 -7.827,0 -12.325,-0.612 -15.758,-1.157 -0.638,-0.101 -1.222,-0.286 -1.764,-0.545 -3.798,-1.822 -5.549,-7.732 -9.346,-14.698 0,0 -0.009,-0.009 -0.011,-0.013 -0.768,-1.024 -2.971,-3.3 -4.219,-5.502 l -0.808,-7.194 0.691,-6.607 c 0,0 0.207,-1.832 2.099,-2.423 1.176,-0.366 6.256,-1.218 9.825,-1.541 7.279,-0.66 9.276,-0.514 18.922,-0.514 9.648,0 14.052,0.146 19.658,0.514 3.576,0.234 8.649,1.175 9.825,1.541" /></g><g
           transform="translate(29.2803,70.7002)"
           id="g32"><path
             id="path34"
             style="fill:#828c96;fill-opacity:1;fill-rule:nonzero;stroke:none"
             d="M 0,0 C 13.735,2.942 38.987,-0.101 38.987,-0.101 38.762,1.016 37.524,1.623 37.524,1.623 32.118,4.058 3.94,4.125 0.525,1.488 -0.813,0.455 0,0 0,0" /></g><g
           transform="translate(19.3613,70.3027)"
           id="g36"><path
             id="path38"
             style="fill:#828c96;fill-opacity:1;fill-rule:nonzero;stroke:none"
             d="m 0,0 0.882,-2.055 c 0,0 1.468,2.202 1.614,2.496 l 0.148,3.67 c 0,0 -0.002,1.322 -1.47,1.322 -1.467,0 -3.668,-0.147 -3.668,-0.147 0,0 -2.057,0.073 -2.202,-2.202 C -4.771,0.513 -1.32,0.441 0,0" /></g><g
           transform="translate(77.1367,68.2476)"
           id="g40"><path
             id="path42"
             style="fill:#828c96;fill-opacity:1;fill-rule:nonzero;stroke:none"
             d="m 0,0 0.883,2.055 c 1.32,0.441 4.77,0.513 4.696,3.085 -0.145,2.274 -2.202,2.201 -2.202,2.201 0,0 -2.201,0.147 -3.668,0.147 -1.469,0 -1.47,-1.321 -1.47,-1.321 L -1.613,2.496 C -1.467,2.202 0,0 0,0" /></g><g
           transform="translate(94.9004,4.667)"
           id="g44"><path
             id="path46"
             style="fill:#828c96;fill-opacity:1;fill-rule:nonzero;stroke:none"
             d="M 0,0 V 53.826 H -10.006 V 31.433 h -19.528 v -4.002 h 19.528 V 0 h -9.15 v -4.61 h 9.15 V -4.667 H 0 v 0.057 h 2.48 l 0,4.61 z" /></g><g
           transform="translate(12.4834,58.4932)"
           id="g48"><path
             id="path50"
             style="fill:#828c96;fill-opacity:1;fill-rule:nonzero;stroke:none"
             d="m 0,0 h -10.004 v -53.826 h -2.479 v -4.611 h 2.479 v -0.056 H 0 v 0.056 h 9.152 v 4.611 H 0 v 27.431 h 19.531 v 4.002 H 0 Z" /></g></g></g></g></svg>