<?xml version="1.0" encoding="UTF-8" standalone="no"?>
<svg
   xmlns:dc="http://purl.org/dc/elements/1.1/"
   xmlns:cc="http://creativecommons.org/ns#"
   xmlns:rdf="http://www.w3.org/1999/02/22-rdf-syntax-ns#"
   xmlns:svg="http://www.w3.org/2000/svg"
   xmlns="http://www.w3.org/2000/svg"
   viewBox="0 0 82.673203 96.84053"
   height="96.84053"
   width="82.673203"
   xml:space="preserve"
   id="svg2"
   version="1.1"><metadata
     id="metadata8"><rdf:RDF><cc:Work
         rdf:about=""><dc:format>image/svg+xml</dc:format><dc:type
           rdf:resource="http://purl.org/dc/dcmitype/StillImage" /><dc:title></dc:title></cc:Work></rdf:RDF></metadata><defs
     id="defs6"><clipPath
       id="clipPath18"
       clipPathUnits="userSpaceOnUse"><path
         id="path16"
         d="M 0,72.63 H 62.005 V 0 H 0 Z" /></clipPath></defs><g
     transform="matrix(1.3333333,0,0,-1.3333333,0,96.840533)"
     id="g10"><g
       id="g12"><g
         clip-path="url(#clipPath18)"
         id="g14"><g
           transform="translate(59.374,8.209)"
           id="g20"><path
             id="path22"
             style="fill:#828c96;fill-opacity:1;fill-rule:evenodd;stroke:none"
             d="m 0,0 v -5.498 c 0,-1.49 -1.333,-2.711 -2.962,-2.711 h -1.975 c -1.629,0 -2.962,1.221 -2.962,2.711 V 0 h -40.944 v -5.498 c 0,-1.49 -1.334,-2.711 -2.963,-2.711 h -1.975 c -1.629,0 -2.962,1.221 -2.962,2.711 V 0 l -0.676,6.531 H 0.676 Z m -6.299,14.631 c -3.331,-0.871 -5.669,-2.352 -5.669,-3.545 0,-1.191 -0.544,-1.725 5.669,-1.543 6.213,0.182 5.602,1.664 5.668,3.49 0.068,1.828 -2.337,2.467 -5.668,1.598 m -44.146,0 c 3.331,-0.871 5.669,-2.352 5.669,-3.545 0,-1.191 0.544,-1.725 -5.669,-1.543 -6.213,0.182 -5.602,1.664 -5.669,3.49 -0.067,1.828 2.338,2.467 5.669,1.598 M -35.68,4.512 h 14.617 c 0.589,0 1.072,-0.362 1.072,-0.801 V 2.709 c 0,-0.439 -0.483,-0.801 -1.072,-0.801 H -35.68 c -0.591,0 -1.073,0.362 -1.073,0.801 v 1.002 c 0,0.439 0.482,0.801 1.073,0.801 m -16.466,16.31 0.878,-0.789 2.518,8.104 c 1.065,3.427 2.468,6.66 5.483,6.66 h 29.755 c 3.017,0 4.419,-3.233 5.484,-6.66 l 2.525,-8.129 0.906,0.814 v 2.332 c 0,0.43 0.346,0.733 0.762,0.782 l 5.688,0.669 C 2.27,24.654 2.72,24.24 2.615,23.822 L 1.828,20.697 C 1.723,20.281 1.484,19.916 1.065,19.916 h -4.663 l -0.279,-0.752 c 2.744,-0.893 5.495,-3.523 5.18,-6.572 L 0.769,7.436 h -58.282 l -0.533,5.156 c -0.316,3.051 2.436,5.681 5.18,6.572 l -0.28,0.752 h -4.663 c -0.419,0 -0.657,0.365 -0.762,0.781 l -0.787,3.125 c -0.105,0.418 0.345,0.832 0.762,0.783 l 5.688,-0.669 c 0.417,-0.049 0.762,-0.352 0.762,-0.782 z m 30.25,32.281 h -1.341 L -3.836,26.75 h 1.341 z m -12.951,0 h 1.341 L -52.907,26.75 h -1.341 z m 9.796,0 h -1.341 l 5.939,-15.861 h 1.341 z m -6.641,0 h 1.341 L -36.29,37.242 h -1.341 z m 2.691,0 h 1.26 V 37.242 h -1.26 z m 2.219,4.998 4.386,-3.822 h -11.951 l 4.529,3.822 v 6.32 h 3.036 z M -47.815,19.488 h 38.853 l -2.373,7.637 c -0.184,0.592 -1.37,4.24 -2.177,4.24 h -29.755 c -0.806,0 -1.993,-3.648 -2.176,-4.24 z" /></g></g></g></g></svg>