<?xml version="1.0" encoding="UTF-8" standalone="no"?>
<svg
   xmlns:dc="http://purl.org/dc/elements/1.1/"
   xmlns:cc="http://creativecommons.org/ns#"
   xmlns:rdf="http://www.w3.org/1999/02/22-rdf-syntax-ns#"
   xmlns:svg="http://www.w3.org/2000/svg"
   xmlns="http://www.w3.org/2000/svg"
   viewBox="0 0 229.72133 135.856"
   height="135.856"
   width="229.72133"
   xml:space="preserve"
   id="svg2"
   version="1.1"><metadata
     id="metadata8"><rdf:RDF><cc:Work
         rdf:about=""><dc:format>image/svg+xml</dc:format><dc:type
           rdf:resource="http://purl.org/dc/dcmitype/StillImage" /><dc:title></dc:title></cc:Work></rdf:RDF></metadata><defs
     id="defs6"><clipPath
       id="clipPath18"
       clipPathUnits="userSpaceOnUse"><path
         id="path16"
         d="M 0,101.892 H 172.291 V 0 H 0 Z" /></clipPath></defs><g
     transform="matrix(1.3333333,0,0,-1.3333333,0,135.856)"
     id="g10"><g
       id="g12"><g
         clip-path="url(#clipPath18)"
         id="g14"><g
           transform="translate(164.291,21.6416)"
           id="g20"><path
             id="path22"
             style="fill:#828c96;fill-opacity:1;fill-rule:nonzero;stroke:none"
             d="m 0,0 h -44.227 c 10e-4,0.103 0.008,0.204 0.008,0.307 0,12.101 -9.845,21.947 -21.947,21.947 -12.103,0 -21.948,-9.846 -21.948,-21.947 0,-0.103 0.007,-0.204 0.008,-0.307 h -44.227 v 51.25 c 0,11.58 9.421,21 21,21 H -21 c 11.58,0 21,-9.42 21,-21 z m -66.166,-13.642 c -7.691,0 -13.948,6.257 -13.948,13.949 0,7.69 6.257,13.947 13.948,13.947 7.69,0 13.947,-6.257 13.947,-13.947 0,-7.692 -6.257,-13.949 -13.947,-13.949 M -21,80.25 h -90.333 c -15.99,0 -29,-13.009 -29,-29 V 11.134 h -23.958 V 3.133 h 23.958 V -4 c 0,-2.209 1.791,-4 4,-4 h 49.856 c 3.282,-7.994 11.147,-13.642 20.311,-13.642 9.163,0 17.028,5.648 20.311,13.642 H 4 c 2.209,0 4,1.791 4,4 v 55.25 c 0,15.991 -13.009,29 -29,29" /></g></g></g></g></svg>