<?xml version="1.0" encoding="UTF-8" standalone="no"?>
<svg
   xmlns:dc="http://purl.org/dc/elements/1.1/"
   xmlns:cc="http://creativecommons.org/ns#"
   xmlns:rdf="http://www.w3.org/1999/02/22-rdf-syntax-ns#"
   xmlns:svg="http://www.w3.org/2000/svg"
   xmlns="http://www.w3.org/2000/svg"
   viewBox="0 0 105.43493 125.08067"
   height="125.08067"
   width="105.43493"
   xml:space="preserve"
   id="svg2"
   version="1.1"><metadata
     id="metadata8"><rdf:RDF><cc:Work
         rdf:about=""><dc:format>image/svg+xml</dc:format><dc:type
           rdf:resource="http://purl.org/dc/dcmitype/StillImage" /><dc:title></dc:title></cc:Work></rdf:RDF></metadata><defs
     id="defs6"><clipPath
       id="clipPath18"
       clipPathUnits="userSpaceOnUse"><path
         id="path16"
         d="M 0,93.811 H 79.076 V 0 H 0 Z" /></clipPath></defs><g
     transform="matrix(1.3333333,0,0,-1.3333333,0,125.08067)"
     id="g10"><g
       id="g12"><g
         clip-path="url(#clipPath18)"
         id="g14"><g
           transform="translate(26.3242,78.8647)"
           id="g20"><path
             id="path22"
             style="fill:#828c96;fill-opacity:1;fill-rule:nonzero;stroke:none"
             d="m 0,0 c -0.363,0.522 -0.817,0.857 -1.308,1.167 -0.74,0.452 -1.602,0.808 -2.494,1.088 -0.896,0.277 -1.624,0.474 -2.496,0.531 v -2.832 c 0.348,-0.02 0.428,-0.102 0.935,-0.236 0.634,-0.164 1.29,-0.41 1.792,-0.658 -0.828,-0.226 -1.993,-0.498 -3.323,-0.788 -0.125,-0.027 -0.265,-0.057 -0.393,-0.085 v 1.614 H -9.03 V 2.803 C -10.885,2.432 -12.81,2.048 -14.608,1.67 v -1.869 h -1.744 v -3.552 c -0.925,-0.209 -1.813,-0.416 -2.624,-0.62 -1.171,-0.295 -2.185,-0.578 -2.997,-0.866 -0.769,-0.28 -1.379,-0.567 -1.895,-0.959 -0.255,-0.198 -0.49,-0.43 -0.679,-0.722 -0.183,-0.29 -0.309,-0.653 -0.307,-1.021 -0.002,-0.432 0.165,-0.831 0.377,-1.125 0.193,-0.262 0.413,-0.461 0.639,-0.629 0.401,-0.292 0.828,-0.499 1.29,-0.678 0.694,-0.263 1.462,-0.46 2.279,-0.606 0.819,-0.143 1.395,-0.235 2.246,-0.264 v 2.835 c -1.14,0.038 -1.978,0.238 -2.829,0.502 0.037,0.012 0.065,0.024 0.105,0.038 0.816,0.295 2.207,0.668 3.831,1.05 2.439,0.578 5.442,1.193 8.18,1.772 1.373,0.287 2.676,0.567 3.825,0.828 1.147,0.263 2.13,0.505 2.893,0.734 0.595,0.183 1.106,0.399 1.566,0.762 0.225,0.181 0.434,0.408 0.589,0.683 0.153,0.274 0.237,0.593 0.237,0.894 C 0.374,-0.686 0.201,-0.298 0,0" /></g><g
           transform="translate(26.3242,69.2778)"
           id="g24"><path
             id="path26"
             style="fill:#828c96;fill-opacity:1;fill-rule:nonzero;stroke:none"
             d="m 0,0 c -0.363,0.522 -0.817,0.858 -1.308,1.167 -0.74,0.452 -1.602,0.807 -2.494,1.088 -0.896,0.277 -1.624,0.473 -2.496,0.531 v -2.832 c 0.348,-0.019 0.428,-0.104 0.935,-0.236 0.634,-0.164 1.29,-0.41 1.792,-0.658 -0.828,-0.227 -1.993,-0.498 -3.323,-0.789 -0.125,-0.027 -0.265,-0.057 -0.393,-0.084 V 3.07 C -7.487,3.027 -7.687,2.985 -7.89,2.942 -10.629,2.366 -13.632,1.748 -16.074,1.17 -16.171,1.148 -16.257,1.125 -16.352,1.103 v -4.855 c -0.925,-0.208 -1.813,-0.415 -2.624,-0.619 -1.171,-0.294 -2.185,-0.577 -2.997,-0.867 -0.769,-0.279 -1.379,-0.566 -1.895,-0.959 -0.255,-0.198 -0.49,-0.429 -0.679,-0.722 -0.183,-0.289 -0.309,-0.652 -0.307,-1.021 -0.002,-0.431 0.165,-0.831 0.377,-1.124 0.193,-0.261 0.413,-0.462 0.639,-0.629 0.401,-0.292 0.828,-0.497 1.29,-0.679 0.694,-0.263 1.462,-0.459 2.279,-0.604 0.819,-0.146 1.395,-0.238 2.246,-0.266 v 2.835 c -1.14,0.038 -1.978,0.239 -2.829,0.501 0.037,0.013 0.065,0.027 0.105,0.04 0.816,0.295 2.207,0.668 3.831,1.05 2.439,0.577 5.442,1.194 8.18,1.772 1.373,0.289 2.676,0.567 3.825,0.828 1.147,0.262 2.13,0.505 2.893,0.735 0.595,0.182 1.106,0.397 1.566,0.761 0.225,0.181 0.434,0.408 0.589,0.683 0.153,0.272 0.237,0.592 0.237,0.896 C 0.374,-0.686 0.201,-0.299 0,0" /></g><g
           transform="translate(9.4082,52.875)"
           id="g28"><path
             id="path30"
             style="fill:#828c96;fill-opacity:1;fill-rule:nonzero;stroke:none"
             d="m 0,0 c 2.439,0.578 5.442,1.195 8.18,1.771 1.373,0.289 2.676,0.568 3.825,0.829 1.147,0.262 2.13,0.504 2.893,0.735 0.595,0.181 1.106,0.398 1.566,0.761 0.225,0.182 0.434,0.408 0.589,0.683 0.153,0.273 0.237,0.593 0.237,0.894 0,0.457 -0.173,0.845 -0.374,1.143 -0.363,0.522 -0.817,0.859 -1.308,1.166 -0.74,0.453 -1.602,0.81 -2.494,1.089 -0.896,0.277 -1.624,0.472 -2.496,0.531 V 6.771 C 10.966,6.75 11.046,6.667 11.553,6.533 12.188,6.37 12.843,6.123 13.345,5.876 12.517,5.651 11.352,5.378 10.022,5.087 9.897,5.06 9.757,5.03 9.629,5.003 V 9.886 C 9.429,9.843 9.229,9.801 9.026,9.758 6.287,9.18 3.284,8.564 0.842,7.987 0.745,7.965 0.659,7.942 0.564,7.92 V 3.064 C -0.361,2.855 -1.249,2.648 -2.06,2.445 -3.231,2.15 -4.245,1.868 -5.057,1.578 -5.826,1.298 -6.436,1.012 -6.952,0.62 -7.207,0.421 -7.442,0.191 -7.631,-0.102 -7.814,-0.391 -7.94,-0.754 -7.938,-1.124 c -0.002,-0.432 0.165,-0.83 0.377,-1.124 0.193,-0.261 0.413,-0.461 0.639,-0.63 0.401,-0.291 0.828,-0.497 1.29,-0.676 0.694,-0.264 1.462,-0.461 2.279,-0.606 0.819,-0.145 1.395,-0.236 2.246,-0.265 v 2.835 c -1.14,0.037 -1.978,0.236 -2.829,0.501 0.037,0.013 0.065,0.026 0.105,0.04 C -3.015,-0.754 -1.624,-0.382 0,0" /></g><g
           transform="translate(1.2646,78.7588)"
           id="g32"><path
             id="path34"
             style="fill:#828c96;fill-opacity:1;fill-rule:nonzero;stroke:none"
             d="M 0,0 C 0.42,-0.293 0.868,-0.498 1.351,-0.677 2.078,-0.942 2.884,-1.138 3.742,-1.284 4.599,-1.429 5.207,-1.52 6.098,-1.549 V 1.287 C 4.903,1.323 4.023,1.523 3.131,1.788 3.167,1.8 3.199,1.814 3.237,1.827 c 0.861,0.294 2.318,0.668 4.02,1.05 2.562,0.577 5.71,1.194 8.58,1.772 1.441,0.288 2.809,0.566 4.012,0.828 1.206,0.262 2.232,0.504 3.037,0.734 0.621,0.182 1.157,0.398 1.637,0.762 0.24,0.182 0.458,0.408 0.62,0.683 0.16,0.273 0.251,0.592 0.247,0.894 0,0.458 -0.179,0.844 -0.39,1.143 -0.378,0.521 -0.858,0.857 -1.373,1.166 -0.775,0.452 -1.678,0.808 -2.616,1.088 -0.94,0.278 -1.703,0.473 -2.615,0.532 V 9.647 C 18.757,9.626 18.842,9.544 19.374,9.41 20.039,9.248 20.729,9.001 21.256,8.753 20.383,8.526 19.163,8.256 17.771,7.964 17.219,7.849 16.629,7.729 16.029,7.607 v 7.445 H 10.451 V 6.482 C 10.02,6.394 9.584,6.306 9.16,6.218 7.714,5.917 6.327,5.616 5.101,5.322 3.869,5.027 2.806,4.744 1.955,4.455 1.147,4.174 0.509,3.889 -0.032,3.497 -0.302,3.298 -0.549,3.067 -0.746,2.775 -0.938,2.484 -1.069,2.123 -1.067,1.753 -1.069,1.322 -0.896,0.923 -0.672,0.628 -0.471,0.368 -0.239,0.168 0,0" /></g><g
           transform="translate(68.9619,37.7178)"
           id="g36"><path
             id="path38"
             style="fill:#828c96;fill-opacity:1;fill-rule:nonzero;stroke:none"
             d="M 0,0 C -0.006,18.638 -5.03,34.147 -11.668,37.458 H -15.05 C -8.411,34.147 -3.387,18.638 -3.381,0 -3.387,-19.122 -8.677,-34.95 -15.572,-37.686 h 3.38 C -5.298,-34.95 -0.006,-19.122 0,0" /></g><g
           transform="translate(76.957,32.3853)"
           id="g40"><path
             id="path42"
             style="fill:#828c96;fill-opacity:1;fill-rule:nonzero;stroke:none"
             d="m 0,0 c -0.083,-0.353 -0.281,-0.513 -0.418,-0.62 -1.992,-2.359 -3.027,-3.506 -4.946,-5.559 0.122,0.978 0.226,1.974 0.315,2.988 1.146,1.344 2.191,2.765 3.351,4.096 C -1.612,1 -1.436,1.055 -1.311,1.087 -0.849,1.21 -0.106,1.038 0.016,0.281 0.012,0.187 0.008,0.093 0,0 m -1.562,-12.421 c -0.126,-0.301 -0.35,-0.437 -0.493,-0.527 -2.285,-1.994 -3.454,-2.938 -5.611,-4.605 0.237,0.79 0.461,1.606 0.67,2.447 1.312,1.123 2.53,2.339 3.845,3.458 0.1,0.083 0.279,0.127 0.41,0.155 0.475,0.104 1.195,-0.041 1.225,-0.689 -0.016,-0.08 -0.03,-0.159 -0.046,-0.239 m -3.019,-9.995 c -0.158,-0.224 -0.396,-0.325 -0.553,-0.393 -2.528,-1.479 -3.746,-2.112 -6.123,-3.265 0.323,0.532 0.637,1.099 0.941,1.697 1.806,1.009 2.859,1.672 2.974,1.744 1.366,0.864 1.366,0.864 1.686,0.918 0.509,0.081 1.192,-0.054 1.15,-0.521 -0.024,-0.059 -0.051,-0.12 -0.075,-0.18 m -4.041,-6.58 c -0.032,-0.034 -0.065,-0.067 -0.095,-0.1 -0.184,-0.125 -0.431,-0.178 -0.596,-0.215 -2.673,-0.783 -3.296,-0.911 -5.766,-1.372 0.386,0.206 0.767,0.452 1.138,0.74 1.919,0.489 2.314,0.687 2.437,0.727 1.467,0.487 1.467,0.487 1.79,0.519 0.519,0.046 1.186,-0.03 1.092,-0.299 m 0.126,59.757 c -0.259,0.728 -0.53,1.429 -0.814,2.1 1.877,2.54 1.877,2.54 2.231,2.598 0.423,0.071 1.225,-0.027 1.6,-0.455 0.028,-0.053 0.056,-0.108 0.084,-0.161 0.039,-0.207 -0.106,-0.301 -0.203,-0.364 -1.131,-1.394 -1.782,-2.237 -2.898,-3.718 m -1.397,9.741 c -0.978,-0.723 -1.499,-1.181 -2.48,-2.113 -0.339,0.453 -0.691,0.869 -1.049,1.247 1.461,1.303 1.672,1.321 1.938,1.341 0.364,0.028 1.223,-0.005 1.652,-0.213 0.034,-0.027 0.068,-0.053 0.101,-0.08 0.064,-0.101 -0.073,-0.149 -0.162,-0.182 m 6.201,-14.143 c 0.45,0.104 1.23,-0.061 1.529,-0.642 0.018,-0.076 0.036,-0.151 0.057,-0.226 0.005,-0.287 -0.156,-0.417 -0.262,-0.504 -1.157,-1.644 -2.307,-3.29 -3.456,-4.937 -0.152,0.934 -0.321,1.85 -0.501,2.742 2.333,3.5 2.333,3.5 2.633,3.567 m 2.034,-11.79 c 0.464,0.121 1.221,-0.079 1.436,-0.777 0.006,-0.09 0.017,-0.18 0.023,-0.272 -0.034,-0.344 -0.213,-0.499 -0.332,-0.605 -1.786,-2.512 -2.689,-3.759 -4.16,-5.774 -0.02,1.071 -0.056,2.129 -0.111,3.175 2.884,4.184 2.884,4.184 3.144,4.253 M 2.095,7.328 C 2.072,8.354 2.034,9.371 1.982,10.373 1.93,11.344 1.863,12.303 1.783,13.248 1.705,14.185 1.61,15.107 1.508,16.016 1.399,16.94 1.278,17.848 1.146,18.739 1.005,19.674 0.853,20.59 0.684,21.486 c -0.181,0.977 -0.38,1.931 -0.591,2.861 -0.245,1.069 -0.511,2.102 -0.796,3.1 -0.376,1.326 -0.788,2.585 -1.226,3.772 -1.779,4.797 -4.05,8.378 -6.598,10.207 -0.591,0.424 -1.198,0.752 -1.815,0.982 -0.48,0.178 -1.5,0.294 -1.994,0.349 -0.201,0.02 -0.406,0.033 -0.609,0.033 h -5.259 c 6.637,-3.31 11.665,-18.819 11.669,-37.457 -0.004,-19.122 -5.297,-34.951 -12.193,-37.687 h 6.314 c 6.763,0.01 12.448,11.965 14.068,28.144 0.147,1.463 0.262,2.961 0.34,4.488 0.061,1.226 0.101,2.471 0.114,3.732 0.008,0.401 0.011,0.802 0.011,1.205 0,0.71 -0.011,1.414 -0.024,2.113" /></g><g
           transform="translate(51.9453,9.9736)"
           id="g44"><path
             id="path46"
             style="fill:#828c96;fill-opacity:1;fill-rule:nonzero;stroke:none"
             d="M 0,0 C 0.025,0.057 0.05,0.117 0.072,0.175 0.225,0.414 0.688,0.684 1.254,0.717 1.638,0.74 1.812,0.657 1.983,0.577 2.859,-0.623 3.298,-1.186 3.898,-1.965 3.593,-2.563 3.279,-3.131 2.958,-3.662 -0.045,-0.301 -0.017,-0.105 0,0 m -0.368,56.936 c -0.069,0.026 -0.294,0.127 -0.45,0.321 -0.027,0.052 -0.053,0.106 -0.08,0.159 -0.057,0.214 0.166,0.444 0.709,0.474 0.361,0.019 0.621,-0.054 0.852,-0.119 1.86,-1.02 2.81,-1.608 4.244,-2.499 0.281,-0.67 0.553,-1.371 0.813,-2.1 -4.167,2.812 -6.076,3.759 -6.088,3.764 M -1.597,-8.445 c -0.3,0.156 -1.109,0.571 -1.862,1.154 -0.153,0.117 -0.348,0.287 -0.511,0.392 -0.032,0.021 -0.082,0.033 -0.116,0.055 -0.095,0.066 -0.064,0.133 -0.051,0.161 0.029,0.033 0.063,0.066 0.093,0.099 0.185,0.138 0.697,0.293 1.24,0.311 0.384,0.012 0.553,-0.037 0.715,-0.083 0.734,-0.676 1.09,-0.944 1.63,-1.349 -0.371,-0.288 -0.751,-0.534 -1.138,-0.74 m -7.43,16.244 c -1.398,0 -2.68,1.658 -3.688,4.415 h -2.461 c -0.084,-0.021 -0.169,-0.035 -0.253,-0.035 -0.949,0 -1.82,1.328 -2.5,3.537 0.507,-0.827 1.074,-1.298 1.674,-1.298 0.084,0 0.169,0.012 0.251,0.03 h 4.211 c 1.887,0.003 3.471,4.198 3.925,9.874 0.042,0.513 0.072,1.039 0.095,1.575 0.015,0.43 0.028,0.866 0.032,1.31 0.002,0.139 0.002,0.28 0.002,0.422 0,0.249 -0.002,0.496 -0.006,0.742 -0.007,0.359 -0.017,0.715 -0.032,1.068 -0.015,0.34 -0.033,0.677 -0.057,1.009 -0.02,0.328 -0.046,0.652 -0.074,0.97 -0.032,0.324 -0.065,0.643 -0.101,0.956 -0.04,0.327 -0.082,0.649 -0.131,0.963 -0.049,0.343 -0.104,0.678 -0.165,1.004 -0.068,0.375 -0.142,0.737 -0.22,1.088 -0.107,0.466 -0.219,0.907 -0.344,1.323 -0.494,1.684 -1.129,2.939 -1.841,3.581 -0.163,0.149 -0.334,0.264 -0.507,0.345 -0.133,0.062 -0.266,0.104 -0.405,0.122 -0.057,0.008 -0.115,0.012 -0.171,0.012 h -4.211 c -0.082,0.018 -0.167,0.03 -0.251,0.03 -0.619,0 -1.202,-0.502 -1.721,-1.378 0.687,2.306 1.575,3.704 2.547,3.704 0.084,0 0.169,-0.014 0.253,-0.035 h 2.496 c 1.002,2.702 2.271,4.328 3.653,4.328 3.237,0 5.862,-8.878 5.862,-19.831 0,-10.952 -2.625,-19.831 -5.862,-19.831 m 4.43,55.598 c 0.36,0.01 0.629,-0.025 0.865,-0.054 1.979,-0.48 2.992,-0.804 4.527,-1.296 0.356,-0.377 0.708,-0.794 1.05,-1.246 -4.318,1.66 -6.494,2.132 -6.51,2.137 -0.07,0.013 -0.31,0.063 -0.488,0.159 -0.034,0.026 -0.067,0.052 -0.099,0.078 -0.101,0.189 0.475,0.219 0.655,0.222 M 8.391,42.461 c -3.853,3.725 -5.511,4.995 -5.522,5 -0.059,0.036 -0.273,0.177 -0.397,0.444 -0.021,0.075 -0.038,0.151 -0.057,0.224 -0.021,0.294 0.243,0.629 0.784,0.67 0.365,0.029 0.615,-0.079 0.834,-0.173 1.7,-1.435 2.557,-2.226 3.855,-3.423 0.183,-0.891 0.349,-1.807 0.503,-2.742 M 9.523,29.553 c -3.377,4.355 -4.8,5.845 -4.806,5.849 -0.059,0.044 -0.25,0.21 -0.336,0.535 -0.01,0.088 -0.018,0.178 -0.023,0.266 0.019,0.355 0.332,0.759 0.879,0.809 0.369,0.035 0.591,-0.088 0.806,-0.207 1.497,-1.737 2.283,-2.719 3.372,-4.077 0.053,-1.046 0.091,-2.104 0.108,-3.175 m -0.67,-13.32 c -1.367,1.948 -2.8,3.853 -4.151,5.81 -0.042,0.061 -0.098,0.176 -0.122,0.373 0.004,0.093 0.01,0.184 0.014,0.276 0.07,0.37 0.444,0.789 0.995,0.84 0.376,0.035 0.583,-0.093 0.779,-0.215 C 7.559,21.595 8.304,20.493 9.166,19.22 9.078,18.207 8.974,17.21 8.853,16.233 M 6.552,4.859 C 3.017,9.775 3.017,9.775 3.017,9.995 c 0.015,0.077 0.032,0.156 0.046,0.233 0.116,0.317 0.541,0.677 1.099,0.72 0.378,0.03 0.568,-0.08 0.751,-0.185 C 6.091,8.989 6.091,8.989 7.219,7.305 7.008,6.465 6.784,5.649 6.552,4.859 m 5.606,22.885 C 12.151,46.382 7.124,61.892 0.487,65.202 h -7.561 c -0.296,0.05 -0.593,0 -0.895,0 -6.996,0 -12.784,-13.848 -13.78,-32.001 h 4.423 l 0.116,-0.006 c 0.199,-0.018 0.503,-0.129 0.76,-0.363 0.263,-0.235 0.486,-0.565 0.678,-1.03 0.376,-0.933 0.586,-4.189 -0.044,-5.754 0.044,2.305 -0.346,4.37 -1.586,5.039 -0.013,0.007 -15.506,-0.019 -15.506,-0.019 V 43.2 c -0.2,-0.043 -0.4,-0.085 -0.603,-0.128 -2.739,-0.576 -5.742,-1.194 -8.184,-1.77 -0.097,-0.023 -0.183,-0.045 -0.278,-0.068 V 31.068 h -9.972 V 23.24 h 30.136 c 0.805,-18.728 6.185,-32.342 13.675,-33.182 0.3,-0.034 0.764,-0.05 1.06,0 h 7.038 c 6.895,2.736 12.187,18.565 12.194,37.686" /></g></g></g></g></svg>