<?xml version="1.0" encoding="UTF-8" standalone="no"?>
<svg
   xmlns:dc="http://purl.org/dc/elements/1.1/"
   xmlns:cc="http://creativecommons.org/ns#"
   xmlns:rdf="http://www.w3.org/1999/02/22-rdf-syntax-ns#"
   xmlns:svg="http://www.w3.org/2000/svg"
   xmlns="http://www.w3.org/2000/svg"
   viewBox="0 0 148.82268 146.48801"
   height="146.48801"
   width="148.82268"
   xml:space="preserve"
   id="svg2"
   version="1.1"><metadata
     id="metadata8"><rdf:RDF><cc:Work
         rdf:about=""><dc:format>image/svg+xml</dc:format><dc:type
           rdf:resource="http://purl.org/dc/dcmitype/StillImage" /><dc:title></dc:title></cc:Work></rdf:RDF></metadata><defs
     id="defs6"><clipPath
       id="clipPath18"
       clipPathUnits="userSpaceOnUse"><path
         id="path16"
         d="M 0,109.866 H 111.617 V 0 H 0 Z" /></clipPath></defs><g
     transform="matrix(1.3333333,0,0,-1.3333333,0,146.488)"
     id="g10"><g
       id="g12"><g
         clip-path="url(#clipPath18)"
         id="g14"><g
           transform="translate(20.5996,74.9336)"
           id="g20"><path
             id="path22"
             style="fill:#828c96;fill-opacity:1;fill-rule:evenodd;stroke:none"
             d="m 0,0 55.648,32.127 -0.304,0.527 c -0.159,0.278 -0.064,0.631 0.212,0.789 L 58,34.855 c 0.274,0.159 0.63,0.065 0.789,-0.21 l 0.789,-1.368 8.401,-14.552 0.895,-1.549 2.309,-3.998 1.835,1.062 -2.308,3.996 8.736,5.045 c 0.034,0.276 0.194,0.535 0.452,0.686 l 3.046,1.758 c 0.439,0.254 1.005,0.101 1.257,-0.336 l 6.695,-11.596 c 0.252,-0.438 0.101,-1.004 -0.337,-1.258 L 87.514,10.777 C 87.255,10.629 86.95,10.619 86.693,10.729 L 76.12,4.625 79.131,-0.59 79.92,-1.957 c 0.159,-0.275 0.064,-0.629 -0.212,-0.789 l -2.443,-1.41 c -0.276,-0.16 -0.63,-0.065 -0.789,0.211 l -0.305,0.527 -55.649,-32.129 0.305,-0.527 c 0.159,-0.276 0.064,-0.631 -0.212,-0.789 l -2.444,-1.41 c -0.275,-0.161 -0.629,-0.067 -0.789,0.21 l -0.789,1.368 -5.552,9.615 -1.944,-1.121 c -0.439,-0.254 -1.004,-0.104 -1.257,0.336 l -0.735,1.271 -5.531,-3.193 C 0.89,-30.182 0.893,-30.475 1.032,-31.154 l 3.936,-19.182 c 1.599,-7.783 -1.829,-14.67 -8.64,-18.602 l -10.385,-5.996 c -3.413,0.079 -8.062,7.637 -6.059,10.496 l 10.426,6.02 c 2.341,1.352 3.283,2.818 2.863,5.531 l -3.966,19.328 c -1.139,5.547 1.139,11.284 6.132,14.166 l 3.87,2.235 1.603,-2.776 1.834,1.063 -1.601,2.773 -0.734,1.274 c -0.253,0.437 -0.102,1.004 0.337,1.256 l 1.944,1.123 -5.552,9.615 -0.789,1.367 c -0.16,0.277 -0.064,0.631 0.211,0.789 l 2.444,1.412 c 0.276,0.158 0.63,0.065 0.79,-0.213 z" /></g></g></g></g></svg>