<?xml version="1.0" encoding="UTF-8" standalone="no"?>
<svg
   xmlns:dc="http://purl.org/dc/elements/1.1/"
   xmlns:cc="http://creativecommons.org/ns#"
   xmlns:rdf="http://www.w3.org/1999/02/22-rdf-syntax-ns#"
   xmlns:svg="http://www.w3.org/2000/svg"
   xmlns="http://www.w3.org/2000/svg"
   viewBox="0 0 669.77734 571.94269"
   height="571.94269"
   width="669.77734"
   xml:space="preserve"
   id="svg2"
   version="1.1"><metadata
     id="metadata8"><rdf:RDF><cc:Work
         rdf:about=""><dc:format>image/svg+xml</dc:format><dc:type
           rdf:resource="http://purl.org/dc/dcmitype/StillImage" /><dc:title></dc:title></cc:Work></rdf:RDF></metadata><defs
     id="defs6"><clipPath
       id="clipPath18"
       clipPathUnits="userSpaceOnUse"><path
         id="path16"
         d="M 0,428.957 H 502.333 V 0 H 0 Z" /></clipPath></defs><g
     transform="matrix(1.3333333,0,0,-1.3333333,0,571.94267)"
     id="g10"><g
       id="g12"><g
         clip-path="url(#clipPath18)"
         id="g14"><g
           transform="translate(491.5225,357.168)"
           id="g20"><path
             id="path22"
             style="fill:#828c96;fill-opacity:1;fill-rule:nonzero;stroke:none"
             d="m 0,0 c -10.477,23.637 -28.043,41.894 -48.721,53.824 -20.713,12 -44.472,17.953 -68.559,17.965 -28.928,-0.012 -58.565,-8.649 -83.889,-26.707 -13.535,-9.645 -25.67,-22.113 -35.695,-37.078 -10.476,14.66 -23.085,26.871 -37.066,36.269 -26.274,17.684 -56.765,26.133 -86.554,26.156 -32.631,-0.023 -64.857,-10.125 -89.777,-31.125 -12.422,-10.476 -22.875,-23.73 -30.093,-39.386 -7.237,-15.633 -11.186,-33.574 -11.168,-53.05 0.017,-19.196 4.306,-38.075 11.302,-56.379 12.311,-32.004 32.818,-62.519 56.373,-90.972 35.355,-42.609 77.865,-80.473 111.679,-108.011 33.802,-27.504 58.916,-44.543 59.309,-44.824 7.558,-5.133 17.413,-5.133 24.989,0 0.598,0.433 58.564,39.726 117.322,95.8 29.407,28.066 59.027,60.304 81.878,94.71 11.402,17.215 21.152,34.992 28.172,53.297 6.996,18.304 11.297,37.183 11.309,56.379 C 10.811,-33.656 7.002,-15.703 0,0" /></g></g></g></g></svg>