<?xml version="1.0" encoding="UTF-8" standalone="no"?>
<svg
   xmlns:dc="http://purl.org/dc/elements/1.1/"
   xmlns:cc="http://creativecommons.org/ns#"
   xmlns:rdf="http://www.w3.org/1999/02/22-rdf-syntax-ns#"
   xmlns:svg="http://www.w3.org/2000/svg"
   xmlns="http://www.w3.org/2000/svg"
   viewBox="0 0 12.89844 9.0917997"
   height="9.0917997"
   width="12.89844"
   xml:space="preserve"
   id="svg2"
   version="1.1"><metadata
     id="metadata8"><rdf:RDF><cc:Work
         rdf:about=""><dc:format>image/svg+xml</dc:format><dc:type
           rdf:resource="http://purl.org/dc/dcmitype/StillImage" /><dc:title></dc:title></cc:Work></rdf:RDF></metadata><defs
     id="defs6"><clipPath
       id="clipPath18"
       clipPathUnits="userSpaceOnUse"><path
         id="path16"
         d="M 0,6.819 H 9.674 V 0 H 0 Z" /></clipPath></defs><g
     transform="matrix(1.3333333,0,0,-1.3333333,0,9.0918)"
     id="g10"><g
       id="g12"><g
         clip-path="url(#clipPath18)"
         id="g14"><g
           transform="translate(2.3511,6.6733)"
           id="g20"><path
             id="path22"
             style="fill:#828c96;fill-opacity:1;fill-rule:evenodd;stroke:none"
             d="M 0,0 C 0.453,0.067 0.906,0.115 1.359,0.144 1.523,0.154 1.67,0.074 1.75,-0.07 1.831,-0.213 1.822,-0.38 1.727,-0.514 1.628,-0.655 1.571,-0.826 1.571,-1.01 c 0,-0.476 0.386,-0.862 0.862,-0.862 0.476,0 0.862,0.386 0.862,0.862 0,0.143 -0.035,0.278 -0.096,0.396 C 3.16,-0.538 3.127,-0.455 3.107,-0.369 3.076,-0.236 3.106,-0.108 3.194,-0.003 3.281,0.101 3.402,0.153 3.539,0.145 4.038,0.116 4.537,0.066 5.037,0 5.297,-0.035 5.557,-0.219 5.515,-0.479 5.428,-1.011 5.363,-1.544 5.323,-2.077 5.31,-2.241 5.387,-2.388 5.53,-2.471 c 0.142,-0.082 0.309,-0.076 0.445,0.017 0.139,0.095 0.306,0.15 0.485,0.15 0.477,0 0.863,-0.386 0.863,-0.862 0,-0.477 -0.386,-0.862 -0.863,-0.862 -0.142,0 -0.277,0.034 -0.395,0.096 C 5.961,-3.879 5.852,-3.849 5.741,-3.843 5.617,-3.837 5.508,-3.879 5.421,-3.967 5.335,-4.055 5.294,-4.164 5.301,-4.287 5.337,-4.866 5.407,-5.445 5.515,-6.025 5.563,-6.283 5.295,-6.459 5.037,-6.503 4.623,-6.574 4.207,-6.627 3.788,-6.662 3.632,-6.675 3.492,-6.607 3.405,-6.477 3.318,-6.346 3.31,-6.191 3.382,-6.052 c 0.06,0.116 0.083,0.258 0.083,0.398 0,0.477 -0.385,0.862 -0.861,0.862 -0.477,0 -0.863,-0.385 -0.863,-0.862 0,-0.142 0.035,-0.277 0.096,-0.396 C 1.842,-6.058 1.846,-6.067 1.85,-6.076 1.916,-6.214 1.904,-6.365 1.818,-6.491 1.732,-6.618 1.596,-6.684 1.443,-6.672 0.965,-6.638 0.484,-6.582 0,-6.503 c -0.26,0.042 -0.51,0.217 -0.479,0.478 0.065,0.539 0.11,1.077 0.136,1.615 0.008,0.163 -0.073,0.306 -0.215,0.386 -0.143,0.079 -0.307,0.071 -0.441,-0.022 -0.139,-0.097 -0.308,-0.153 -0.49,-0.153 -0.476,0 -0.862,0.386 -0.862,0.862 0,0.476 0.386,0.862 0.862,0.862 0.143,0 0.278,-0.034 0.396,-0.096 0.091,-0.047 0.192,-0.075 0.295,-0.084 0.125,-0.012 0.236,0.028 0.327,0.114 0.091,0.086 0.135,0.196 0.129,0.321 -0.026,0.581 -0.073,1.161 -0.137,1.741 C -0.508,-0.217 -0.26,-0.039 0,0" /></g></g></g></g></svg>