<?xml version="1.0" encoding="UTF-8" standalone="no"?>
<svg
   xmlns:dc="http://purl.org/dc/elements/1.1/"
   xmlns:cc="http://creativecommons.org/ns#"
   xmlns:rdf="http://www.w3.org/1999/02/22-rdf-syntax-ns#"
   xmlns:svg="http://www.w3.org/2000/svg"
   xmlns="http://www.w3.org/2000/svg"
   viewBox="0 0 10.111973 10.11068"
   height="10.11068"
   width="10.111973"
   xml:space="preserve"
   id="svg2"
   version="1.1"><metadata
     id="metadata8"><rdf:RDF><cc:Work
         rdf:about=""><dc:format>image/svg+xml</dc:format><dc:type
           rdf:resource="http://purl.org/dc/dcmitype/StillImage" /><dc:title></dc:title></cc:Work></rdf:RDF></metadata><defs
     id="defs6"><clipPath
       id="clipPath18"
       clipPathUnits="userSpaceOnUse"><path
         id="path16"
         d="M 0,7.583 H 7.584 V 0 H 0 Z" /></clipPath></defs><g
     transform="matrix(1.3333333,0,0,-1.3333333,0,10.11068)"
     id="g10"><g
       id="g12"><g
         clip-path="url(#clipPath18)"
         id="g14"><g
           transform="translate(3.792,5.9717)"
           id="g20"><path
             id="path22"
             style="fill:#828c96;fill-opacity:1;fill-rule:evenodd;stroke:none"
             d="m 0,0 c -1.204,0 -2.181,-0.976 -2.181,-2.18 0,-1.205 0.977,-2.18 2.181,-2.18 1.204,0 2.181,0.975 2.181,2.18 C 2.181,-0.976 1.204,0 0,0 m 0,-1.4 c -0.431,0 -0.779,-0.35 -0.779,-0.78 0,-0.431 0.348,-0.78 0.779,-0.78 0.431,0 0.779,0.349 0.779,0.78 0,0.43 -0.348,0.78 -0.779,0.78 m 0,-2.436 c 0.914,0 1.655,0.741 1.655,1.656 0,0.914 -0.741,1.655 -1.655,1.655 -0.914,0 -1.655,-0.741 -1.655,-1.655 0,-0.915 0.741,-1.656 1.655,-1.656 M 0.907,0.698 1.393,0.497 2.244,0.937 C 2.536,0.646 2.826,0.355 3.117,0.064 l -0.439,-0.852 0.2,-0.485 0.914,-0.291 V -2.796 L 2.878,-3.088 2.678,-3.573 3.117,-4.425 C 2.826,-4.716 2.535,-5.007 2.244,-5.298 L 1.393,-4.858 0.907,-5.059 0.616,-5.972 h -1.232 l -0.292,0.913 -0.485,0.201 -0.852,-0.44 c -0.291,0.291 -0.581,0.582 -0.872,0.873 l 0.439,0.852 -0.201,0.485 -0.913,0.292 v 1.232 l 0.913,0.291 0.201,0.485 -0.439,0.852 c 0.291,0.291 0.581,0.582 0.872,0.873 l 0.852,-0.44 0.485,0.201 0.292,0.913 h 1.232 z" /></g></g></g></g></svg>