<?xml version="1.0" encoding="UTF-8" standalone="no"?>
<svg
   xmlns:dc="http://purl.org/dc/elements/1.1/"
   xmlns:cc="http://creativecommons.org/ns#"
   xmlns:rdf="http://www.w3.org/1999/02/22-rdf-syntax-ns#"
   xmlns:svg="http://www.w3.org/2000/svg"
   xmlns="http://www.w3.org/2000/svg"
   viewBox="0 0 98.268265 100.05213"
   height="100.05213"
   width="98.268265"
   xml:space="preserve"
   id="svg2"
   version="1.1"><metadata
     id="metadata8"><rdf:RDF><cc:Work
         rdf:about=""><dc:format>image/svg+xml</dc:format><dc:type
           rdf:resource="http://purl.org/dc/dcmitype/StillImage" /><dc:title></dc:title></cc:Work></rdf:RDF></metadata><defs
     id="defs6"><clipPath
       id="clipPath18"
       clipPathUnits="userSpaceOnUse"><path
         id="path16"
         d="M 0,75.039 H 73.701 V 0 H 0 Z" /></clipPath></defs><g
     transform="matrix(1.3333333,0,0,-1.3333333,0,100.05213)"
     id="g10"><g
       id="g12"><g
         clip-path="url(#clipPath18)"
         id="g14"><g
           transform="translate(67.9834,46.8682)"
           id="g20"><path
             id="path22"
             style="fill:#828c96;fill-opacity:1;fill-rule:nonzero;stroke:none"
             d="M 0,0 C -0.495,-0.577 -1.365,-0.642 -1.941,-0.146 -2.518,0.352 -2.583,1.221 -2.088,1.798 -1.59,2.374 -0.721,2.439 -0.146,1.943 0.434,1.446 0.496,0.576 0,0 m -0.95,-24.499 c -0.759,-0.058 -1.421,0.511 -1.478,1.27 -0.054,0.758 0.513,1.42 1.273,1.477 0.758,0.055 1.419,-0.512 1.474,-1.272 0.058,-0.759 -0.511,-1.419 -1.269,-1.475 m -2.187,6.698 c -0.055,0.759 0.512,1.421 1.271,1.476 0.758,0.057 1.418,-0.51 1.477,-1.27 0.056,-0.758 -0.512,-1.419 -1.27,-1.476 -0.759,-0.056 -1.422,0.511 -1.478,1.27 m -1.58,4.822 c -0.055,0.758 0.513,1.42 1.271,1.476 0.759,0.058 1.421,-0.511 1.476,-1.27 0.06,-0.759 -0.51,-1.418 -1.269,-1.477 -0.759,-0.055 -1.42,0.513 -1.478,1.271 m -0.835,3.386 c -0.757,-0.056 -1.419,0.513 -1.474,1.271 -0.059,0.758 0.51,1.42 1.27,1.477 0.757,0.057 1.419,-0.512 1.477,-1.27 0.056,-0.759 -0.514,-1.419 -1.273,-1.478 M -8.865,5.629 c -0.498,-0.575 -1.367,-0.64 -1.944,-0.145 -0.577,0.495 -0.64,1.366 -0.144,1.942 0.496,0.577 1.363,0.644 1.941,0.146 0.578,-0.496 0.641,-1.365 0.147,-1.943 m -0.852,-32.841 c -0.495,-0.577 -1.365,-0.642 -1.943,-0.146 -0.574,0.496 -0.642,1.365 -0.145,1.943 0.497,0.576 1.367,0.641 1.944,0.146 0.575,-0.496 0.641,-1.366 0.144,-1.943 m -1.66,-4.929 c -0.495,-0.575 -1.364,-0.64 -1.942,-0.146 -0.577,0.498 -0.641,1.368 -0.146,1.945 0.497,0.575 1.367,0.64 1.942,0.143 0.577,-0.495 0.644,-1.365 0.146,-1.942 m -2.292,-4.526 c -0.495,-0.576 -1.367,-0.64 -1.942,-0.144 -0.575,0.496 -0.641,1.366 -0.147,1.941 0.497,0.577 1.366,0.642 1.944,0.146 0.575,-0.495 0.642,-1.364 0.145,-1.943 m -3.336,-4.339 c -0.499,-0.577 -1.365,-0.641 -1.941,-0.146 -0.578,0.496 -0.642,1.366 -0.147,1.944 0.498,0.575 1.365,0.642 1.942,0.145 0.577,-0.498 0.642,-1.365 0.146,-1.943 m -10.057,4.134 c -0.76,-0.057 -1.42,0.513 -1.479,1.272 -0.055,0.758 0.513,1.42 1.272,1.476 0.757,0.058 1.42,-0.513 1.477,-1.27 0.058,-0.758 -0.513,-1.42 -1.27,-1.478 m -3.095,5.335 c -5.635,0.029 -10.749,2.349 -14.418,6.061 -3.649,3.684 -5.91,8.78 -5.91,14.368 v 0.114 c 0.028,5.636 2.35,10.751 6.062,14.42 3.684,3.649 8.779,5.909 14.368,5.909 h 0.115 c 5.633,-0.028 10.749,-2.349 14.419,-6.062 3.648,-3.683 5.908,-8.777 5.908,-14.367 v -0.115 c -0.028,-5.633 -2.35,-10.75 -6.063,-14.419 -3.683,-3.649 -8.78,-5.909 -14.37,-5.909 z m -1.565,-7.645 c -0.759,-0.055 -1.419,0.513 -1.476,1.272 -0.055,0.758 0.512,1.42 1.27,1.476 0.758,0.057 1.419,-0.512 1.476,-1.271 0.057,-0.758 -0.509,-1.42 -1.27,-1.477 m -4.822,-1.579 c -0.757,-0.056 -1.418,0.512 -1.475,1.27 -0.055,0.758 0.512,1.422 1.272,1.476 0.756,0.057 1.418,-0.511 1.474,-1.269 0.059,-0.759 -0.509,-1.42 -1.271,-1.477 m -5.427,-0.709 c -0.759,-0.057 -1.42,0.512 -1.475,1.27 -0.059,0.759 0.51,1.419 1.27,1.477 0.759,0.056 1.419,-0.512 1.475,-1.27 0.055,-0.76 -0.512,-1.42 -1.27,-1.477 m -2.246,10.18 c -0.499,-0.576 -1.364,-0.641 -1.943,-0.143 -0.576,0.496 -0.641,1.364 -0.146,1.942 0.497,0.576 1.367,0.642 1.943,0.147 0.578,-0.497 0.641,-1.367 0.146,-1.946 m -4.93,1.662 c -0.495,-0.577 -1.364,-0.643 -1.941,-0.145 -0.578,0.496 -0.641,1.362 -0.146,1.941 0.497,0.577 1.367,0.641 1.942,0.146 0.577,-0.496 0.642,-1.365 0.145,-1.942 m -5.198,14.271 c -0.755,-0.056 -1.419,0.511 -1.475,1.273 -0.056,0.757 0.515,1.417 1.272,1.475 0.759,0.056 1.419,-0.511 1.476,-1.269 0.056,-0.761 -0.512,-1.422 -1.273,-1.479 m 0.672,-11.98 c -0.494,-0.574 -1.364,-0.641 -1.941,-0.143 -0.574,0.495 -0.642,1.365 -0.146,1.941 0.495,0.576 1.369,0.642 1.943,0.145 0.578,-0.496 0.641,-1.366 0.144,-1.943 m -2.98,16.638 c -0.759,-0.058 -1.419,0.511 -1.476,1.271 -0.058,0.758 0.511,1.417 1.271,1.477 0.759,0.055 1.418,-0.514 1.475,-1.272 0.057,-0.758 -0.512,-1.419 -1.27,-1.476 m -1.36,-13.302 c -0.496,-0.575 -1.363,-0.642 -1.94,-0.144 -0.576,0.497 -0.643,1.365 -0.146,1.942 0.495,0.577 1.365,0.641 1.941,0.146 0.578,-0.497 0.641,-1.367 0.145,-1.944 m 34.459,42.56 c 0.758,0.056 1.419,-0.514 1.475,-1.272 0.058,-0.758 -0.511,-1.42 -1.272,-1.475 -0.756,-0.059 -1.418,0.511 -1.475,1.27 -0.057,0.758 0.513,1.419 1.272,1.477 m 5.426,0.709 c 0.76,0.056 1.421,-0.512 1.477,-1.271 0.057,-0.759 -0.511,-1.419 -1.27,-1.476 -0.76,-0.056 -1.421,0.513 -1.476,1.27 -0.055,0.761 0.51,1.421 1.269,1.477 m 2.245,-10.182 c 0.498,0.576 1.368,0.643 1.945,0.145 0.577,-0.496 0.641,-1.365 0.145,-1.943 -0.496,-0.577 -1.367,-0.641 -1.942,-0.146 -0.578,0.498 -0.642,1.368 -0.148,1.944 M -6.428,5.134 C -5.932,5.71 -5.061,5.776 -4.484,5.28 -3.908,4.784 -3.843,3.914 -4.339,3.338 -4.835,2.761 -5.707,2.695 -6.28,3.192 -6.855,3.688 -6.922,4.557 -6.428,5.134 m 2.952,7.701 c -5.448,6.056 -12.989,10.259 -21.539,11.467 -0.245,-1.455 -0.657,-3.839 -1.249,-7.215 -0.143,-0.81 -0.597,-1.516 -1.319,-2.045 -0.729,-0.535 -1.676,-0.837 -2.472,-0.79 -5.373,0.325 -10.798,-1.294 -15.278,-4.558 -4.441,-3.288 -7.608,-7.981 -8.906,-13.205 -0.194,-0.774 -0.763,-1.587 -1.493,-2.122 -0.721,-0.529 -1.532,-0.753 -2.344,-0.647 -3.403,0.446 -5.803,0.765 -7.265,0.967 -0.209,-1.286 -0.356,-2.592 -0.426,-3.922 -0.515,-9.851 3.023,-19.013 9.144,-25.801 6.113,-6.795 14.857,-11.269 24.708,-11.782 9.851,-0.516 19.014,3.022 25.802,9.142 6.795,6.114 11.267,14.858 11.781,24.709 0.516,9.85 -3.021,19.013 -9.144,25.802" /></g><g
           transform="translate(50.3691,36.9321)"
           id="g24"><path
             id="path26"
             style="fill:#828c96;fill-opacity:1;fill-rule:nonzero;stroke:none"
             d="M 0,0 C -1.182,0 -2.14,0.957 -2.14,2.138 -2.14,3.32 -1.182,4.277 0,4.277 1.181,4.277 2.137,3.32 2.137,2.138 2.137,0.957 1.181,0 0,0 m -4.678,-13.725 c -1.178,0 -2.136,0.957 -2.136,2.137 0,1.181 0.958,2.139 2.136,2.139 1.182,0 2.139,-0.958 2.139,-2.139 0,-1.18 -0.957,-2.137 -2.139,-2.137 m -7.757,4.621 c -2.19,0 -4.178,0.89 -5.615,2.325 -1.433,1.434 -2.325,3.425 -2.324,5.614 -0.001,2.189 0.891,4.179 2.324,5.614 1.437,1.435 3.425,2.325 5.615,2.324 2.191,0.001 4.18,-0.889 5.615,-2.324 1.436,-1.435 2.326,-3.425 2.326,-5.614 0,-2.189 -0.89,-4.18 -2.326,-5.614 -1.435,-1.435 -3.424,-2.325 -5.615,-2.325 m -7.756,-4.621 c -1.182,0 -2.14,0.957 -2.14,2.137 0,1.181 0.958,2.139 2.14,2.139 1.18,0 2.137,-0.958 2.137,-2.139 0,-1.18 -0.957,-2.137 -2.137,-2.137 M -24.868,0 c -1.18,0 -2.138,0.957 -2.138,2.138 0,1.182 0.958,2.139 2.138,2.139 1.181,0 2.139,-0.957 2.139,-2.139 C -22.729,0.957 -23.687,0 -24.868,0 m 12.435,13.822 c 1.182,0 2.137,-0.957 2.137,-2.138 0,-1.181 -0.955,-2.138 -2.137,-2.138 -1.184,0 -2.14,0.957 -2.14,2.138 0,1.181 0.956,2.138 2.14,2.138 M 5.889,-1.158 c 0,5.015 -2.026,9.575 -5.298,12.881 v 10e-4 c -3.294,3.33 -7.873,5.409 -12.929,5.434 l -0.102,10e-4 c -5.014,-10e-4 -9.576,-2.025 -12.882,-5.299 -3.331,-3.294 -5.41,-7.872 -5.437,-12.929 v -0.103 c 0,-5.013 2.027,-9.575 5.3,-12.881 3.294,-3.331 7.871,-5.409 12.926,-5.435 l 0.101,-0.001 c 5.016,0.001 9.578,2.025 12.885,5.299 3.33,3.294 5.409,7.874 5.436,12.928 z" /></g><g
           transform="translate(8.1943,46.6587)"
           id="g28"><path
             id="path30"
             style="fill:#828c96;fill-opacity:1;fill-rule:nonzero;stroke:none"
             d="m 0,0 c -0.902,-0.663 -2.169,-0.468 -2.83,0.432 -0.662,0.901 -0.469,2.167 0.435,2.83 0.902,0.662 2.166,0.467 2.829,-0.435 C 1.094,1.928 0.902,0.663 0,0 m 25.852,24.008 c 0.903,0.663 2.166,0.468 2.829,-0.434 0.661,-0.9 0.468,-2.164 -0.435,-2.827 -0.901,-0.663 -2.167,-0.468 -2.828,0.432 -0.661,0.9 -0.469,2.167 0.434,2.829 M 3.675,-2.835 c 1.357,5.464 4.651,10.604 9.644,14.3 5.02,3.659 10.911,5.265 16.531,4.925 0.513,-0.03 1.625,0.403 1.771,1.239 0.452,2.57 1.385,7.901 1.495,8.727 0.147,1.096 -1.002,1.833 -1.371,1.868 -5.019,0.467 -9.987,-0.109 -14.797,-1.757 -1.076,-0.223 -2.166,-0.122 -3.163,1.409 -0.385,0.522 -1.326,0.447 -1.759,0.255 C 10.078,27.267 8.172,26.239 6.33,25.049 l -0.01,0.01 C 6.26,25.019 6.202,24.974 6.14,24.934 6.113,24.916 6.086,24.896 6.06,24.878 5.51,24.515 4.962,24.146 4.426,23.753 4.396,23.732 4.371,23.709 4.342,23.689 4.314,23.667 4.283,23.649 4.256,23.627 3.72,23.233 3.204,22.821 2.692,22.406 2.668,22.386 2.64,22.367 2.616,22.345 2.56,22.299 2.499,22.256 2.442,22.21 L 2.449,22.2 C 0.763,20.797 -0.79,19.287 -2.196,17.685 -2.509,17.33 -2.861,16.456 -2.478,15.931 c 1.16,-1.41 0.933,-2.48 0.398,-3.441 -3.012,-4.094 -5.048,-8.664 -6.104,-13.593 -0.079,-0.363 0.284,-1.678 1.372,-1.866 0.821,-0.142 6.188,-0.847 8.772,-1.186 0.844,-0.109 1.591,0.822 1.715,1.32" /></g></g></g></g></svg>