<?xml version="1.0" encoding="UTF-8" standalone="no"?>
<svg
   xmlns:dc="http://purl.org/dc/elements/1.1/"
   xmlns:cc="http://creativecommons.org/ns#"
   xmlns:rdf="http://www.w3.org/1999/02/22-rdf-syntax-ns#"
   xmlns:svg="http://www.w3.org/2000/svg"
   xmlns="http://www.w3.org/2000/svg"
   viewBox="0 0 821.6507 419.46667"
   height="419.46667"
   width="821.6507"
   xml:space="preserve"
   id="svg2"
   version="1.1"><metadata
     id="metadata8"><rdf:RDF><cc:Work
         rdf:about=""><dc:format>image/svg+xml</dc:format><dc:type
           rdf:resource="http://purl.org/dc/dcmitype/StillImage" /><dc:title></dc:title></cc:Work></rdf:RDF></metadata><defs
     id="defs6"><clipPath
       id="clipPath18"
       clipPathUnits="userSpaceOnUse"><path
         id="path16"
         d="M 0,314.6 H 616.238 V 0 H 0 Z" /></clipPath></defs><g
     transform="matrix(1.3333333,0,0,-1.3333333,0,419.46667)"
     id="g10"><g
       id="g12"><g
         clip-path="url(#clipPath18)"
         id="g14"><g
           transform="translate(538.4883,251.2671)"
           id="g20"><path
             id="path22"
             style="fill:#828c96;fill-opacity:1;fill-rule:evenodd;stroke:none"
             d="m 0,0 c 0,0 -1.812,3.485 -3.462,6.308 -1.481,2.82 -11.092,2.352 -11.092,2.352 0,0 -25.353,-1.082 -32.315,-2.054 -6.961,-0.974 -5.327,-8.601 -5.327,-8.601 l 3.091,-18.567 -7.64,-5.775 c -1.323,0.998 -1.983,1.664 -1.983,1.664 l -30.929,72.002 c -26.796,15.159 -125.045,15.459 -137.968,15.497 -13.089,0.04 -111.34,0.339 -138.227,-14.658 l -31.367,-71.814 c 0,0 -0.499,-0.66 -1.826,-1.651 l -7.771,5.823 3.371,18.547 c 0,0 1.679,7.617 -5.442,8.633 -6.957,1.016 -32.301,2.251 -32.301,2.251 0,0 -9.443,0.525 -11.109,-2.286 -1.666,-2.811 -3.332,-6.285 -3.332,-6.285 0,0 -2.996,-4.298 4.286,-7.303 7.114,-2.838 32.265,-13.851 32.265,-13.851 0,0 7.105,-7.146 5.924,-13.936 -2.157,-0.987 -4.479,-1.974 -7.136,-2.795 -15.423,-5.255 -26.128,-38.857 -26.253,-79.948 l -0.144,-46.942 c 226.312,26.721 370.823,89.911 422.215,115.614 -3.326,5.149 -7.116,8.665 -11.265,10.107 -2.484,0.838 -4.965,1.837 -7.116,2.838 -0.974,6.797 6.171,13.9 6.171,13.9 0,0 25.218,10.858 32.352,13.655 C 2.802,-4.315 0,0 0,0" /></g><g
           transform="translate(538.4883,251.2671)"
           id="g24"><path
             id="path26"
             style="fill:none;stroke:#ffffff;stroke-width:1;stroke-linecap:butt;stroke-linejoin:miter;stroke-miterlimit:10;stroke-dasharray:none;stroke-opacity:1"
             d="m 0,0 c 0,0 -1.812,3.485 -3.462,6.308 -1.481,2.82 -11.092,2.352 -11.092,2.352 0,0 -25.353,-1.082 -32.315,-2.054 -6.961,-0.974 -5.327,-8.601 -5.327,-8.601 l 3.091,-18.567 -7.64,-5.775 c -1.323,0.998 -1.983,1.664 -1.983,1.664 l -30.929,72.002 c -26.796,15.159 -125.045,15.459 -137.968,15.497 -13.089,0.04 -111.34,0.339 -138.227,-14.658 l -31.367,-71.814 c 0,0 -0.499,-0.66 -1.826,-1.651 l -7.771,5.823 3.371,18.547 c 0,0 1.679,7.617 -5.442,8.633 -6.957,1.016 -32.301,2.251 -32.301,2.251 0,0 -9.443,0.525 -11.109,-2.286 -1.666,-2.811 -3.332,-6.285 -3.332,-6.285 0,0 -2.996,-4.298 4.286,-7.303 7.114,-2.838 32.265,-13.851 32.265,-13.851 0,0 7.105,-7.146 5.924,-13.936 -2.157,-0.987 -4.479,-1.974 -7.136,-2.795 -15.423,-5.255 -26.128,-38.857 -26.253,-79.948 l -0.144,-46.942 c 226.312,26.721 370.823,89.911 422.215,115.614 -3.326,5.149 -7.116,8.665 -11.265,10.107 -2.484,0.838 -4.965,1.837 -7.116,2.838 -0.974,6.797 6.171,13.9 6.171,13.9 0,0 25.218,10.858 32.352,13.655 C 2.802,-4.315 0,0 0,0 Z" /></g><g
           transform="translate(91.7119,58.2954)"
           id="g28"><path
             id="path30"
             style="fill:#828c96;fill-opacity:1;fill-rule:evenodd;stroke:none"
             d="M 0,0 -0.021,-6.815 -0.186,-6.98 c 0,0 121.06,-18.098 127.369,-14.141 6.307,4.123 17.101,12.208 27.72,16.981 l 126.746,-0.384 c 10.591,-4.837 21.336,-12.989 27.618,-17.15 6.118,-3.996 127.288,13.366 127.288,13.366 0,0 0.129,42.579 0.254,83.505 0.054,17.465 -1.819,33.576 -5.166,46.755 C 374.213,92.286 225.647,26.198 0,0" /></g><g
           transform="translate(91.7119,58.2954)"
           id="g32"><path
             id="path34"
             style="fill:none;stroke:#ffffff;stroke-width:1;stroke-linecap:butt;stroke-linejoin:miter;stroke-miterlimit:10;stroke-dasharray:none;stroke-opacity:1"
             d="M 0,0 -0.021,-6.815 -0.186,-6.98 c 0,0 121.06,-18.098 127.369,-14.141 6.307,4.123 17.101,12.208 27.72,16.981 l 126.746,-0.384 c 10.591,-4.837 21.336,-12.989 27.618,-17.15 6.118,-3.996 127.288,13.366 127.288,13.366 0,0 0.129,42.579 0.254,83.505 0.054,17.465 -1.819,33.576 -5.166,46.755 C 374.213,92.286 225.647,26.198 0,0 Z" /></g><g
           transform="translate(431.2222,57.5718)"
           id="g36"><path
             id="path38"
             style="fill:#828c96;fill-opacity:1;fill-rule:evenodd;stroke:none"
             d="m 0,0 79.363,-0.241 c 6.462,-0.019 11.747,-5.338 11.728,-11.8 -0.093,-30.651 0.054,17.563 -0.101,-33.302 -0.021,-6.461 -5.338,-11.748 -11.799,-11.729 l -79.363,0.241 c -6.463,0.02 -11.749,5.338 -11.728,11.8 l 0.1,33.302 C -11.78,-5.267 -6.462,0.021 0,0" /></g><g
           transform="translate(431.2222,57.5718)"
           id="g40"><path
             id="path42"
             style="fill:none;stroke:#ffffff;stroke-width:1;stroke-linecap:butt;stroke-linejoin:miter;stroke-miterlimit:10;stroke-dasharray:none;stroke-opacity:1"
             d="m 0,0 79.363,-0.241 c 6.462,-0.019 11.747,-5.338 11.728,-11.8 -0.093,-30.651 0.054,17.563 -0.101,-33.302 -0.021,-6.461 -5.338,-11.748 -11.799,-11.729 l -79.363,0.241 c -6.463,0.02 -11.749,5.338 -11.728,11.8 l 0.1,33.302 C -11.78,-5.267 -6.462,0.021 0,0 Z" /></g><g
           transform="translate(108.3062,58.5542)"
           id="g44"><path
             id="path46"
             style="fill:#828c96;fill-opacity:1;fill-rule:evenodd;stroke:none"
             d="m 0,0 79.527,-0.242 c 6.462,-0.02 11.749,-5.338 11.728,-11.8 l -0.101,-33.303 c -0.018,-6.462 -5.338,-11.748 -11.8,-11.728 l -79.527,0.242 c -6.461,0.019 -11.745,5.338 -11.727,11.799 0.155,51.199 0.008,2.652 0.101,33.303 C -11.779,-5.267 -6.46,0.02 0,0" /></g><g
           transform="translate(108.3062,58.5542)"
           id="g48"><path
             id="path50"
             style="fill:none;stroke:#ffffff;stroke-width:0.75;stroke-linecap:square;stroke-linejoin:miter;stroke-miterlimit:10;stroke-dasharray:none;stroke-opacity:1"
             d="m 0,0 79.527,-0.242 c 6.462,-0.02 11.749,-5.338 11.728,-11.8 l -0.101,-33.303 c -0.018,-6.462 -5.338,-11.748 -11.8,-11.728 l -79.527,0.242 c -6.461,0.019 -11.745,5.338 -11.727,11.799 0.155,51.199 0.008,2.652 0.101,33.303 C -11.779,-5.267 -6.46,0.02 0,0 Z" /></g><g
           transform="translate(297.2778,96.5845)"
           id="g52"><path
             id="path54"
             style="fill:#828c96;fill-opacity:1;fill-rule:nonzero;stroke:none"
             d="m 0,0 c 143.264,37.508 280.144,99.557 291.859,137.96 4.853,15.892 -3.392,28.51 -29.384,36.044 27.007,-0.413 65.071,-14.778 54.026,-50.699 C 305.625,88.046 241.064,52.785 172.056,24.497 126.933,5.911 82.479,-10.357 38.367,-23.811 26.46,-16.482 12.237,-7.659 0,0" /></g><g
           transform="translate(297.2778,96.5845)"
           id="g56"><path
             id="path58"
             style="fill:none;stroke:#ffffff;stroke-width:1;stroke-linecap:butt;stroke-linejoin:miter;stroke-miterlimit:10;stroke-dasharray:none;stroke-opacity:1"
             d="m 0,0 c 143.264,37.508 280.144,99.557 291.859,137.96 4.853,15.892 -3.392,28.51 -29.384,36.044 27.007,-0.413 65.071,-14.778 54.026,-50.699 C 305.625,88.046 241.064,52.785 172.056,24.497 126.933,5.911 82.479,-10.357 38.367,-23.811 26.46,-16.482 12.237,-7.659 0,0 Z" /></g><g
           transform="translate(335.1074,168.8765)"
           id="g60"><path
             id="path62"
             style="fill:#828c96;fill-opacity:1;fill-rule:nonzero;stroke:none"
             d="m 0,0 c -139.148,-45.971 -286.85,-70.872 -306.659,-46.787 -7.429,8.971 -1.069,29.662 19.197,47.163 -8.955,-2.955 -51.774,-26.353 -46.734,-58.512 9.75,-62.826 218.764,-9.875 354.499,33.22 z" /></g><g
           transform="translate(335.1074,168.8765)"
           id="g64"><path
             id="path66"
             style="fill:none;stroke:#ffffff;stroke-width:1;stroke-linecap:butt;stroke-linejoin:miter;stroke-miterlimit:10;stroke-dasharray:none;stroke-opacity:1"
             d="m 0,0 c -139.148,-45.971 -286.85,-70.872 -306.659,-46.787 -7.429,8.971 -1.069,29.662 19.197,47.163 -8.955,-2.955 -51.774,-26.353 -46.734,-58.512 9.75,-62.826 218.764,-9.875 354.499,33.22 z" /></g></g></g></g></svg>