<?xml version="1.0" encoding="UTF-8" standalone="no"?>
<svg
   xmlns:dc="http://purl.org/dc/elements/1.1/"
   xmlns:cc="http://creativecommons.org/ns#"
   xmlns:rdf="http://www.w3.org/1999/02/22-rdf-syntax-ns#"
   xmlns:svg="http://www.w3.org/2000/svg"
   xmlns="http://www.w3.org/2000/svg"
   viewBox="0 0 61.333332 61.333332"
   height="61.333332"
   width="61.333332"
   xml:space="preserve"
   id="svg2"
   version="1.1"><metadata
     id="metadata8"><rdf:RDF><cc:Work
         rdf:about=""><dc:format>image/svg+xml</dc:format><dc:type
           rdf:resource="http://purl.org/dc/dcmitype/StillImage" /><dc:title></dc:title></cc:Work></rdf:RDF></metadata><defs
     id="defs6"><clipPath
       id="clipPath18"
       clipPathUnits="userSpaceOnUse"><path
         id="path16"
         d="M 0,46 H 46 V 0 H 0 Z" /></clipPath></defs><g
     transform="matrix(1.3333333,0,0,-1.3333333,0,61.333333)"
     id="g10"><g
       id="g12"><g
         clip-path="url(#clipPath18)"
         id="g14"><g
           transform="translate(20.0049,12.4126)"
           id="g20"><path
             id="path22"
             style="fill:none;stroke:#828c96;stroke-width:2;stroke-linecap:butt;stroke-linejoin:miter;stroke-miterlimit:10;stroke-dasharray:none;stroke-opacity:1"
             d="m 0,0 c -3.666,1.035 -6.554,3.922 -7.591,7.586 m 0,6.001 c 1.036,3.664 3.923,6.55 7.586,7.586 m 6.001,0 c 3.665,-1.037 6.552,-3.925 7.587,-7.59 M 13.581,7.587 C 12.545,3.924 9.658,1.038 5.995,0.001" /></g><g
           transform="translate(20.1865,3.5)"
           id="g24"><path
             id="path26"
             style="fill:none;stroke:#828c96;stroke-width:2;stroke-linecap:butt;stroke-linejoin:miter;stroke-miterlimit:10;stroke-dasharray:none;stroke-opacity:1"
             d="m 0,0 c -8.628,1.234 -15.453,8.059 -16.687,16.687 m 0,5.627 c 1.234,8.627 8.059,15.452 16.686,16.686 m 5.629,0 c 8.627,-1.234 15.451,-8.058 16.685,-16.686 m 0,-5.628 C 21.079,8.058 14.255,1.234 5.628,0" /></g><g
           transform="translate(26,12)"
           id="g28"><path
             id="path30"
             style="fill:none;stroke:#828c96;stroke-width:2;stroke-linecap:butt;stroke-linejoin:miter;stroke-miterlimit:10;stroke-dasharray:none;stroke-opacity:1"
             d="M 0,0 C 0,1.104 -0.896,2 -2,2 H -4 C -5.104,2 -6,1.104 -6,0 v -9 c 0,-1.104 0.896,-2 2,-2 h 2 c 1.104,0 2,0.896 2,2 z" /></g><g
           transform="translate(45,24)"
           id="g32"><path
             id="path34"
             style="fill:none;stroke:#828c96;stroke-width:2;stroke-linecap:butt;stroke-linejoin:miter;stroke-miterlimit:10;stroke-dasharray:none;stroke-opacity:1"
             d="m 0,0 c 0,1.104 -0.896,2 -2,2 h -9 c -1.104,0 -2,-0.896 -2,-2 v -2 c 0,-1.104 0.896,-2 2,-2 h 9 c 1.104,0 2,0.896 2,2 z" /></g><g
           transform="translate(14,24)"
           id="g36"><path
             id="path38"
             style="fill:none;stroke:#828c96;stroke-width:2;stroke-linecap:butt;stroke-linejoin:miter;stroke-miterlimit:10;stroke-dasharray:none;stroke-opacity:1"
             d="m 0,0 c 0,1.104 -0.896,2 -2,2 h -9 c -1.104,0 -2,-0.896 -2,-2 v -2 c 0,-1.104 0.896,-2 2,-2 h 9 c 1.104,0 2,0.896 2,2 z" /></g><g
           transform="translate(26,43)"
           id="g40"><path
             id="path42"
             style="fill:none;stroke:#828c96;stroke-width:2;stroke-linecap:butt;stroke-linejoin:miter;stroke-miterlimit:10;stroke-dasharray:none;stroke-opacity:1"
             d="M 0,0 C 0,1.104 -0.896,2 -2,2 H -4 C -5.104,2 -6,1.104 -6,0 v -9 c 0,-1.104 0.896,-2 2,-2 h 2 c 1.104,0 2,0.896 2,2 z" /></g><g
           transform="translate(2,34)"
           id="g44"><path
             id="path46"
             style="fill:none;stroke:#0078be;stroke-width:2;stroke-linecap:butt;stroke-linejoin:miter;stroke-miterlimit:10;stroke-dasharray:none;stroke-opacity:1"
             d="m 0,0 v 3 c 0,3.866 3.134,7 7,7 h 3" /></g><g
           transform="translate(44,34)"
           id="g48"><path
             id="path50"
             style="fill:none;stroke:#0078be;stroke-width:2;stroke-linecap:butt;stroke-linejoin:miter;stroke-miterlimit:10;stroke-dasharray:none;stroke-opacity:1"
             d="m 0,0 v 3 c 0,3.866 -3.134,7 -7,7 h -3" /></g><g
           transform="translate(2,12)"
           id="g52"><path
             id="path54"
             style="fill:none;stroke:#0078be;stroke-width:2;stroke-linecap:butt;stroke-linejoin:miter;stroke-miterlimit:10;stroke-dasharray:none;stroke-opacity:1"
             d="m 0,0 v -3 c 0,-3.866 3.134,-7 7,-7 h 3" /></g><g
           transform="translate(44,12)"
           id="g56"><path
             id="path58"
             style="fill:none;stroke:#0078be;stroke-width:2;stroke-linecap:butt;stroke-linejoin:miter;stroke-miterlimit:10;stroke-dasharray:none;stroke-opacity:1"
             d="m 0,0 v -3 c 0,-3.866 -3.134,-7 -7,-7 h -3" /></g></g></g></g></svg>