<?xml version="1.0" encoding="UTF-8" standalone="no"?>
<svg
   xmlns:dc="http://purl.org/dc/elements/1.1/"
   xmlns:cc="http://creativecommons.org/ns#"
   xmlns:rdf="http://www.w3.org/1999/02/22-rdf-syntax-ns#"
   xmlns:svg="http://www.w3.org/2000/svg"
   xmlns="http://www.w3.org/2000/svg"
   viewBox="0 0 385.42667 379.05334"
   height="379.05334"
   width="385.42667"
   xml:space="preserve"
   id="svg2"
   version="1.1"><metadata
     id="metadata8"><rdf:RDF><cc:Work
         rdf:about=""><dc:format>image/svg+xml</dc:format><dc:type
           rdf:resource="http://purl.org/dc/dcmitype/StillImage" /><dc:title></dc:title></cc:Work></rdf:RDF></metadata><defs
     id="defs6"><clipPath
       id="clipPath18"
       clipPathUnits="userSpaceOnUse"><path
         id="path16"
         d="M 0,284.29 H 289.07 V 0 H 0 Z" /></clipPath></defs><g
     transform="matrix(1.3333333,0,0,-1.3333333,0,379.05333)"
     id="g10"><g
       id="g12"><g
         clip-path="url(#clipPath18)"
         id="g14"><path
           id="path20"
           style="fill:#828c96;fill-opacity:1;fill-rule:nonzero;stroke:none"
           d="M 15.9,11.117 H 72.611 V 67.831 H 15.9 Z M 78.17,0 H 10.341 C 7.271,0 4.782,2.486 4.782,5.559 v 67.832 c 0,3.072 2.489,5.558 5.559,5.558 H 78.17 c 3.073,0 5.559,-2.486 5.559,-5.558 V 5.559 C 83.729,2.486 81.243,0 78.17,0" /><g
           transform="translate(195.4463,230.7686)"
           id="g22"><path
             id="path24"
             style="fill:#828c96;fill-opacity:1;fill-rule:nonzero;stroke:none"
             d="M 0,0 40.103,-40.102 80.204,0 40.103,40.103 Z m 40.103,-53.521 c -1.423,0 -2.845,0.542 -3.931,1.628 L -11.791,-3.93 c -2.171,2.171 -2.171,5.689 0,7.861 l 47.963,47.963 c 2.171,2.17 5.689,2.17 7.86,0 L 91.995,3.931 c 2.172,-2.172 2.172,-5.69 0,-7.861 L 44.032,-51.893 c -1.086,-1.086 -2.508,-1.628 -3.929,-1.628" /></g><g
           transform="translate(201.6562,11.1172)"
           id="g26"><path
             id="path28"
             style="fill:#828c96;fill-opacity:1;fill-rule:nonzero;stroke:none"
             d="M 0,0 H 67.783 L 33.893,67.789 Z M 76.779,-11.117 H -8.995 c -1.927,0 -3.713,0.999 -4.728,2.638 -1.015,1.639 -1.108,3.68 -0.244,5.407 l 42.886,85.779 c 1.89,3.768 8.057,3.768 9.946,0 L 81.752,-3.072 c 0.863,-1.727 0.77,-3.768 -0.244,-5.407 -1.016,-1.639 -2.802,-2.638 -4.729,-2.638" /></g><g
           transform="translate(44.2539,261.7178)"
           id="g30"><path
             id="path32"
             style="fill:#828c96;fill-opacity:1;fill-rule:nonzero;stroke:none"
             d="m 0,0 c -18.272,0 -33.137,-14.863 -33.137,-33.137 0,-18.272 14.865,-33.137 33.137,-33.137 18.276,0 33.141,14.865 33.141,33.137 C 33.141,-14.863 18.276,0 0,0 m 0,-77.392 c -24.401,0 -44.254,19.853 -44.254,44.255 0,24.402 19.853,44.255 44.254,44.255 24.405,0 44.258,-19.853 44.258,-44.255 0,-24.402 -19.853,-44.255 -44.258,-44.255" /></g><g
           transform="translate(166.3379,33.918)"
           id="g34"><path
             id="path36"
             style="fill:#828c96;fill-opacity:1;fill-rule:nonzero;stroke:none"
             d="m 0,0 h -59.238 c -3.073,0 -5.559,2.486 -5.559,5.56 0,3.072 2.486,5.558 5.559,5.558 L 0,11.118 C 3.073,11.118 5.559,8.632 5.559,5.56 5.559,2.486 3.073,0 0,0" /></g><g
           transform="translate(44.2539,89.7744)"
           id="g38"><path
             id="path40"
             style="fill:#828c96;fill-opacity:1;fill-rule:nonzero;stroke:none"
             d="m 0,0 c -3.069,0 -5.559,2.486 -5.559,5.559 v 62.88 c 0,3.073 2.49,5.559 5.559,5.559 3.07,0 5.56,-2.486 5.56,-5.559 V 5.559 C 5.56,2.486 3.07,0 0,0" /></g><g
           transform="translate(166.3379,225.209)"
           id="g42"><path
             id="path44"
             style="fill:#828c96;fill-opacity:1;fill-rule:nonzero;stroke:none"
             d="m 0,0 h -59.238 c -3.073,0 -5.559,2.486 -5.559,5.56 0,3.072 2.486,5.558 5.559,5.558 L 0,11.118 C 3.073,11.118 5.559,8.632 5.559,5.56 5.559,2.486 3.073,0 0,0" /></g><g
           transform="translate(235.5488,121.2178)"
           id="g46"><path
             id="path48"
             style="fill:#828c96;fill-opacity:1;fill-rule:nonzero;stroke:none"
             d="m 0,0 c -3.073,0 -5.56,2.486 -5.56,5.559 v 31.437 c 0,3.072 2.487,5.559 5.56,5.559 3.072,0 5.559,-2.487 5.559,-5.559 V 5.559 C 5.559,2.486 3.072,0 0,0" /></g></g></g></g></svg>