<?xml version="1.0" encoding="UTF-8" standalone="no"?>
<svg
   xmlns:dc="http://purl.org/dc/elements/1.1/"
   xmlns:cc="http://creativecommons.org/ns#"
   xmlns:rdf="http://www.w3.org/1999/02/22-rdf-syntax-ns#"
   xmlns:svg="http://www.w3.org/2000/svg"
   xmlns="http://www.w3.org/2000/svg"
   viewBox="0 0 40 62.292934"
   height="62.292934"
   width="40"
   xml:space="preserve"
   id="svg2"
   version="1.1"><metadata
     id="metadata8"><rdf:RDF><cc:Work
         rdf:about=""><dc:format>image/svg+xml</dc:format><dc:type
           rdf:resource="http://purl.org/dc/dcmitype/StillImage" /><dc:title></dc:title></cc:Work></rdf:RDF></metadata><defs
     id="defs6"><clipPath
       id="clipPath18"
       clipPathUnits="userSpaceOnUse"><path
         id="path16"
         d="M 0,46.72 H 30 V 0 H 0 Z" /></clipPath></defs><g
     transform="matrix(1.3333333,0,0,-1.3333333,0,62.292933)"
     id="g10"><g
       id="g12"><g
         clip-path="url(#clipPath18)"
         id="g14"><g
           transform="translate(28,1)"
           id="g20"><path
             id="path22"
             style="fill:none;stroke:#828c96;stroke-width:2;stroke-linecap:butt;stroke-linejoin:miter;stroke-miterlimit:10;stroke-dasharray:none;stroke-opacity:1"
             d="m 0,0 h -26 c -0.552,0 -1,0.448 -1,1 V 37 H 0 c 0.552,0 1,-0.448 1,-1 V 1 C 1,0.448 0.552,0 0,0 Z" /></g><g
           transform="translate(1,38)"
           id="g24"><path
             id="path26"
             style="fill:none;stroke:#828c96;stroke-width:2;stroke-linecap:butt;stroke-linejoin:miter;stroke-miterlimit:10;stroke-dasharray:none;stroke-opacity:1"
             d="m 0,0 v 1.219 c 0,0.459 0.312,0.859 0.757,0.97 l 22,5.5 C 23.389,7.847 24,7.37 24,6.719 V 2" /></g><g
           transform="translate(8,10)"
           id="g28"><path
             id="path30"
             style="fill:none;stroke:#828c96;stroke-width:2;stroke-linecap:butt;stroke-linejoin:miter;stroke-miterlimit:10;stroke-dasharray:none;stroke-opacity:1"
             d="M 0,0 H 14" /></g><g
           transform="translate(23,24)"
           id="g32"><path
             id="path34"
             style="fill:none;stroke:#0078be;stroke-width:2;stroke-linecap:butt;stroke-linejoin:miter;stroke-miterlimit:10;stroke-dasharray:none;stroke-opacity:1"
             d="m 0,0 c 0,-4.418 -3.582,-8 -8,-8 -4.418,0 -8,3.582 -8,8 0,4.418 3.582,8 8,8 4.418,0 8,-3.582 8,-8 z" /></g><g
           transform="translate(18,24)"
           id="g36"><path
             id="path38"
             style="fill:none;stroke:#0078be;stroke-width:2;stroke-linecap:butt;stroke-linejoin:miter;stroke-miterlimit:10;stroke-dasharray:none;stroke-opacity:1"
             d="m 0,0 c 0,-4.418 -1.343,-8 -3,-8 -1.657,0 -3,3.582 -3,8 0,4.418 1.343,8 3,8 1.657,0 3,-3.582 3,-8 z" /></g><g
           transform="translate(7,24)"
           id="g40"><path
             id="path42"
             style="fill:none;stroke:#0078be;stroke-width:2;stroke-linecap:butt;stroke-linejoin:miter;stroke-miterlimit:10;stroke-dasharray:none;stroke-opacity:1"
             d="M 0,0 H 16" /></g></g></g></g></svg>