<?xml version="1.0" encoding="UTF-8" standalone="no"?>
<svg
   xmlns:dc="http://purl.org/dc/elements/1.1/"
   xmlns:cc="http://creativecommons.org/ns#"
   xmlns:rdf="http://www.w3.org/1999/02/22-rdf-syntax-ns#"
   xmlns:svg="http://www.w3.org/2000/svg"
   xmlns="http://www.w3.org/2000/svg"
   viewBox="0 0 72.48307 49.434933"
   height="49.434933"
   width="72.48307"
   xml:space="preserve"
   id="svg2"
   version="1.1"><metadata
     id="metadata8"><rdf:RDF><cc:Work
         rdf:about=""><dc:format>image/svg+xml</dc:format><dc:type
           rdf:resource="http://purl.org/dc/dcmitype/StillImage" /><dc:title></dc:title></cc:Work></rdf:RDF></metadata><defs
     id="defs6"><clipPath
       id="clipPath18"
       clipPathUnits="userSpaceOnUse"><path
         id="path16"
         d="M 0,37.076 H 54.362 V 0 H 0 Z" /></clipPath></defs><g
     transform="matrix(1.3333333,0,0,-1.3333333,0,49.434933)"
     id="g10"><g
       id="g12"><g
         clip-path="url(#clipPath18)"
         id="g14"><g
           transform="translate(39.7026,36.0762)"
           id="g20"><path
             id="path22"
             style="fill:none;stroke:#0078be;stroke-width:2;stroke-linecap:butt;stroke-linejoin:round;stroke-miterlimit:10;stroke-dasharray:none;stroke-opacity:1"
             d="m 0,0 c -1.302,-1.821 -9.935,-6.113 -13.66,-6.113 v -15.515 c 0,-6.2 12.916,-13.254 13.66,-13.448 0.744,0.194 13.66,7.248 13.66,13.448 V -6.113 C 9.935,-6.113 1.302,-1.821 0,0 Z" /></g><g
           transform="translate(23.7661,9.8955)"
           id="g24"><path
             id="path26"
             style="fill:none;stroke:#828c96;stroke-width:2;stroke-linecap:butt;stroke-linejoin:round;stroke-miterlimit:10;stroke-dasharray:none;stroke-opacity:1"
             d="m 0,0 h -15.936 c -1.886,0 -3.415,1.528 -3.415,3.414 v 5.901 c 0,1.348 0.399,2.666 1.147,3.789 l 1.129,1.694 -4.553,1.138 c -0.628,0 -1.138,0.509 -1.138,1.138 v 2.277 c 0,0.629 0.51,1.138 1.138,1.138 h 5.692 l 2.276,-3.415 3.415,-1.138 H 0" /></g><g
           transform="translate(7.8301,21.2783)"
           id="g28"><path
             id="path30"
             style="fill:none;stroke:#828c96;stroke-width:2;stroke-linecap:butt;stroke-linejoin:round;stroke-miterlimit:10;stroke-dasharray:none;stroke-opacity:1"
             d="M 0,0 2.276,-2.276 H 7.968" /></g><g
           transform="translate(5.5532,11.0332)"
           id="g32"><path
             id="path34"
             style="fill:none;stroke:#828c96;stroke-width:2;stroke-linecap:butt;stroke-linejoin:round;stroke-miterlimit:10;stroke-dasharray:none;stroke-opacity:1"
             d="m 0,0 v -4.553 c 0,-0.63 0.51,-1.138 1.138,-1.138 h 7.968 c 0.629,0 1.139,0.508 1.139,1.138 v 1.138" /></g><g
           transform="translate(34.0112,36.0762)"
           id="g36"><path
             id="path38"
             style="fill:none;stroke:#828c96;stroke-width:2;stroke-linecap:butt;stroke-linejoin:round;stroke-miterlimit:10;stroke-dasharray:none;stroke-opacity:1"
             d="m 0,0 h -19.352 c -0.796,0 -1.753,-0.518 -2.276,-1.139 -0.523,-0.62 -3.415,-6.829 -3.415,-6.829" /></g><g
           transform="translate(15.7979,14.4482)"
           id="g40"><path
             id="path42"
             style="fill:none;stroke:#828c96;stroke-width:2;stroke-linecap:butt;stroke-linejoin:round;stroke-miterlimit:10;stroke-dasharray:none;stroke-opacity:1"
             d="M 0,0 H 7.968" /></g></g></g></g></svg>