<?xml version="1.0" encoding="UTF-8" standalone="no"?>
<svg
   xmlns:dc="http://purl.org/dc/elements/1.1/"
   xmlns:cc="http://creativecommons.org/ns#"
   xmlns:rdf="http://www.w3.org/1999/02/22-rdf-syntax-ns#"
   xmlns:svg="http://www.w3.org/2000/svg"
   xmlns="http://www.w3.org/2000/svg"
   viewBox="0 0 62.666668 42.666668"
   height="42.666668"
   width="62.666668"
   xml:space="preserve"
   id="svg2"
   version="1.1"><metadata
     id="metadata8"><rdf:RDF><cc:Work
         rdf:about=""><dc:format>image/svg+xml</dc:format><dc:type
           rdf:resource="http://purl.org/dc/dcmitype/StillImage" /><dc:title></dc:title></cc:Work></rdf:RDF></metadata><defs
     id="defs6"><clipPath
       id="clipPath18"
       clipPathUnits="userSpaceOnUse"><path
         id="path16"
         d="M 0,32 H 47 V 0 H 0 Z" /></clipPath></defs><g
     transform="matrix(1.3333333,0,0,-1.3333333,0,42.666667)"
     id="g10"><g
       id="g12"><g
         clip-path="url(#clipPath18)"
         id="g14"><g
           transform="translate(42.7188,18)"
           id="g20"><path
             id="path22"
             style="fill:none;stroke:#828c96;stroke-width:2;stroke-linecap:butt;stroke-linejoin:miter;stroke-miterlimit:10;stroke-dasharray:none;stroke-opacity:1"
             d="M 0,0 C -0.17,0.532 -0.413,1.042 -0.727,1.512 L -1.719,3 l 4,1 c 0.553,0 1,0.448 1,1 v 2 c 0,0.552 -0.447,1 -1,1 h -5 l -2,-3 -3,-1 h -12 -11 l -3,1 -2,3 h -5 c -0.552,0 -1,-0.448 -1,-1 V 5 c 0,-0.552 0.448,-1 1,-1 l 4,-1 -0.992,-1.488 c -0.657,-0.986 -1.008,-2.144 -1.008,-3.329 V -8 c 0,-1.657 1.343,-3 3,-3 h 16 4" /></g><g
           transform="translate(8,24)"
           id="g24"><path
             id="path26"
             style="fill:none;stroke:#828c96;stroke-width:2;stroke-linecap:butt;stroke-linejoin:miter;stroke-miterlimit:10;stroke-dasharray:none;stroke-opacity:1"
             d="m 0,0 c 0,0 2.54,5.455 3,6 0.46,0.545 1.3,1 2,1 h 21 c 0.7,0 1.54,-0.455 2,-1 0.46,-0.545 3,-6 3,-6" /></g><g
           transform="translate(7,18)"
           id="g28"><path
             id="path30"
             style="fill:none;stroke:#828c96;stroke-width:2;stroke-linecap:butt;stroke-linejoin:miter;stroke-miterlimit:10;stroke-dasharray:none;stroke-opacity:1"
             d="M 0,0 0.536,-0.536 C 1.474,-1.473 2.745,-2 4.071,-2 H 7" /></g><g
           transform="translate(5,8)"
           id="g32"><path
             id="path34"
             style="fill:none;stroke:#828c96;stroke-width:2;stroke-linecap:butt;stroke-linejoin:miter;stroke-miterlimit:10;stroke-dasharray:none;stroke-opacity:1"
             d="m 0,0 v -4 c 0,-0.552 0.447,-1 1,-1 h 7 c 0.553,0 1,0.448 1,1 v 3" /></g><g
           transform="translate(27,12)"
           id="g36"><path
             id="path38"
             style="fill:none;stroke:#828c96;stroke-width:2;stroke-linecap:butt;stroke-linejoin:miter;stroke-miterlimit:10;stroke-dasharray:none;stroke-opacity:1"
             d="M 0,0 H -13" /></g><g
           transform="translate(33,15)"
           id="g40"><path
             id="path42"
             style="fill:none;stroke:#0078be;stroke-width:2;stroke-linecap:butt;stroke-linejoin:miter;stroke-miterlimit:10;stroke-dasharray:none;stroke-opacity:1"
             d="m 0,0 c -1.657,0 -3,-1.343 -3,-3 0,-1.657 1.343,-3 3,-3 1.657,0 3,1.343 3,3 0,1.657 -1.343,3 -3,3 z" /></g><g
           transform="translate(42,1)"
           id="g44"><path
             id="path46"
             style="fill:none;stroke:#0078be;stroke-width:2;stroke-linecap:butt;stroke-linejoin:miter;stroke-miterlimit:10;stroke-dasharray:none;stroke-opacity:1"
             d="M 0,0 V 0 C -1.657,0 -3,1.343 -3,3 -3,4.657 -1.657,6 0,6 1.657,6 3,4.657 3,3 3,1.343 1.657,0 0,0 Z" /></g><g
           transform="translate(32,1)"
           id="g48"><path
             id="path50"
             style="fill:none;stroke:#0078be;stroke-width:2;stroke-linecap:butt;stroke-linejoin:miter;stroke-miterlimit:10;stroke-dasharray:none;stroke-opacity:1"
             d="M 0,0 11,14" /></g></g></g></g></svg>