<?xml version="1.0" encoding="UTF-8" standalone="no"?>
<svg
   xmlns:dc="http://purl.org/dc/elements/1.1/"
   xmlns:cc="http://creativecommons.org/ns#"
   xmlns:rdf="http://www.w3.org/1999/02/22-rdf-syntax-ns#"
   xmlns:svg="http://www.w3.org/2000/svg"
   xmlns="http://www.w3.org/2000/svg"
   viewBox="0 0 61.653599 70.476532"
   height="70.476532"
   width="61.653599"
   xml:space="preserve"
   id="svg2"
   version="1.1"><metadata
     id="metadata8"><rdf:RDF><cc:Work
         rdf:about=""><dc:format>image/svg+xml</dc:format><dc:type
           rdf:resource="http://purl.org/dc/dcmitype/StillImage" /><dc:title></dc:title></cc:Work></rdf:RDF></metadata><defs
     id="defs6"><clipPath
       id="clipPath22"
       clipPathUnits="userSpaceOnUse"><path
         id="path20"
         d="M 0,52.857 H 46.24 V 0 H 0 Z" /></clipPath></defs><g
     transform="matrix(1.3333333,0,0,-1.3333333,0,70.476533)"
     id="g10"><g
       transform="translate(17.5732,30.7998)"
       id="g12"><path
         id="path14"
         style="fill:none;stroke:#0078be;stroke-width:2;stroke-linecap:butt;stroke-linejoin:round;stroke-miterlimit:10;stroke-dasharray:none;stroke-opacity:1"
         d="M 0,0 -5.007,4.578 0.916,5.494 0,11.905 5.495,6.41 10.989,11.905 V 5.494 l 4.579,0.916 -3.663,-4.7" /></g><g
       id="g16"><g
         clip-path="url(#clipPath22)"
         id="g18"><g
           transform="translate(1.0884,18.8936)"
           id="g24"><path
             id="path26"
             style="fill:none;stroke:#828c96;stroke-width:2;stroke-linecap:butt;stroke-linejoin:round;stroke-miterlimit:10;stroke-dasharray:none;stroke-opacity:1"
             d="M 0,0 H 10.074" /></g><g
           transform="translate(18.4888,18.8936)"
           id="g28"><path
             id="path30"
             style="fill:none;stroke:#828c96;stroke-width:2;stroke-linecap:butt;stroke-linejoin:round;stroke-miterlimit:10;stroke-dasharray:none;stroke-opacity:1"
             d="M 0,0 H 5.495 V 4.579 L 4.579,7.327 c 0,0 -4.608,1.431 -10.99,2.747 -2.482,2.962 -6.525,4.579 -8.242,4.579 H -17.4" /></g><g
           transform="translate(10.2466,28.0518)"
           id="g32"><path
             id="path34"
             style="fill:none;stroke:#828c96;stroke-width:2;stroke-linecap:butt;stroke-linejoin:round;stroke-miterlimit:10;stroke-dasharray:none;stroke-opacity:1"
             d="M 0,0 -1.832,-0.916 H -9.158" /></g><g
           transform="translate(11.1572,18.8926)"
           id="g36"><path
             id="path38"
             style="fill:none;stroke:#828c96;stroke-width:2;stroke-linecap:butt;stroke-linejoin:round;stroke-miterlimit:10;stroke-dasharray:none;stroke-opacity:1"
             d="M 0,0 C 0,-2.023 1.641,-3.662 3.666,-3.662 5.69,-3.662 7.332,-2.023 7.332,0 7.332,2.021 5.69,3.659 3.666,3.659 1.641,3.659 0,2.021 0,0 Z" /></g><g
           transform="translate(39.5522,18.8936)"
           id="g40"><path
             id="path42"
             style="fill:none;stroke:#828c96;stroke-width:2;stroke-linecap:butt;stroke-linejoin:round;stroke-miterlimit:10;stroke-dasharray:none;stroke-opacity:1"
             d="M 0,0 H 5.495" /></g><g
           transform="translate(45.0469,33.5469)"
           id="g44"><path
             id="path46"
             style="fill:none;stroke:#828c96;stroke-width:2;stroke-linecap:butt;stroke-linejoin:round;stroke-miterlimit:10;stroke-dasharray:none;stroke-opacity:1"
             d="m 0,0 h -3.663 c -3.549,0 -8.5,-3.435 -10.074,-4.579 h -2.754 c -0.507,0 -0.91,-0.409 -0.909,-0.916 v -3.663 l -0.916,-1.832 v -1.831 c 0,-1.012 0.82,-1.832 1.832,-1.832 h 3.663" /></g><g
           transform="translate(45.0469,27.1357)"
           id="g48"><path
             id="path50"
             style="fill:none;stroke:#828c96;stroke-width:2;stroke-linecap:butt;stroke-linejoin:round;stroke-miterlimit:10;stroke-dasharray:none;stroke-opacity:1"
             d="m 0,0 h -10.074 l -0.915,0.916" /></g><g
           transform="translate(32.2256,18.8926)"
           id="g52"><path
             id="path54"
             style="fill:none;stroke:#828c96;stroke-width:2;stroke-linecap:butt;stroke-linejoin:round;stroke-miterlimit:10;stroke-dasharray:none;stroke-opacity:1"
             d="M 0,0 C 0,-2.023 1.641,-3.662 3.666,-3.662 5.69,-3.662 7.331,-2.023 7.331,0 7.331,2.021 5.69,3.659 3.666,3.659 1.641,3.659 0,2.021 0,0 Z" /></g><g
           transform="translate(23.1333,51.8574)"
           id="g56"><path
             id="path58"
             style="fill:none;stroke:#0078be;stroke-width:2;stroke-linecap:butt;stroke-linejoin:round;stroke-miterlimit:10;stroke-dasharray:none;stroke-opacity:1"
             d="M 0,0 C -2.151,-2.9 -16.501,-8.847 -22.133,-8.847 V -29.86 c 0,-9.877 20.891,-20.687 22.12,-20.997 1.229,0.311 22.12,11.873 22.12,19.89 v 22.12 C 15.962,-8.847 2.15,-2.9 0,0 Z" /></g></g></g></g></svg>