<?xml version="1.0" encoding="UTF-8" standalone="no"?>
<svg
        xmlns:dc="http://purl.org/dc/elements/1.1/"
        xmlns:cc="http://creativecommons.org/ns#"
        xmlns:rdf="http://www.w3.org/1999/02/22-rdf-syntax-ns#"
        xmlns:svg="http://www.w3.org/2000/svg"
        xmlns="http://www.w3.org/2000/svg"
        viewBox="0 0 63.9076 64"
        height="64"
        width="63.9076"
        xml:space="preserve"
        id="svg2"
        version="1.1"><metadata
     id="metadata8"><rdf:RDF><cc:Work
         rdf:about=""><dc:format>image/svg+xml</dc:format><dc:type
        rdf:resource="http://purl.org/dc/dcmitype/StillImage"/><dc:title></dc:title></cc:Work></rdf:RDF></metadata>
    <defs
            id="defs6"><clipPath
       id="clipPath18"
       clipPathUnits="userSpaceOnUse"><path
         id="path16"
         d="M 0,48 H 47.931 V 0 H 0 Z" /></clipPath></defs>
    <g
            transform="matrix(1.3333333,0,0,-1.3333333,0,64)"
            id="g10"><g
       id="g12"><g
         clip-path="url(#clipPath18)"
         id="g14"><g
           transform="translate(13.2041,31)"
           id="g20"><path
             id="path22"
             style="fill:none;stroke:#0078be;stroke-width:2;stroke-linecap:butt;stroke-linejoin:round;stroke-miterlimit:10;stroke-dasharray:none;stroke-opacity:1"
             d="M 0,0 C 1.357,8.449 8.122,14 10.761,14" /></g><g
            transform="translate(34.7266,30.998)"
            id="g24"><path
             id="path26"
             style="fill:none;stroke:#0078be;stroke-width:2;stroke-linecap:butt;stroke-linejoin:round;stroke-miterlimit:10;stroke-dasharray:none;stroke-opacity:1"
             d="M 0,0 C -1.356,8.451 -8.122,14.002 -10.762,14.002" /></g><g
            transform="translate(24,45)"
            id="g28"><path
             id="path30"
             style="fill:none;stroke:#0078be;stroke-width:2;stroke-linecap:butt;stroke-linejoin:round;stroke-miterlimit:10;stroke-dasharray:none;stroke-opacity:1"
             d="M 0,0 V 3" /></g><g
            transform="translate(24,28)"
            id="g32"><path
             id="path34"
             style="fill:none;stroke:#0078be;stroke-width:2;stroke-linecap:butt;stroke-linejoin:round;stroke-miterlimit:10;stroke-dasharray:none;stroke-opacity:1"
             d="M 0,0 V -10" /></g><g
            transform="translate(23.3096,27.4219)"
            id="g36"><path
             id="path38"
             style="fill:none;stroke:#0078be;stroke-width:2;stroke-linecap:butt;stroke-linejoin:round;stroke-miterlimit:10;stroke-dasharray:none;stroke-opacity:1"
             d="m 0,0 c 0.361,-0.366 0.95,-0.366 1.312,0 0.928,0.939 2.75,1.578 4.843,1.578 2.072,0 3.875,-0.624 4.813,-1.547 0.38,-0.372 0.976,-0.352 1.343,0.032 0.861,0.906 2.484,1.515 4.344,1.515 2.369,0 4.354,-0.988 4.869,-2.315 0.154,-0.394 0.491,-0.685 0.913,-0.685 h 0.233 c 0.56,0 0.988,0.483 0.948,1.043 -0.695,9.672 -13.747,17.957 -22.963,17.957 -9.215,0 -22.266,-8.285 -22.962,-17.957 -0.04,-0.56 0.387,-1.043 0.949,-1.043 h 0.232 c 0.423,0 0.759,0.291 0.912,0.685 0.517,1.327 2.5,2.315 4.869,2.315 1.862,0 3.485,-0.609 4.345,-1.515 0.367,-0.384 0.964,-0.404 1.343,-0.032 0.938,0.923 2.742,1.547 4.812,1.547 C -2.75,1.578 -0.929,0.939 0,0 Z" /></g><g
            transform="translate(29.5107,8.999)"
            id="g40"><path
             id="path42"
             style="fill:none;stroke:#828c96;stroke-width:2;stroke-linecap:butt;stroke-linejoin:round;stroke-miterlimit:10;stroke-dasharray:none;stroke-opacity:1"
             d="M 0,0 C 1.277,1.022 3.489,1.642 5.489,2.001 V 3.38 c -2,0.738 -3,2.487 -3,4.621 v 2 c 0,2.84 2.087,5 5,5 2.913,0 5,-2.16 5,-5 v -2 c 0,-2.134 -1,-3.883 -3,-4.621 V 2.001 c 4,-0.626 7,-2.038 7,-5 v -6" /></g><g
            transform="translate(15.0068,8.582)"
            id="g44"><path
             id="path46"
             style="fill:none;stroke:#828c96;stroke-width:2;stroke-linecap:butt;stroke-linejoin:round;stroke-miterlimit:10;stroke-dasharray:none;stroke-opacity:1"
             d="m 0,0 c -0.635,0.168 -1.308,0.306 -2.007,0.418 v 1.379 c 1.821,0.738 3,2.487 3,4.621 v 2 c 0,2.84 -2.087,5 -5,5 -2.913,0 -5,-2.16 -5,-5 v -2 c 0,-2.134 1.179,-3.883 3,-4.621 V 0.418 c -3.892,-0.626 -7,-2.038 -7,-5 v -4" /></g><g
            transform="translate(16)"
            id="g48"><path
             id="path50"
             style="fill:none;stroke:#828c96;stroke-width:2;stroke-linecap:butt;stroke-linejoin:round;stroke-miterlimit:10;stroke-dasharray:none;stroke-opacity:1"
             d="M 0,0 V 1 C 0,3.396 1.85,3.493 5,4 V 6 C 3.525,6.598 3,7.272 3,9 v 2 c 0,2.299 1.643,4 4,4" /></g><g
            transform="translate(30)"
            id="g52"><path
             id="path54"
             style="fill:none;stroke:#828c96;stroke-width:2;stroke-linecap:butt;stroke-linejoin:round;stroke-miterlimit:10;stroke-dasharray:none;stroke-opacity:1"
             d="m 0,0 v 1 c 0,2.396 -2,2.493 -5,3 v 2 c 1,0.598 2,1.272 2,3 v 2 c 0,2.299 -1.643,4 -4,4" /></g></g></g></g></svg>