<?xml version="1.0" encoding="UTF-8" standalone="no"?>
<svg
   xmlns:dc="http://purl.org/dc/elements/1.1/"
   xmlns:cc="http://creativecommons.org/ns#"
   xmlns:rdf="http://www.w3.org/1999/02/22-rdf-syntax-ns#"
   xmlns:svg="http://www.w3.org/2000/svg"
   xmlns="http://www.w3.org/2000/svg"
   viewBox="0 0 58.529999 63.2188"
   height="63.2188"
   width="58.529999"
   xml:space="preserve"
   id="svg2"
   version="1.1"><metadata
     id="metadata8"><rdf:RDF><cc:Work
         rdf:about=""><dc:format>image/svg+xml</dc:format><dc:type
           rdf:resource="http://purl.org/dc/dcmitype/StillImage" /><dc:title></dc:title></cc:Work></rdf:RDF></metadata><defs
     id="defs6"><clipPath
       id="clipPath18"
       clipPathUnits="userSpaceOnUse"><path
         id="path16"
         d="M 0,47.414 H 43.897 V 0 H 0 Z" /></clipPath></defs><g
     transform="matrix(1.3333333,0,0,-1.3333333,0,63.2188)"
     id="g10"><g
       id="g12"><g
         clip-path="url(#clipPath18)"
         id="g14"><g
           transform="translate(34.9487,28.4141)"
           id="g20"><path
             id="path22"
             style="fill:none;stroke:#828c96;stroke-width:2;stroke-linecap:butt;stroke-linejoin:miter;stroke-miterlimit:10;stroke-dasharray:none;stroke-opacity:1"
             d="M 0,0 V 5.712 C 0,11.613 -5.922,18 -13.5,18 -21.078,18 -27,11.613 -27,5.712 V 3" /></g><g
           transform="translate(30.9487,27.4141)"
           id="g24"><path
             id="path26"
             style="fill:none;stroke:#828c96;stroke-width:2;stroke-linecap:butt;stroke-linejoin:miter;stroke-miterlimit:10;stroke-dasharray:none;stroke-opacity:1"
             d="M 0,0 V -2.035 C 0,-4.927 -1.179,-8.047 -4.007,-9.931" /></g><g
           transform="translate(15.9487,40.4141)"
           id="g28"><path
             id="path30"
             style="fill:none;stroke:#828c96;stroke-width:2;stroke-linecap:butt;stroke-linejoin:miter;stroke-miterlimit:10;stroke-dasharray:none;stroke-opacity:1"
             d="M 0,0 C 0,-5.609 11.34,-13 17,-13" /></g><g
           transform="translate(15.9487,35.4141)"
           id="g32"><path
             id="path34"
             style="fill:none;stroke:#828c96;stroke-width:2;stroke-linecap:butt;stroke-linejoin:miter;stroke-miterlimit:10;stroke-dasharray:none;stroke-opacity:1"
             d="m 0,0 c -2.404,-1.002 -5,-3.645 -5,-7 v -3 c 0.022,-3.52 2.615,-7.036 6.686,-8.849" /></g><g
           transform="translate(24.9487,13.4141)"
           id="g36"><path
             id="path38"
             style="fill:none;stroke:#828c96;stroke-width:2;stroke-linecap:butt;stroke-linejoin:miter;stroke-miterlimit:10;stroke-dasharray:none;stroke-opacity:1"
             d="m 0,0 c 0,-1.104 -0.896,-2 -2,-2 h -1 c -1.104,0 -2,0.896 -2,2 0,1.104 0.896,2 2,2 h 1 C -0.896,2 0,1.104 0,0 Z" /></g><g
           transform="translate(23.9487,13.4141)"
           id="g40"><path
             id="path42"
             style="fill:none;stroke:#828c96;stroke-width:2;stroke-linecap:butt;stroke-linejoin:miter;stroke-miterlimit:10;stroke-dasharray:none;stroke-opacity:1"
             d="m 0,0 h 1.032 c 5.505,0 9.95,3.825 9.95,9.057" /></g><g
           transform="translate(36.9487,31.4141)"
           id="g44"><path
             id="path46"
             style="fill:none;stroke:#828c96;stroke-width:2;stroke-linecap:butt;stroke-linejoin:miter;stroke-miterlimit:10;stroke-dasharray:none;stroke-opacity:1"
             d="m 0,0 h -2 v -9 h 2 c 1.104,0 2,0.896 2,2 v 5 C 2,-0.896 1.104,0 0,0 Z" /></g><g
           transform="translate(5.9487,31.4141)"
           id="g48"><path
             id="path50"
             style="fill:none;stroke:#828c96;stroke-width:2;stroke-linecap:butt;stroke-linejoin:miter;stroke-miterlimit:10;stroke-dasharray:none;stroke-opacity:1"
             d="M 0,0 H 2 V -9 H 0 c -1.104,0 -2,0.896 -2,2 v 5 c 0,1.104 0.896,2 2,2 z" /></g><g
           transform="translate(14.9487,18.4141)"
           id="g52"><path
             id="path54"
             style="fill:none;stroke:#828c96;stroke-width:2;stroke-linecap:butt;stroke-linejoin:miter;stroke-miterlimit:10;stroke-dasharray:none;stroke-opacity:1"
             d="M 0,0 V -8" /></g><g
           transform="translate(14.9487,11.4141)"
           id="g56"><path
             id="path58"
             style="fill:none;stroke:#828c96;stroke-width:2;stroke-linecap:butt;stroke-linejoin:miter;stroke-miterlimit:10;stroke-dasharray:none;stroke-opacity:1"
             d="m 0,0 7,-7 -3,-3 -7,7 z" /></g><g
           transform="translate(28.9487,11.4141)"
           id="g60"><path
             id="path62"
             style="fill:none;stroke:#828c96;stroke-width:2;stroke-linecap:butt;stroke-linejoin:miter;stroke-miterlimit:10;stroke-dasharray:none;stroke-opacity:1"
             d="m 0,0 -7,-7 3,-3 7,7 z" /></g><g
           transform="translate(11.9487,8.4141)"
           id="g64"><path
             id="path66"
             style="fill:none;stroke:#828c96;stroke-width:2;stroke-linecap:butt;stroke-linejoin:miter;stroke-miterlimit:10;stroke-dasharray:none;stroke-opacity:1"
             d="m 0,0 -5.684,-1.263 c -2.057,-0.458 -3.724,-1.961 -4.39,-3.96 L -11,-8" /></g><g
           transform="translate(31.9487,8.4141)"
           id="g68"><path
             id="path70"
             style="fill:none;stroke:#828c96;stroke-width:2;stroke-linecap:butt;stroke-linejoin:miter;stroke-miterlimit:10;stroke-dasharray:none;stroke-opacity:1"
             d="m 0,0 5.684,-1.263 c 2.057,-0.458 3.724,-1.961 4.39,-3.96 L 11,-8" /></g></g></g></g></svg>