<?xml version="1.0" encoding="UTF-8" standalone="no"?>
<svg
   xmlns:dc="http://purl.org/dc/elements/1.1/"
   xmlns:cc="http://creativecommons.org/ns#"
   xmlns:rdf="http://www.w3.org/1999/02/22-rdf-syntax-ns#"
   xmlns:svg="http://www.w3.org/2000/svg"
   xmlns="http://www.w3.org/2000/svg"
   viewBox="0 0 61.333332 61.333332"
   height="61.333332"
   width="61.333332"
   xml:space="preserve"
   id="svg2"
   version="1.1"><metadata
     id="metadata8"><rdf:RDF><cc:Work
         rdf:about=""><dc:format>image/svg+xml</dc:format><dc:type
           rdf:resource="http://purl.org/dc/dcmitype/StillImage" /><dc:title></dc:title></cc:Work></rdf:RDF></metadata><defs
     id="defs6"><clipPath
       id="clipPath18"
       clipPathUnits="userSpaceOnUse"><path
         id="path16"
         d="M 0,46 H 46 V 0 H 0 Z" /></clipPath></defs><g
     transform="matrix(1.3333333,0,0,-1.3333333,0,61.333333)"
     id="g10"><g
       id="g12"><g
         clip-path="url(#clipPath18)"
         id="g14"><g
           transform="translate(16,8)"
           id="g20"><path
             id="path22"
             style="fill:none;stroke:#828c96;stroke-width:2;stroke-linecap:butt;stroke-linejoin:round;stroke-miterlimit:10;stroke-dasharray:none;stroke-opacity:1"
             d="m 0,0 c 0.383,0.383 0.776,1 2,1 h 14 c 1.111,0 7.223,6.129 8,7 0.747,0.838 4.077,5.841 5,8 -0.58,0.781 -2.147,1.43 -4,1 -1.768,-0.411 -2.808,-1.68 -4,-4 l -4.584,-2.38" /></g><g
           transform="translate(22,15)"
           id="g24"><path
             id="path26"
             style="fill:none;stroke:#828c96;stroke-width:2;stroke-linecap:butt;stroke-linejoin:round;stroke-miterlimit:10;stroke-dasharray:none;stroke-opacity:1"
             d="m 0,0 h 8 c 4,0 4,5 0,5 H 2.716 C 1.883,5 0.321,7 -1,7 H -6 C -7.351,7 -9.03,5.904 -10,5 l -4,-4" /></g><g
           transform="translate(13,1)"
           id="g28"><path
             id="path30"
             style="fill:none;stroke:#828c96;stroke-width:2;stroke-linecap:butt;stroke-linejoin:round;stroke-miterlimit:10;stroke-dasharray:none;stroke-opacity:1"
             d="M 0,0 5,5 -7,17 -12,12 Z" /></g><g
           transform="translate(6,13)"
           id="g32"><path
             id="path34"
             style="fill:none;stroke:#828c96;stroke-width:2;stroke-linecap:butt;stroke-linejoin:round;stroke-miterlimit:10;stroke-dasharray:none;stroke-opacity:1"
             d="M 0,0 2,-2" /></g><g
           transform="translate(33,40)"
           id="g36"><path
             id="path38"
             style="fill:none;stroke:#0078be;stroke-width:2;stroke-linecap:butt;stroke-linejoin:miter;stroke-miterlimit:10;stroke-dasharray:none;stroke-opacity:1"
             d="M 0,0 -1.316,2.949 C -1.725,4.174 -2.871,5 -4.162,5 H -10 -15.838 c -1.291,0 -2.437,-0.826 -2.846,-2.051 L -20,0" /></g><g
           transform="translate(18,32)"
           id="g40"><path
             id="path42"
             style="fill:none;stroke:#0078be;stroke-width:2;stroke-linecap:butt;stroke-linejoin:miter;stroke-miterlimit:10;stroke-dasharray:none;stroke-opacity:1"
             d="m 0,0 h 5 5" /></g><g
           transform="translate(38,41)"
           id="g44"><path
             id="path46"
             style="fill:none;stroke:#0078be;stroke-width:2;stroke-linecap:butt;stroke-linejoin:miter;stroke-miterlimit:10;stroke-dasharray:none;stroke-opacity:1"
             d="m 0,0 h -3 c -0.334,0 -3.031,-3 -5,-3 h -14 c -1.969,0 -4.666,3 -5,3 h -3 c -0.552,0 -1,-0.448 -1,-1 v -1.344 c 0,-0.552 0.448,-1 1,-1 L -28,-4 v -1 c -0.64,-0.64 -1,-1.509 -1,-2.414 V -9 c 0,-0.885 0.391,-1.672 1,-2.221 V -14 c 0,-0.552 0.448,-1 1,-1 h 4 c 0.552,0 1,0.448 1,1 v 2 h 14 v -2 c 0,-0.552 0.448,-1 1,-1 h 4 c 0.552,0 1,0.448 1,1 v 2.779 c 0.609,0.549 1,1.336 1,2.221 v 1.586 C -1,-6.509 -1.36,-5.64 -2,-5 v 1 l 2,0.656 c 0.552,0 1,0.448 1,1 V -1 C 1,-0.448 0.552,0 0,0 Z" /></g><g
           transform="translate(33.5874,35.6201)"
           id="g48"><path
             id="path50"
             style="fill:none;stroke:#0078be;stroke-width:2;stroke-linecap:butt;stroke-linejoin:miter;stroke-miterlimit:10;stroke-dasharray:none;stroke-opacity:1"
             d="M 0,0 C -1.229,-1.042 -2.964,-1.62 -4.587,-1.62" /></g><g
           transform="translate(12.4126,35.6201)"
           id="g52"><path
             id="path54"
             style="fill:none;stroke:#0078be;stroke-width:2;stroke-linecap:butt;stroke-linejoin:miter;stroke-miterlimit:10;stroke-dasharray:none;stroke-opacity:1"
             d="M 0,0 C 1.229,-1.042 2.964,-1.62 4.587,-1.62" /></g><g
           transform="translate(16,29)"
           id="g56"><path
             id="path58"
             style="fill:none;stroke:#0078be;stroke-width:2;stroke-linecap:butt;stroke-linejoin:miter;stroke-miterlimit:10;stroke-dasharray:none;stroke-opacity:1"
             d="M 0,0 H -4" /></g><g
           transform="translate(34,29)"
           id="g60"><path
             id="path62"
             style="fill:none;stroke:#0078be;stroke-width:2;stroke-linecap:butt;stroke-linejoin:miter;stroke-miterlimit:10;stroke-dasharray:none;stroke-opacity:1"
             d="M 0,0 H -4" /></g></g></g></g></svg>